<svg width="19" height="22" viewBox="0 0 19 22" fill="none" xmlns="http://www.w3.org/2000/svg">
<path d="M0.525589 21.0998V0.924805C0.542256 0.924805 0.588256 0.928805 0.663589 0.936805C0.738256 0.945471 0.817256 0.991471 0.900589 1.0748L1.70059 1.8748C1.80059 1.99147 1.92159 2.04547 2.06359 2.0368C2.20492 2.0288 2.33392 1.9748 2.45059 1.8748L3.20059 1.0998C3.31726 0.983138 3.44659 0.924805 3.58859 0.924805C3.72992 0.924805 3.85892 0.974805 3.97559 1.0748L4.75059 1.8748C4.85059 1.9748 4.97559 2.0248 5.12559 2.0248C5.27559 2.0248 5.40059 1.9748 5.50059 1.8748L6.27559 1.0748C6.39226 0.974805 6.52159 0.924805 6.66359 0.924805C6.80492 0.924805 6.93392 0.974805 7.05059 1.0748L7.82559 1.8748C7.92559 1.9748 8.05059 2.0248 8.20059 2.0248C8.35059 2.0248 8.47559 1.9748 8.57559 1.8748L9.35059 1.0748C9.45059 0.974805 9.57559 0.924805 9.72559 0.924805C9.87559 0.924805 10.0006 0.974805 10.1006 1.0748L10.8756 1.8748C10.9923 1.9748 11.1216 2.0248 11.2636 2.0248C11.4049 2.0248 11.5339 1.9748 11.6506 1.8748L12.4256 1.0748C12.5256 0.974805 12.6506 0.924805 12.8006 0.924805C12.9506 0.924805 13.0756 0.974805 13.1756 1.0748L13.9506 1.8748C14.0673 1.9748 14.1966 2.0248 14.3386 2.0248C14.4799 2.0248 14.6089 1.9748 14.7256 1.8748L15.5006 1.0748C15.6006 0.974805 15.7256 0.924805 15.8756 0.924805C16.0256 0.924805 16.1506 0.974805 16.2506 1.0748L17.0256 1.8748C17.1256 1.9748 17.2506 2.0248 17.4006 2.0248C17.5506 2.0248 17.6756 1.96647 17.7756 1.8498L18.5506 1.0998C18.6506 0.999805 18.7339 0.945471 18.8006 0.936805C18.8673 0.928805 18.9089 0.924805 18.9256 0.924805V21.0998C18.9089 21.0998 18.8673 21.0955 18.8006 21.0868C18.7339 21.0788 18.6506 21.0331 18.5506 20.9498L17.7756 20.1748C17.6756 20.0748 17.5506 20.0205 17.4006 20.0118C17.2506 20.0038 17.1256 20.0581 17.0256 20.1748L16.2506 20.9498C16.1506 21.0498 16.0256 21.0998 15.8756 21.0998C15.7256 21.0998 15.6006 21.0498 15.5006 20.9498L14.7256 20.1748C14.6089 20.0581 14.4799 19.9998 14.3386 19.9998C14.1966 19.9998 14.0673 20.0581 13.9506 20.1748L13.1756 20.9498C13.0756 21.0498 12.9506 21.0998 12.8006 21.0998C12.6506 21.0998 12.5256 21.0498 12.4256 20.9498L11.6506 20.1748C11.5339 20.0581 11.4049 19.9998 11.2636 19.9998C11.1216 19.9998 10.9923 20.0581 10.8756 20.1748L10.1006 20.9498C10.0006 21.0498 9.87559 21.0998 9.72559 21.0998C9.57559 21.0998 9.45059 21.0498 9.35059 20.9498L8.57559 20.1748C8.45892 20.0581 8.32992 19.9998 8.18859 19.9998C8.04659 19.9998 7.91726 20.0581 7.80059 20.1748L7.02559 20.9498C6.92559 21.0498 6.80059 21.0998 6.65059 21.0998C6.50059 21.0998 6.37559 21.0498 6.27559 20.9498L5.50059 20.1748C5.38392 20.0581 5.25492 19.9998 5.11359 19.9998C4.97159 19.9998 4.84226 20.0581 4.72559 20.1748L3.95059 20.9498C3.85059 21.0498 3.72559 21.0998 3.57559 21.0998C3.42559 21.0998 3.30059 21.0498 3.20059 20.9498L2.42559 20.1748C2.32559 20.0581 2.20059 20.0038 2.05059 20.0118C1.90059 20.0205 1.77559 20.0748 1.67559 20.1748L0.900589 20.9498C0.800589 21.0331 0.717256 21.0788 0.650589 21.0868C0.583922 21.0955 0.542256 21.0998 0.525589 21.0998ZM4.85059 16.0498H14.6006C14.9006 16.0498 15.1506 15.9498 15.3506 15.7498C15.5506 15.5498 15.6506 15.2998 15.6506 14.9998C15.6506 14.6998 15.5506 14.4498 15.3506 14.2498C15.1506 14.0498 14.9006 13.9498 14.6006 13.9498H4.85059C4.55059 13.9498 4.30059 14.0498 4.10059 14.2498C3.90059 14.4498 3.80059 14.6998 3.80059 14.9998C3.80059 15.2998 3.90059 15.5498 4.10059 15.7498C4.30059 15.9498 4.55059 16.0498 4.85059 16.0498ZM4.85059 12.0498H14.6006C14.9006 12.0498 15.1506 11.9498 15.3506 11.7498C15.5506 11.5498 15.6506 11.2998 15.6506 10.9998C15.6506 10.6998 15.5506 10.4498 15.3506 10.2498C15.1506 10.0498 14.9006 9.9498 14.6006 9.9498H4.85059C4.55059 9.9498 4.30059 10.0498 4.10059 10.2498C3.90059 10.4498 3.80059 10.6998 3.80059 10.9998C3.80059 11.2998 3.90059 11.5498 4.10059 11.7498C4.30059 11.9498 4.55059 12.0498 4.85059 12.0498ZM4.85059 8.0498H14.6006C14.9006 8.0498 15.1506 7.9498 15.3506 7.7498C15.5506 7.5498 15.6506 7.2998 15.6506 6.9998C15.6506 6.6998 15.5506 6.4498 15.3506 6.2498C15.1506 6.0498 14.9006 5.9498 14.6006 5.9498H4.85059C4.55059 5.9498 4.30059 6.0498 4.10059 6.2498C3.90059 6.4498 3.80059 6.6998 3.80059 6.9998C3.80059 7.2998 3.90059 7.5498 4.10059 7.7498C4.30059 7.9498 4.55059 8.0498 4.85059 8.0498ZM2.80059 18.0248H16.6506V3.9748H2.80059V18.0248Z" fill="#FF523D"/>
</svg>
