<svg xmlns="http://www.w3.org/2000/svg" width="106" height="115" viewBox="0 0 106 115" fill="none">
  <path d="M73.8748 58.291H13.0871C9.42276 58.291 6.45215 61.2616 6.45215 64.926V108.365C6.45215 112.029 9.42276 115 13.0871 115H73.8748C77.5392 115 80.5098 112.029 80.5098 108.365V64.926C80.5098 61.2616 77.5392 58.291 73.8748 58.291Z" fill="#FF523D"/>
  <path d="M49.2282 58.291H37.7393V115H49.2282V58.291Z" fill="#39FDDC"/>
  <path d="M52.1274 4.97234L5.56645 45.5901C3.0132 47.8174 2.74897 51.6929 4.97632 54.2461L5.82945 55.2241C8.05679 57.7773 11.9323 58.0415 14.4855 55.8142L61.0465 15.1965C63.5998 12.9691 63.8639 9.09368 61.6366 6.54043L60.7834 5.56247C58.5561 3.00922 54.6807 2.74499 52.1274 4.97234Z" fill="#FF523D"/>
  <path d="M33.1806 21.5041L24.5229 29.0566L33.5011 39.3485L42.1588 31.7959L33.1806 21.5041Z" fill="#39FDDC"/>
  <path d="M21.8096 6.61024L24.6242 19.7622C25.04 21.7173 27.8715 21.6105 28.1412 19.633L30.13 5.11022C30.3491 3.51469 29.4446 1.97533 27.9389 1.39105C24.5456 0.0764194 21.0511 3.054 21.8152 6.61587L21.8096 6.61024Z" stroke="#39FDDC" stroke-width="6.90584" stroke-miterlimit="10"/>
  <path d="M9.39437 17.4698L21.8777 20.425C24.007 20.9306 23.816 24.0205 21.6418 24.2621L7.14714 25.8408C5.68082 25.9981 4.29316 25.1329 3.79315 23.7452C2.50099 20.1721 5.69767 16.5934 9.39437 17.4698Z" stroke="#39FDDC" stroke-width="6.90584" stroke-miterlimit="10"/>
  <path d="M41.8217 7.41983L39.6251 6.33554C39.0408 6.04902 38.1363 6.33556 37.597 6.98726L25.2203 21.9201C24.681 22.5662 24.7203 23.3246 25.3046 23.6112L27.5012 24.6955C28.0855 24.982 28.99 24.6955 29.5294 24.0438L41.906 9.11088C42.4454 8.4648 42.406 7.70635 41.8217 7.41983Z" fill="#39FDDC"/>
  <path d="M9.43962 35.7564L8.65314 33.4361C8.44527 32.8181 8.84977 31.9586 9.56327 31.5091L25.9793 21.1775C26.6928 20.728 27.44 20.8629 27.6479 21.4809L28.4344 23.8011C28.6423 24.4191 28.2378 25.2787 27.5243 25.7281L11.1082 36.0598C10.3947 36.5093 9.64749 36.3744 9.43962 35.7564Z" fill="#39FDDC"/>
  <path d="M49.5932 46.408C47.8966 47.7732 47.4977 48.8519 47.7673 51.3575C47.8123 51.7564 47.3741 51.9137 47.1494 51.5823C45.7561 49.4811 44.7673 48.9081 42.5819 48.9418C42.2335 48.9418 42.0481 48.4249 42.3178 48.2114C44.0144 46.8462 44.4133 45.7676 44.1436 43.2619C44.0987 42.863 44.537 42.7057 44.7617 43.0372C46.155 45.1383 47.1437 45.7114 49.3291 45.6777C49.6774 45.6777 49.8629 46.1945 49.5932 46.408Z" fill="#39FDDC"/>
  <path d="M77.9409 43.2123C76.0588 43.864 75.379 44.6617 74.8341 46.8977C74.7498 47.2517 74.3229 47.2517 74.233 46.8977C73.688 44.6617 73.0138 43.8584 71.1262 43.2123C70.8284 43.1112 70.8284 42.6055 71.1262 42.4988C73.0082 41.8471 73.688 41.0493 74.233 38.8133C74.3172 38.4594 74.7442 38.4594 74.8341 38.8133C75.379 41.0493 76.0532 41.8527 77.9409 42.4988C78.2387 42.5999 78.2387 43.1055 77.9409 43.2123Z" fill="#39FDDC"/>
  <path d="M70.194 20.6497C68.649 19.8968 67.7614 19.9642 66.1097 20.9755C65.8457 21.1384 65.5872 20.88 65.7389 20.6103C66.7165 18.9417 66.767 18.0541 65.9861 16.5203C65.8625 16.2788 66.1602 15.9754 66.4018 16.0934C67.9468 16.8462 68.8345 16.7788 70.4862 15.7675C70.7502 15.6046 71.0087 15.863 70.857 16.1327C69.8794 17.8013 69.8288 18.6889 70.6098 20.2227C70.7333 20.4642 70.4356 20.7676 70.194 20.6497Z" fill="#39FDDC"/>
  <path d="M85.9917 53.1835C84.9074 51.8351 84.0534 51.5205 82.0646 51.734C81.75 51.7677 81.6208 51.4194 81.8905 51.2452C83.5591 50.1385 84.0141 49.3519 83.986 47.6216C83.986 47.3463 84.3962 47.2002 84.5647 47.4137C85.649 48.762 86.503 49.0767 88.4918 48.8632C88.8064 48.8295 88.9356 49.1778 88.6659 49.3519C86.9973 50.4587 86.5423 51.2452 86.5704 52.9756C86.5704 53.2509 86.1602 53.397 85.9917 53.1835Z" fill="#39FDDC"/>
  <path d="M65.441 47.2563L61.941 46.8574C61.1095 46.7619 60.396 47.4585 60.469 48.29L60.8173 52.262C60.9185 53.425 62.3623 53.8969 63.132 53.0205L66.2837 49.4473C66.9916 48.644 66.5028 47.3743 65.441 47.2563Z" fill="#FF523D"/>
  <path d="M52.0529 29.9024L51.3507 33.3576C51.1821 34.1778 51.8113 34.9475 52.6484 34.9475H56.6373C57.8002 34.9475 58.4014 33.5542 57.598 32.7058L54.3114 29.2507C53.5755 28.4754 52.2664 28.8518 52.0529 29.9024Z" fill="#1E1A25"/>
  <path d="M82.9475 18.6774L78.8968 22.7056C78.0765 23.5202 78.6215 24.9247 79.7845 24.9697L83.4025 25.1045C84.0991 25.1326 84.7003 24.6101 84.7733 23.9191L85.2059 19.7561C85.3352 18.5145 83.8351 17.801 82.9531 18.6774H82.9475Z" fill="#FF523D"/>
  <path d="M99.1438 28.4864L98.4415 31.9415C98.273 32.7618 98.9022 33.5315 99.7393 33.5315H103.728C104.891 33.5315 105.492 32.1382 104.689 31.2898L101.402 27.8347C100.666 27.0594 99.3573 27.4358 99.1438 28.4864Z" fill="#1E1A25"/>
</svg>