<svg xmlns="http://www.w3.org/2000/svg" width="80" height="65" viewBox="0 0 80 65" fill="none">
<g id="No_rewards_yet">
<g id="no result">
<g id="Group">
<path id="Vector" d="M44.0016 11.4455L43.3355 11.993C43.2057 12.1003 43.0251 12.0777 42.9235 11.9535L37.7191 5.28716C37.5893 5.12347 37.6683 4.86946 37.8715 4.80737L39.9544 4.15823C40.0842 4.11872 40.2197 4.16952 40.2874 4.28806L44.0806 11.0616C44.154 11.1915 44.1201 11.3552 44.0016 11.4511V11.4455Z" fill="#1E1A25"/>
<path id="Vector_2" d="M49.3921 10.8469L48.2463 10.8582C48.0487 10.8582 47.8793 10.734 47.8511 10.5591L46.5867 3.2718C46.5529 3.06295 46.7278 2.88232 46.9649 2.88232L50.0469 2.89926C50.2783 2.89926 50.459 3.07424 50.442 3.27745L49.776 10.5365C49.759 10.7115 49.5953 10.8469 49.3978 10.8469H49.3921Z" fill="#1E1A25"/>
<path id="Vector_3" d="M59.9419 5.59234L55.477 12.8119C55.3923 12.953 55.2117 13.0151 55.048 12.9643L54.0771 12.6651C53.8795 12.603 53.7779 12.4054 53.8457 12.2192L56.8599 4.25455C56.9333 4.06828 57.1591 3.97796 57.351 4.05699L59.7725 5.10125C59.9701 5.18592 60.0491 5.41171 59.9362 5.59234H59.9419Z" fill="#1E1A25"/>
</g>
<g id="Vector_4">
<path d="M5.81055 36.9585C7.06366 39.6171 8.67239 44.003 8.70626 49.5404C8.72319 52.0749 8.40709 54.2989 8.00067 56.1221C8.04583 56.4213 8.20952 57.3075 8.97155 58.0808C9.48522 58.6001 10.1569 58.967 10.9133 59.0912L42.4613 64.2786C42.7322 64.3238 42.9693 64.1093 42.958 63.8384C42.5798 56.2576 42.2016 48.6768 41.8235 41.096" fill="#FF523D"/>
<path d="M5.81055 36.9585C7.06366 39.6171 8.67239 44.003 8.70626 49.5404C8.72319 52.0749 8.40709 54.2989 8.00067 56.1221C8.04583 56.4213 8.20952 57.3075 8.97155 58.0808C9.48522 58.6001 10.1569 58.967 10.9133 59.0912L42.4613 64.2786C42.7322 64.3238 42.9693 64.1093 42.958 63.8384C42.5798 56.2576 42.2016 48.6768 41.8235 41.096" stroke="white" stroke-miterlimit="10"/>
</g>
<path id="Vector_5" d="M7.13645 34.4134C6.73004 34.6053 6.82035 35.2037 7.26064 35.2714L40.4399 40.583L41.6535 40.7749C41.7608 40.7919 41.868 40.7749 41.964 40.7128L68.5108 24.5465C68.8664 24.332 68.7704 23.7902 68.364 23.7111L43.4259 18.8229C41.9358 18.5293 40.3891 18.7213 39.0175 19.3704C32.4527 22.4637 12.5384 31.862 7.1421 34.4078L7.13645 34.4134Z" fill="#FF523D" stroke="white" stroke-miterlimit="10"/>
<path id="Vector_6" d="M32.5773 53.3849C22.4 52.5213 13.6959 49.8231 2.86384 47.8306C2.00585 47.6725 1.32849 47.0065 1.17608 46.1428C0.961586 44.9123 0.837404 43.01 1.44703 40.8369C1.84215 39.4313 2.41791 38.2572 2.99366 37.3259C3.65409 36.2534 4.88462 35.672 6.13209 35.8639C17.5682 37.6138 29.0042 39.3636 40.446 41.1134C40.1863 41.2038 36.2125 42.6601 35.3771 46.5718C35.0666 48.0338 34.7561 50.111 34.6037 51.7028C34.5078 52.7245 33.6046 53.4809 32.5773 53.3962V53.3849Z" fill="#FF523D" stroke="white" stroke-miterlimit="10"/>
<g id="Vector_7">
<path d="M28.4229 38.8329L41.5015 32.7367L41.1007 18.9976" fill="#FF523D"/>
<path d="M28.4229 38.8329L41.5015 32.7367L41.1007 18.9976" stroke="white" stroke-miterlimit="10"/>
</g>
<g id="Vector_8">
<path d="M73.456 35.5762C72.8915 36.0898 71.898 37.151 71.3844 38.7993C70.4248 41.8756 71.915 44.5004 72.1916 44.9689C72.1577 45.2116 72.0674 45.6632 71.7626 46.1317C71.5368 46.4816 71.2376 46.7752 70.8763 47.001L43.3248 64.1438C43.1667 64.2397 42.9635 64.1325 42.9635 63.9462L42.4047 41.8474C42.2071 41.4974 42.0096 41.1474 41.812 40.7975" fill="#FF523D"/>
<path d="M73.456 35.5762C72.8915 36.0898 71.898 37.151 71.3844 38.7993C70.4248 41.8756 71.915 44.5004 72.1916 44.9689C72.1577 45.2116 72.0674 45.6632 71.7626 46.1317C71.5368 46.4816 71.2376 46.7752 70.8763 47.001L43.3248 64.1438C43.1667 64.2397 42.9635 64.1325 42.9635 63.9462L42.4047 41.8474C42.2071 41.4974 42.0096 41.1474 41.812 40.7975" stroke="white" stroke-miterlimit="10"/>
</g>
<path id="Vector_9" d="M42.9805 40.8032C44.3465 41.5878 46.2826 42.9143 48.1453 45.0198C49.342 46.3745 50.2169 47.7179 50.8491 48.892C51.3346 49.7951 52.4974 50.0717 53.3441 49.4903C61.1224 44.1505 70.5828 39.0364 78.316 33.6909C79.1345 33.1265 79.2361 31.958 78.5249 31.2694C77.3564 30.1348 75.6066 28.7519 74.6018 27.51C74.3083 27.1431 74.0035 26.8101 73.7043 26.4996C72.2424 24.9982 69.9337 24.7329 68.1331 25.8054C59.7507 30.8065 51.3628 35.8077 42.9805 40.8089V40.8032Z" fill="#FF523D" stroke="white" stroke-miterlimit="10"/>
<path id="Vector_10" d="M52.2376 35.2764L41.5015 32.7363" stroke="white" stroke-miterlimit="10"/>
<path id="Vector_11" d="M36.5342 28.9152C28.976 24.5293 23.2354 15.3229 23.8281 6.42694C24.0087 3.53123 25.8206 0.341998 29.134 0.607297C31.0476 0.748413 32.9103 1.58382 34.1239 3.11353C36.5906 6.28582 35.1625 10.954 32.1257 13.0876C27.8866 16.1357 22.0161 15.7293 17.3875 13.8384C14.266 12.3143 12.5331 9.0517 11.8219 5.83425C11.4719 4.2481 11.3026 2.63373 11.3647 1.03065C11.9517 5.42783 13.6338 10.6379 18.0028 12.4949C20.7856 13.4715 24.0426 13.6747 26.927 13.1441C29.5969 12.6473 32.391 10.8354 33.0289 8.09211C33.5143 6.16164 32.6789 4.16343 30.8952 3.34496C29.8566 2.85387 28.4454 2.49826 27.4632 3.20948C25.894 4.48518 25.7303 6.96882 25.7642 8.88801C26.227 16.6607 30.3589 23.9592 36.5342 28.9152Z" fill="#39FDDC"/>
</g>
</g>
</svg>