<svg width="24" height="22" viewBox="0 0 24 22" fill="none" xmlns="http://www.w3.org/2000/svg">
<path d="M6.42188 8.96094L7.22656 7.92188L7.35156 8C9.04688 9.08594 11.1484 11.6406 11.1484 13.4609V17.7578C11.1484 18.3828 11.4531 18.7188 12 18.7188C12.5469 18.7188 12.8438 18.3828 12.8438 17.7578V13.4609C12.8438 11.6406 14.9453 9.08594 16.6406 8L16.7266 7.94531L17.4531 8.94531C17.8281 9.46094 18.3281 9.3125 18.5234 8.70312L19.5781 5.52344C19.7422 5.03125 19.4609 4.64062 18.9375 4.64844L15.5938 4.67188C14.9531 4.67188 14.6641 5.10156 15.0312 5.60938L15.7188 6.55469C14.1172 7.63281 12.3594 9.75 12.0156 11.0078H11.9844C11.6328 9.74219 9.88281 7.64062 8.28125 6.5625L8.95312 5.69531C9.33594 5.20312 9.0625 4.76562 8.42188 4.74219L5.07031 4.61719C4.55469 4.59375 4.26562 4.96875 4.41406 5.46875L5.36719 8.67969C5.54688 9.29688 6.03125 9.46094 6.42188 8.96094Z" fill="#FF7512"/>
</svg>
