<svg xmlns="http://www.w3.org/2000/svg" width="168" height="161" viewBox="0 0 168 161" fill="none">
<g clip-path="url(#clip0_32956_7949)">
<path d="M18.0457 5.95316L27.3332 29.3038C27.7621 30.3728 28.975 30.9006 30.0471 30.473L35.2739 28.4018C36.212 28.0277 36.7548 27.0389 36.5538 26.0567L31.6822 1.8643C31.4543 0.735181 30.3018 0.0537035 29.2028 0.38108L19.2988 3.36087C18.2065 3.68825 17.6235 4.88418 18.0457 5.94648" fill="#39FDDC"/>
<path d="M167.484 119.719L148.501 99.4889C147.931 98.8542 146.899 98.4734 145.981 98.5536L141.572 98.9478C140.674 99.0279 140.205 99.529 140.124 100.184C136.66 127.891 104.723 143.224 80.3182 145.596C78.4152 145.783 77.0616 147.252 77.2827 148.869L78.4621 157.648C78.6899 159.312 80.4925 160.508 82.4424 160.247C121.71 154.896 145.365 125.198 145.492 106.31L158.264 122.258C159.035 123.14 160.489 123.541 161.507 123.16L167.103 121.971C168.101 121.59 168.275 120.581 167.491 119.719" fill="white"/>
<path d="M72.6587 103.611C70.7355 106.738 68.5041 107.446 63.0562 107.446C57.166 107.446 56.5362 104.92 54.7671 101.386C51.564 94.9587 45.8213 84.2421 38.7317 74.4475C37.5992 72.8841 38.1085 70.9333 39.8574 70.0513L46.1229 66.9045C47.8718 66.0226 50.2506 66.6039 51.4032 68.1739C56.8712 75.6435 61.2871 84.5294 64.7381 90.8164C77.852 71.4343 104.12 52.0122 117.629 43.8612C107.008 34.394 91.6962 28.3275 74.7963 28.1338C43.9986 27.773 15.0371 47.4624 10.916 75.2292C6.17167 107.178 35.5152 134.665 75.0174 132.119C112.369 129.714 137.464 101.413 133.403 72.5568C132.378 65.2543 129.644 58.6466 125.683 52.9209C112.04 61.7667 85.806 82.2177 72.652 103.604" fill="#FF523D"/>
<path d="M0.837588 36.2312L15.7003 42.5983C16.4777 42.9324 17.3823 42.6718 17.8648 41.9836L20.5317 38.1954C21.1013 37.3937 20.9003 36.2779 20.0962 35.7167L5.99734 25.842C5.31384 25.3676 4.369 25.6148 4.00715 26.3631L0.16079 34.4206C-0.167557 35.1087 0.140687 35.9305 0.844289 36.2312" fill="#39FDDC"/>
</g>
<defs>
<clipPath id="clip0_32956_7949">
<rect width="167.946" height="159.987" fill="white" transform="translate(0.0268555 0.300781)"/>
</clipPath>
</defs>
</svg>