<svg width="209" height="249" viewBox="0 0 209 249" fill="none" xmlns="http://www.w3.org/2000/svg">
<path d="M147.647 60.6823C137.391 63.6578 133.715 67.3246 130.74 77.5899C130.267 79.2176 127.957 79.2176 127.484 77.5899C124.509 67.3333 120.842 63.6578 110.577 60.6823C108.94 60.2098 108.94 57.8994 110.577 57.4181C120.834 54.4427 124.509 50.7759 127.484 40.5106C127.957 38.8741 130.267 38.8741 130.74 40.5106C133.715 50.7671 137.382 54.4427 147.647 57.4181C149.275 57.8907 149.275 60.201 147.647 60.6823Z" fill="#39FDDC"/>
<path d="M173.463 174.983C167.127 176.821 164.861 179.087 163.023 185.423C162.734 186.43 161.308 186.43 161.01 185.423C159.172 179.087 156.906 176.821 150.57 174.983C149.555 174.694 149.555 173.268 150.57 172.97C156.906 171.132 159.172 168.866 161.01 162.53C161.299 161.515 162.726 161.515 163.023 162.53C164.861 168.866 167.127 171.132 173.463 172.97C174.47 173.259 174.47 174.686 173.463 174.983Z" fill="#39FDDC"/>
<path d="M57.1842 196.835C49.8943 198.952 47.2865 201.56 45.1686 208.85C44.8361 210.005 43.1907 210.005 42.8494 208.85C40.7316 201.56 38.1237 198.952 30.8339 196.835C29.67 196.502 29.67 194.857 30.8339 194.515C38.1237 192.398 40.7316 189.79 42.8494 182.5C43.182 181.336 44.8273 181.336 45.1686 182.5C47.2865 189.79 49.8943 192.398 57.1842 194.515C58.3393 194.848 58.3393 196.493 57.1842 196.835Z" fill="#39FDDC"/>
<path d="M178.487 193.623C174.216 194.866 172.685 196.389 171.442 200.668C171.241 201.342 170.278 201.342 170.085 200.668C168.843 196.398 167.32 194.866 163.041 193.623C162.367 193.422 162.367 192.459 163.041 192.258C167.311 191.016 168.843 189.493 170.085 185.213C170.287 184.54 171.249 184.54 171.442 185.213C172.685 189.484 174.207 191.016 178.487 192.258C179.16 192.459 179.16 193.422 178.487 193.623Z" fill="#39FDDC"/>
<path d="M59.6962 114.826L60.4401 116.612C60.7289 117.303 60.4051 118.108 59.7137 118.397L35.9102 128.522C34.8513 128.969 33.6873 128.199 33.6786 127.052L33.6348 121.583C33.6348 120.847 34.125 120.2 34.8426 120.016L58.0949 114.021C58.76 113.855 59.4424 114.196 59.705 114.826" fill="white"/>
<path d="M57.7099 97.5342L57.2898 99.1356C57.0885 99.9145 56.3359 100.413 55.5395 100.308L36.9342 97.7879C35.8841 97.6479 35.2016 96.6065 35.4904 95.5826L37.0481 90.078C37.3282 89.0891 38.3957 88.5553 39.3496 88.9316L56.7473 95.6526C57.4999 95.9414 57.9199 96.7553 57.7099 97.5429" fill="white"/>
<path d="M53.8935 62.494L68.9632 78.2727C69.4008 78.7277 69.4532 79.4278 69.1032 79.9442L68.018 81.5544C67.5979 82.1845 66.7404 82.3333 66.1278 81.8957L48.275 69.0575C47.4086 68.4362 47.26 67.211 47.9513 66.3971L51.1892 62.5728C51.8894 61.7502 53.1496 61.7064 53.8935 62.494Z" fill="white"/>
<path d="M111.757 138.832C118.714 138.832 124.35 133.196 124.35 126.239C124.35 119.281 118.714 113.646 111.757 113.646C104.8 113.646 99.1641 119.281 99.1641 126.239C99.1641 133.196 104.8 138.832 111.757 138.832Z" fill="#FF523D"/>
<path d="M87.4035 90.1302C82.8441 95.5997 73.9702 113.636 82.3627 147.224C77.322 170.73 77.2956 187.62 89.915 198.436C101.668 208.509 122.662 199.277 120.982 184.163C119.669 172.357 119.608 164.376 127.703 157.296C141.136 145.543 150.15 131.226 156.25 116.997C161.291 105.244 151.209 95.1709 142.817 110.276C135.299 123.805 126.023 153.936 102.517 145.543C89.005 140.721 90.3877 110.845 97.4763 100.203C107.549 85.0894 95.796 80.0486 87.4035 90.1302Z" fill="#FF523D"/>
</svg>
