<svg xmlns="http://www.w3.org/2000/svg" width="350" height="418" viewBox="0 0 350 418" fill="none">
<path opacity="0.08" d="M247.471 101.868C230.253 106.863 224.083 113.019 219.088 130.251C218.295 132.984 214.416 132.984 213.623 130.251C208.628 113.034 202.473 106.863 185.24 101.868C182.493 101.075 182.493 97.1967 185.24 96.3887C202.458 91.3937 208.628 85.2382 213.623 68.0057C214.416 65.2585 218.295 65.2585 219.088 68.0057C224.083 85.2235 230.238 91.3937 247.471 96.3887C250.203 97.182 250.203 101.06 247.471 101.868Z" fill="#DCECEE"/>
<path d="M290.807 293.746C280.171 296.831 276.366 300.636 273.281 311.272C272.796 312.962 270.401 312.962 269.902 311.272C266.817 300.636 263.012 296.831 252.376 293.746C250.672 293.261 250.672 290.866 252.376 290.367C263.012 287.282 266.817 283.477 269.902 272.841C270.387 271.136 272.781 271.136 273.281 272.841C276.366 283.477 280.171 287.282 290.807 290.367C292.497 290.852 292.497 293.246 290.807 293.746Z" fill="#39FDDC"/>
<path d="M95.6102 330.432C83.3726 333.987 78.9948 338.365 75.4396 350.602C74.8813 352.541 72.1192 352.541 71.5462 350.602C67.991 338.365 63.6131 333.987 51.3756 330.432C49.4217 329.873 49.4217 327.111 51.3756 326.539C63.6131 322.983 67.991 318.605 71.5462 306.368C72.1045 304.414 74.8666 304.414 75.4396 306.368C78.9948 318.605 83.3726 322.983 95.6102 326.539C97.5494 327.097 97.5494 329.859 95.6102 330.432Z" fill="#39FDDC"/>
<path opacity="0.08" d="M299.243 325.041C292.073 327.127 289.503 329.683 287.417 336.867C287.079 337.998 285.463 337.998 285.14 336.867C283.053 329.698 280.497 327.127 273.313 325.041C272.182 324.703 272.182 323.087 273.313 322.749C280.482 320.663 283.053 318.106 285.14 310.923C285.477 309.791 287.094 309.791 287.417 310.923C289.503 318.092 292.059 320.663 299.243 322.749C300.374 323.087 300.374 324.703 299.243 325.041Z" fill="#DCECEE"/>
<path d="M99.8278 192.762L101.077 195.759C101.562 196.919 101.018 198.271 99.8573 198.756L59.8979 215.753C58.1203 216.502 56.1663 215.21 56.1517 213.285L56.0781 204.103C56.0781 202.869 56.901 201.782 58.1057 201.473L97.1396 191.41C98.2562 191.131 99.4018 191.704 99.8425 192.762" fill="white"/>
<path d="M96.49 163.73L95.7849 166.419C95.447 167.726 94.1836 168.564 92.8467 168.387L61.6137 164.156C59.8508 163.921 58.705 162.173 59.1898 160.454L61.8049 151.214C62.275 149.554 64.0671 148.657 65.6684 149.289L94.8742 160.572C96.1376 161.057 96.8426 162.423 96.49 163.745" fill="white"/>
<path opacity="0.08" d="M90.0855 104.91L115.383 131.398C116.118 132.162 116.206 133.337 115.618 134.204L113.797 136.907C113.091 137.965 111.652 138.214 110.623 137.48L80.6537 115.928C79.1993 114.885 78.9497 112.828 80.1103 111.462L85.5459 105.042C86.7212 103.661 88.8368 103.588 90.0855 104.91Z" fill="white"/>
<path d="M187.222 233.058C198.901 233.058 208.363 223.597 208.363 211.918C208.363 200.238 198.901 190.777 187.222 190.777C175.543 190.777 166.082 200.238 166.082 211.918C166.082 223.597 175.543 233.058 187.222 233.058Z" fill="#FF523D"/>
<path d="M146.337 151.306C138.683 160.487 123.786 190.765 137.875 247.149C129.413 286.609 129.369 314.963 150.553 333.121C170.283 350.03 205.527 334.531 202.706 309.16C200.502 289.342 200.399 275.944 213.989 264.059C236.539 244.329 251.671 220.294 261.911 196.407C270.373 176.677 253.448 159.768 239.36 185.124C226.74 207.836 211.168 258.417 171.708 244.329C149.025 236.234 151.347 186.079 163.246 168.215C180.156 142.844 160.426 134.382 146.337 151.306Z" fill="#FF523D"/>
</svg>