<svg width="350" height="418" viewBox="0 0 350 418" fill="none" xmlns="http://www.w3.org/2000/svg">
<path opacity="0.08" d="M176 204.326L285.09 267.571L176.589 392.892L176 204.326Z" fill="#DCECEE"/>
<path d="M267.379 320.178L321.418 310.895V288.719L267.379 320.178Z" fill="#FF371E"/>
<path d="M285.017 267.584L321.143 288.392L321.277 225.173L285.017 267.584Z" fill="#5DDBFE"/>
<path opacity="0.08" d="M176 204.326L176.224 78.2314L339 109.536L176 204.326Z" fill="#DCECEE"/>
<path d="M230.637 67.2661L195.577 25.1084L176.374 36.1942L230.637 67.2661Z" fill="#FF371E"/>
<path d="M176.271 78.2869L176.228 36.5938L121.41 68.0873L176.271 78.2869Z" fill="#5DDBFE"/>
<path opacity="0.08" d="M176 204.326L66.6826 267.18L12.4023 110.56L176 204.326Z" fill="#DCECEE"/>
<path d="M29.9796 225.543L11 276.98L30.2033 288.07L29.9796 225.543Z" fill="#FF371E"/>
<path d="M66.708 267.111L30.6201 287.997L85.3047 319.722L66.708 267.111Z" fill="#5DDBFE"/>
<path d="M205.493 156.941L137.783 120.144L128.538 124.738L137.783 242.19L196.249 286.15L205.493 281.56V156.941Z" fill="#BF0000"/>
<path d="M196.249 286.151L128.538 246.781V124.738L196.249 161.532V286.151Z" fill="#FF371E"/>
<path d="M174.684 196.97C174.684 206.223 169.009 210.529 162.041 206.602C155.097 202.691 149.492 192.096 149.492 182.916C149.492 173.736 155.097 169.391 162.041 173.228C169.014 177.083 174.684 187.717 174.684 196.97Z" fill="#BF0000"/>
<path d="M182.027 197.937C181.954 202.596 181.803 205.831 181.515 209.096C181.072 214.117 179.975 217.093 178.16 218.19C178.082 218.238 178.005 218.285 177.927 218.328C175.699 219.576 172.851 219.296 169.934 217.648L154.186 208.748C151.303 207.118 148.494 204.214 146.309 200.497C146.232 200.368 146.154 200.235 146.081 200.101C144.3 196.995 143.229 192.84 142.794 187.389C142.515 183.845 142.368 180.485 142.295 175.805L134.591 171.727C134.668 176.725 134.827 180.347 135.133 184.223C135.782 192.431 137.684 199.194 140.949 204.911C142.872 208.275 144.803 210.912 146.662 213.007V245.597C146.662 246.836 147.423 248.286 148.352 248.824L175.841 264.727C176.787 265.274 177.562 264.702 177.562 263.454V230.55C179.463 230.575 181.438 230.137 183.408 228.954C186.767 226.932 188.729 222.26 189.4 214.663C189.719 211.075 189.878 207.569 189.959 202.575L182.023 197.937H182.027Z" fill="#BF0000"/>
<path d="M155.867 189.94C155.867 194.457 158.629 199.667 162.04 201.581C165.46 203.5 168.239 201.383 168.239 196.849" fill="#FF371E"/>
<path d="M184.913 177.211C184.638 177.211 184.354 177.143 184.096 177.001L138.664 152.033C137.843 151.581 137.542 150.549 137.993 149.723C138.445 148.901 139.477 148.6 140.303 149.052L185.735 174.02C186.556 174.471 186.857 175.504 186.406 176.33C186.096 176.893 185.515 177.211 184.913 177.211Z" fill="#E50000"/>
<path d="M184.913 167.614C184.638 167.614 184.358 167.545 184.1 167.407L138.669 142.573C137.847 142.121 137.541 141.089 137.993 140.267C138.445 139.446 139.477 139.14 140.299 139.592L185.73 164.426C186.552 164.878 186.857 165.91 186.406 166.732C186.096 167.295 185.515 167.618 184.913 167.618V167.614Z" fill="#E50000"/>
<path d="M248.218 111.785C248.218 111.785 240.686 115.067 233.855 120.156C232.194 121.395 230.654 122.793 229.213 124.286C227.066 126.51 225.242 129.152 224.502 132.15C223.229 137.295 225.195 143.128 229.639 146.109C231.704 147.494 234.754 148.084 237.227 147.636L230.796 142.861L229.97 142.165L228.791 139.05C228.791 139.05 227.411 132.911 239.787 124.605C247.526 119.412 249.909 118.543 251.161 117.928C251.161 117.928 248.218 111.794 248.218 111.789V111.785Z" fill="#FF371E"/>
<path d="M228.787 139.046C228.981 140.366 229.054 141.558 229.574 142.827C229.944 143.73 230.413 144.582 231.011 145.335C231.403 145.825 232.332 146.604 232.844 146.97C234.065 147.843 235.352 147.912 236.823 147.71C238.238 147.516 240.858 146.441 242.166 145.89C246.029 144.264 248.33 142.44 252.348 141.188C254.8 140.362 258.138 139.622 260.375 141.373L261.261 138.908L257.454 135.32C257.325 135.204 256.882 134.873 256.714 134.804C256.284 134.623 255.854 134.542 255.428 134.49C251.118 133.965 247.238 135.88 243.603 137.962C240.316 139.842 235.894 143.033 231.876 142.225C230.37 141.924 229.566 140.668 228.955 139.394C228.908 139.295 228.804 139.158 228.787 139.05V139.046Z" fill="#BF0000"/>
<path d="M248.477 179.315C248.477 179.315 251.436 184.219 253.492 184.412C253.492 184.412 265.094 167.652 266.419 156.924C267.744 146.191 267.177 139.544 256.715 134.804C256.715 134.804 269.839 142.878 248.481 179.315H248.477Z" fill="#FF371E"/>
<path d="M174.761 306.744C174.761 306.744 179.278 307.397 181.145 310.912C182.134 312.77 182.009 314.663 182.113 316.724C182.199 318.466 182.366 320.204 182.607 321.933C182.831 323.534 183.214 325.314 184.182 326.648C184.814 327.517 181.532 326.128 179.579 324.2C177.794 322.445 176.387 319.399 176.387 319.399C176.387 319.399 175.66 317.163 174.761 306.739V306.744Z" fill="#BF0000"/>
<path d="M176.387 319.403C176.387 319.403 181.14 327.878 187.322 326.076C193.499 324.273 194.648 318.935 194.648 318.935C194.648 318.935 200.227 322.66 201.027 323.305C201.027 323.305 199.04 330.601 193.271 331.461C185.485 332.623 178.09 325.03 176.391 319.403H176.387Z" fill="#FF371E"/>
<path d="M181.192 311.006C180.861 310.163 180.65 309.819 180.469 309.522C179.949 308.649 179.463 307.995 178.783 307.242C177.738 306.085 176.598 304.992 175.316 304.11C171.685 301.615 167.512 301.258 163.636 303.456C161.666 304.575 159.958 306.098 158.19 307.513C155.949 309.307 152.92 311.565 149.888 311.372L148.73 312.589L151.006 315.527C152.327 316.25 153.931 316.818 155.441 316.882C160.913 317.115 164.935 311.914 168.91 308.915C169.573 308.412 170.261 307.956 171.014 307.586C172.089 307.066 173.143 306.962 174.348 306.855C174.348 306.855 177.987 306.696 181.192 311.006Z" fill="#FF371E"/>
<path d="M141.68 295.352C141.68 295.352 142.187 295.339 142.23 295.344C142.742 295.387 143.241 295.546 143.702 295.765C145.276 296.509 146.511 297.951 147.341 299.452C147.973 300.592 148.167 301.22 148.352 302.51C148.52 303.676 148.61 305.492 148.687 306.666C148.898 309.897 150.06 313.089 152.176 315.562C152.417 315.846 152.671 316.117 152.938 316.38C152.938 316.38 149.328 315.498 145.642 310.426C141.951 305.354 143.689 298.243 141.684 295.352H141.68Z" fill="#BF0000"/>
<path d="M115.349 308.094C115.349 308.094 118.545 308.094 120.506 305.547C122.468 303.005 125.161 299.589 129.342 294.917C130.637 293.472 132.134 292.091 133.885 291.222C136.367 289.987 139.056 290.568 141.431 291.854C144.347 293.438 145.969 295.502 147.195 298.587C147.466 299.266 147.737 300.019 147.991 300.832C147.367 299.624 146.541 298.466 145.603 297.486C144.373 296.195 142.747 295.455 140.957 295.89C139.301 296.29 138.023 297.374 136.763 298.428C135.244 299.701 133.855 300.931 132.607 302.489C130.654 304.919 129.015 307.603 126.895 309.896C125.243 311.682 122.735 313.918 120.081 313.054L115.353 308.094H115.349Z" fill="#FF371E"/>
<path d="M101.113 149.267C101.113 149.267 99.2765 154.36 94.7467 155.698C92.3506 156.403 90.1825 155.81 87.7605 155.44C85.7129 155.126 83.6523 154.906 81.5874 154.777C79.6731 154.661 77.5136 154.678 75.7327 155.487C74.5712 156.016 76.9716 152.532 79.6731 150.716C82.1381 149.06 86.0183 148.148 86.0183 148.148C86.0183 148.148 88.793 147.834 101.122 149.271L101.113 149.267Z" fill="#BF0000"/>
<path d="M86.0102 148.145C86.0102 148.145 75.0276 151.655 75.6514 159.269C76.2752 166.879 82.2074 169.486 82.2074 169.486C82.2074 169.486 76.5505 175.087 75.6084 175.861C75.6084 175.861 67.5984 171.813 67.9727 164.9C68.4717 155.574 79.0627 148.777 86.0102 148.145Z" fill="#FF371E"/>
<path d="M94.631 155.732C95.6893 155.547 96.1366 155.384 96.5281 155.246C97.6638 154.85 98.5457 154.442 99.5824 153.831C101.174 152.893 102.714 151.826 104.048 150.544C107.812 146.918 109.218 142.151 107.588 137.122C106.758 134.563 105.394 132.218 104.168 129.827C103.463 128.45 102.688 126.867 102.138 125.219C101.475 123.232 93.5771 127.985 94.0029 129.723C95.0655 134.051 98.1714 138.151 99.9868 141.958C100.413 142.848 100.783 143.756 101.028 144.719C101.381 146.092 101.247 147.344 101.088 148.772C101.088 148.772 100.404 153.043 94.6353 155.741L94.631 155.732Z" fill="#FF371E"/>
</svg>
