<svg xmlns="http://www.w3.org/2000/svg" width="100" height="120" viewBox="0 0 100 120" fill="none">
  <path d="M21.8576 1.90789L27.5443 10.0227C27.7218 10.269 27.7791 10.6584 27.6874 10.9676L27.2236 12.4795C27.1319 12.7888 26.92 12.9148 26.6852 12.8919C16.7378 12.0615 9.02956 22.0719 6.40669 30.4158C6.20052 31.0629 5.58779 31.4294 5.03801 31.2347L2.05435 30.1753C1.4874 29.9748 1.20105 29.2533 1.43584 28.5947C6.18907 15.2856 18.3184 9.22099 24.9329 10.5668L20.2884 4.93735C20.0365 4.60519 20.0021 4.06686 20.214 3.74043L21.0386 1.87923C21.2448 1.55853 21.6113 1.57574 21.8576 1.90789Z" fill="#1E1A25"/>
  <path d="M91.4545 49.763C92.8977 49.2762 94.2148 48.5661 95.6179 47.982C95.9042 47.8617 95.9959 47.5009 95.8126 47.2547C95.3888 46.682 94.9593 46.264 94.3752 45.7486C94.0201 45.4336 93.6193 45.4622 93.3444 45.6626C92.7889 46.0635 90.6585 47.2661 90.3034 47.6327C90.0457 47.9075 90.0515 48.3371 90.2805 48.6406C90.5039 48.9326 90.71 49.2419 90.8933 49.5568C91.0021 49.7516 91.2369 49.8375 91.4488 49.763" fill="#39FDDC"/>
  <path d="M92.4337 51.5827C92.1589 51.6629 91.9928 51.9378 92.0729 52.2127C92.2963 53.0087 92.428 53.8391 92.4509 54.6752C92.4624 55.1562 92.8174 55.58 93.2928 55.6201C94.3866 55.6831 97.9143 54.6866 99.0081 54.7554C99.5578 54.8012 100.022 54.0166 99.8557 53.1862C99.6266 52.018 99.2658 50.9069 98.7905 49.8761C98.6759 49.6299 98.3839 49.5154 98.1319 49.6127C96.2478 50.3343 94.3637 51.033 92.428 51.5827" fill="#39FDDC"/>
  <path d="M0.335535 7.75354C0.392803 7.77072 4.17821 10.7315 4.38438 10.7716C4.69362 10.8403 4.97996 10.7887 5.10022 10.5826C5.94206 9.16806 7.10461 7.81081 9.01736 7.17513C9.35524 7.0606 9.59003 6.7399 9.51559 6.46502C9.3896 6.00687 7.01296 0.858516 6.9156 0.686712C6.74953 0.400373 6.44603 0.457644 5.89625 0.761163C3.75444 1.9237 1.1831 5.27958 0.232457 7.04343C0.0492 7.38703 0.0663761 7.67337 0.335535 7.75928" fill="#39FDDC"/>
  <path d="M54.9281 58.3064C54.0691 57.2297 53.4105 55.7465 53.1929 54.2003C52.9752 52.654 53.2444 51.377 53.84 50.6038C54.7849 49.3783 54.8021 47.0303 53.9259 44.8141C53.9145 44.7797 53.8973 44.7454 53.8858 44.711C52.9924 42.4604 51.3374 40.7996 49.7511 40.4617C48.7832 40.2555 47.7123 39.4767 46.8075 38.1882C45.9027 36.8997 45.3357 35.3592 45.1983 33.9733C44.9635 31.6768 43.7379 29.1857 42.0256 27.754C41.997 27.7311 41.9741 27.7082 41.9455 27.691C40.2274 26.2536 38.3834 26.1562 37.4328 27.5421C36.8315 28.4125 35.8178 28.7676 34.5694 28.361C33.3209 27.9544 32.061 26.8549 31.1276 25.4461C29.61 23.1611 27.388 21.8325 25.6298 22.1475C25.6012 22.1475 25.5783 22.1589 25.5497 22.1647C23.7343 22.5025 22.8524 24.547 23.259 27.1813C23.5052 28.7676 23.2361 30.228 22.3828 31.15C21.5238 32.0834 20.2352 32.2781 18.8837 31.82C16.5873 31.0469 14.5543 31.9517 13.9186 34.271C13.9071 34.3054 13.9014 34.3398 13.8899 34.3741C13.2657 36.7049 14.1591 39.8604 16.1291 42.0996C17.3432 43.474 18.208 45.2837 18.4141 47.1449C18.6203 49.0061 18.1278 50.558 17.1657 51.5087C15.5908 53.0664 15.3618 56.0729 16.5644 58.8676C16.5816 58.9077 16.5987 58.9535 16.6216 58.9936C17.8414 61.7997 20.2352 63.6724 22.5202 63.8155C23.8717 63.9014 25.2977 64.6688 26.4602 66.0776C27.6228 67.4864 28.2756 69.2273 28.4131 70.9053C28.6422 73.7057 30.1368 76.4431 32.2214 77.6343C32.25 77.6514 32.2844 77.6686 32.313 77.6858C34.3346 78.8311 36.4306 78.2986 37.4728 76.3457C38.1142 75.1488 39.1737 74.4502 40.445 74.5475C41.7164 74.6449 42.9133 75.4867 43.8181 76.7523C45.2613 78.7624 47.2657 79.4668 48.7432 78.5849C48.7661 78.5734 48.789 78.5563 48.8062 78.5448C50.2665 77.6629 50.885 75.3607 50.4669 72.8638C50.2149 71.3692 50.3753 69.8974 50.9881 68.8494C51.5951 67.8185 52.5285 67.4177 53.5136 67.6067C55.1285 67.9159 56.4285 66.7992 56.7148 64.7089C56.7148 64.6803 56.7206 64.6459 56.7263 64.6173C57.0012 62.5728 56.2911 60.0244 54.9166 58.3064H54.9281ZM39.0248 63.3574C33.8306 62.653 28.6994 56.1989 27.8461 49.0576C27.0043 42.0022 30.7381 37.5239 35.9094 38.9098C40.8058 40.2155 45.2784 46.366 46.1375 52.7686C47.0079 59.2398 43.9327 64.0217 39.0248 63.3574Z" fill="#FF523D"/>
  <path d="M79.3764 68.5285C78.8667 67.8413 78.4544 66.8734 78.294 65.8369C78.1337 64.8003 78.2425 63.9242 78.5517 63.3687C79.0442 62.481 78.987 60.8775 78.4315 59.4172C78.4315 59.3943 78.4143 59.3714 78.4086 59.3485C77.8416 57.871 76.8738 56.8459 75.9861 56.7256C75.4478 56.6512 74.8351 56.1987 74.3025 55.3912C73.7699 54.5838 73.4148 53.5816 73.2946 52.6481C73.0941 51.1076 72.3496 49.5099 71.3875 48.6795C71.3703 48.668 71.3589 48.6566 71.3417 48.6394C70.3739 47.8147 69.3946 47.9063 68.9422 48.92C68.6558 49.5557 68.1404 49.8764 67.4761 49.7046C66.8118 49.5328 66.1304 48.9085 65.5978 48.0495C64.7445 46.6636 63.5647 45.9764 62.6885 46.3372C62.6771 46.3372 62.6599 46.3487 62.6485 46.3544C61.7551 46.7324 61.3886 48.1526 61.6921 49.8363C61.8753 50.8499 61.7894 51.8235 61.4058 52.4878C61.0163 53.1521 60.3921 53.3754 59.7163 53.175C58.5767 52.8486 57.6375 53.5701 57.4199 55.0877C57.4199 55.1107 57.4199 55.1336 57.4085 55.1565C57.2023 56.6741 57.7463 58.6097 58.7657 59.9097C59.3957 60.7114 59.8824 61.811 60.0485 62.9735C60.2146 64.136 60.037 65.1382 59.6075 65.7796C58.9146 66.8219 58.9146 68.706 59.5904 70.4012C59.6018 70.4241 59.6133 70.4527 59.619 70.4756C60.3005 72.1765 61.5203 73.2703 62.637 73.2874C63.3013 73.2989 64.0286 73.7399 64.6528 74.5874C65.2713 75.435 65.6607 76.5231 65.7867 77.5711C65.9929 79.3235 66.8347 81.0129 67.9171 81.7345C67.9343 81.7459 67.9515 81.7574 67.9629 81.7688C69.0224 82.4675 70.0761 82.0952 70.5514 80.8468C70.8435 80.0737 71.3704 79.6098 72.0347 79.6442C72.6932 79.6786 73.3576 80.2054 73.873 81.0014C74.6976 82.2785 75.7857 82.708 76.5588 82.1182C76.5703 82.1067 76.5817 82.101 76.5932 82.0895C77.3606 81.4939 77.6297 79.9763 77.3262 78.3499C77.1487 77.3707 77.1888 76.3971 77.498 75.6927C77.8015 74.994 78.2997 74.702 78.8495 74.7993C79.7543 74.9597 80.4473 74.1694 80.5561 72.7606V72.6976C80.6535 71.3117 80.1839 69.6223 79.3707 68.5228L79.3764 68.5285ZM70.9466 72.4743C68.2435 72.1936 65.4317 68.2536 64.7559 63.718C64.0859 59.2168 65.8154 56.0613 68.5241 56.6225C71.1413 57.1666 73.7241 60.9978 74.3884 65.2242C75.0527 69.4849 73.5522 72.7434 70.9466 72.4743Z" fill="#FF523D"/>
  <path d="M49.7124 99.2753C49.0596 98.7313 48.5098 97.8379 48.2521 96.767C47.9944 95.6961 48.0746 94.6767 48.4182 93.938C48.9565 92.7582 48.7961 91.023 48.0459 89.6486C48.0345 89.6257 48.023 89.6085 48.0115 89.5856C47.2499 88.194 46.0244 87.461 44.9477 87.6843C44.2949 87.8218 43.5275 87.5641 42.8288 86.894C42.1301 86.224 41.6491 85.2562 41.4486 84.2826C41.1222 82.6677 40.1258 81.2073 38.9002 80.669C38.8831 80.6633 38.8659 80.6518 38.843 80.6461C37.6117 80.1135 36.4034 80.6003 35.888 81.9003C35.5673 82.7192 34.9373 83.2747 34.1012 83.3549C33.2651 83.4351 32.3717 83.0056 31.6616 82.2611C30.5162 81.0527 28.9929 80.7549 27.8991 81.5109C27.8819 81.5223 27.8647 81.5338 27.8475 81.5452C26.7251 82.3298 26.3242 84.0707 26.7881 85.846C27.0687 86.9169 27.0114 88.0509 26.5418 88.9557C26.0722 89.872 25.2819 90.3817 24.3943 90.4504C22.8996 90.5592 21.7027 91.7847 21.4908 93.6173C21.4908 93.6459 21.4851 93.6745 21.4793 93.6974C21.2732 95.53 22.075 97.5172 23.4723 98.5595C24.337 99.2009 25.0128 100.243 25.2877 101.509C25.5626 102.774 25.3736 104.011 24.8467 104.945C23.9877 106.468 24.0793 108.656 25.0414 110.305C25.0586 110.328 25.0701 110.357 25.0872 110.38C26.0608 112.035 27.6986 112.716 29.1418 112.212C29.9951 111.914 30.9572 112.075 31.799 112.762C32.6409 113.449 33.1906 114.514 33.4025 115.665C33.7576 117.59 34.9144 119.136 36.3346 119.439C36.3575 119.439 36.3747 119.451 36.3976 119.451C37.7778 119.737 39.0778 118.804 39.6046 117.143C39.9311 116.118 40.561 115.339 41.3914 115.064C42.2218 114.789 43.0636 115.081 43.7451 115.74C44.8332 116.799 46.1961 116.771 47.1067 115.74C47.1182 115.723 47.1353 115.711 47.1468 115.694C48.0459 114.663 48.2807 112.831 47.8226 111.141C47.5477 110.128 47.542 109.017 47.8741 108.089C48.2005 107.167 48.7904 106.617 49.4547 106.48C50.5542 106.256 51.3388 105.071 51.3789 103.462V103.393C51.4133 101.812 50.749 100.152 49.7067 99.2868V99.2753H49.7124ZM39.639 107.407C36.243 108.324 32.4748 105.111 31.3867 100.243C30.3101 95.4212 32.3488 91.1261 35.7791 90.6222C39.2095 90.1182 42.4451 93.3252 43.4874 97.7463C44.5411 102.207 42.8861 106.531 39.639 107.407Z" fill="#FF523D"/>
</svg>