<svg width="120" height="120" viewBox="0 0 120 120" fill="none" xmlns="http://www.w3.org/2000/svg">
<path d="M58.7168 27.9125C60.3449 29.5446 61.6748 31.4192 62.6727 33.4468L62.6648 33.3852H62.7284L65.2331 26.2904L61.8617 19.1201L58.7506 27.9304L58.7148 27.9125H58.7168Z" fill="#BF0000"/>
<path d="M37.8086 45.2743C40.363 40.066 46.6567 37.9131 51.8669 40.4676C52.7992 40.9248 53.6322 41.5052 54.3597 42.1732C54.1609 38.4976 52.0359 35.0327 48.4955 33.2973C43.2852 30.7428 36.9916 32.8937 34.4371 38.104C32.3399 42.3799 33.4173 47.3854 36.751 50.4547C36.6576 48.7213 36.9916 46.9421 37.8086 45.2743Z" fill="#E50000"/>
<path d="M29.0323 57.5533C27.4082 55.9292 26.0842 54.0626 25.0843 52.0469L15.7949 52.1701L19.1664 59.3404L28.4438 59.2172L29.0303 57.5533H29.0323Z" fill="#BF0000"/>
<path d="M66.068 59.1321C66.877 57.4842 67.4476 55.7805 67.7974 54.061L67.8014 54.0888L76.8642 51.8107L75.3792 40.4301L72.0078 33.2598L73.4927 44.6404L64.43 46.9185L64.426 46.8907C64.0761 48.6102 63.5056 50.3138 62.6965 51.9618C61.8994 53.5879 60.9194 55.0629 59.7942 56.3789L63.5394 64.9328L53.6318 70.7255L48.0239 63.2828C45.8253 63.7281 43.5492 63.8255 41.279 63.5432L36.2397 71.3636L25.9365 66.3104L29.308 73.4807L39.6112 78.5339L44.6505 70.7135C46.9207 70.9958 49.1988 70.8984 51.3954 70.4531L57.0032 77.8958L66.9108 72.1031L63.1657 63.5492C64.2908 62.2352 65.2708 60.7582 66.068 59.1321Z" fill="#BF0000"/>
<path d="M62.6997 51.9615C63.5088 50.3135 64.0793 48.6099 64.4292 46.8904L64.4331 46.9182L73.4939 44.6401L72.009 33.2595L62.6659 33.3827L62.6739 33.4443C61.6739 31.4167 60.346 29.5421 58.718 27.9101L58.7537 27.9279L61.8648 19.1176L51.5616 14.0664L46.5004 21.9186C44.2422 21.6323 41.976 21.7237 39.7873 22.1591L34.1695 14.7025L24.2619 20.4952L27.9952 29.0213C26.8501 30.3512 25.8522 31.8461 25.0431 33.494C24.242 35.1281 23.6715 36.8178 23.3216 38.5214L14.3105 40.7876L15.7955 52.1682L25.0849 52.045C26.0828 54.0627 27.4087 55.9273 29.0328 57.5514L25.9397 66.3081L36.2429 71.3613L41.2822 63.5409C43.5524 63.8232 45.8305 63.7258 48.0271 63.2805L53.6349 70.7232L63.5426 64.9305L59.7974 56.3766C60.9225 55.0626 61.9026 53.5856 62.6997 51.9595V51.9615ZM39.2466 52.1603C34.0383 49.6059 31.8855 43.3122 34.4399 38.1019C36.9943 32.8937 43.288 30.7408 48.4982 33.2952C53.7065 35.8497 55.8594 42.1433 53.3049 47.3536C50.7505 52.5638 44.4569 54.7147 39.2466 52.1603Z" fill="#FF371E"/>
<path d="M93.8701 70.0931C94.9575 71.3495 95.8163 72.7648 96.4305 74.2736V74.2279L96.4743 74.2299L98.6391 69.2582L96.5836 63.9307L93.896 70.105L93.8721 70.0911L93.8701 70.0931Z" fill="#FF371E"/>
<path d="M77.9508 81.4998C80.054 77.8859 84.6897 76.6613 88.3017 78.7665C88.9498 79.1442 89.5183 79.6014 90.0073 80.1202C90.0531 77.4664 88.7033 74.8682 86.2463 73.439C82.6323 71.3358 77.9985 72.5603 75.8953 76.1723C74.1678 79.1382 74.6847 82.792 76.9251 85.1695C76.9469 83.9191 77.2769 82.6568 77.9508 81.4998Z" fill="#FF371E"/>
<path d="M71.0112 89.8764C69.9278 88.626 69.071 87.2166 68.4567 85.7158L61.7734 85.3281L63.8289 90.6557L70.5042 91.0433L71.0112 89.8784V89.8764Z" fill="#FF371E"/>
<path d="M97.5559 92.9117C98.2218 91.7686 98.7208 90.5719 99.0587 89.3553V89.3752L105.69 88.2024L105.207 79.9467L103.152 74.6191L103.635 82.8748L97.0032 84.0477V84.0278C96.6633 85.2464 96.1643 86.4411 95.4984 87.5841C94.8424 88.7113 94.0631 89.7231 93.1865 90.6097L95.4407 96.9511L88.0219 100.607L84.3722 94.9691C82.77 95.1779 81.128 95.1302 79.5098 94.8101L75.4863 100.173L68.3379 96.0128L70.3934 101.34L77.5418 105.501L81.5653 100.138C83.1834 100.458 84.8254 100.503 86.4277 100.297L90.0774 105.934L97.4962 102.279L95.242 95.9372C96.1186 95.0506 96.8979 94.0388 97.5539 92.9117H97.5559Z" fill="#FF371E"/>
<path d="M95.4977 87.5847C96.1637 86.4417 96.6626 85.245 97.0006 84.0284V84.0483L103.632 82.8755L103.149 74.6198L96.4261 74.2301V74.2758C95.8138 72.767 94.955 71.3517 93.8677 70.0953L93.8915 70.1092L96.5791 63.9349L89.4307 59.7742L85.3893 65.1594C83.7811 64.8393 82.1471 64.7877 80.5508 64.9884L76.8951 59.3389L69.4763 62.9946L71.7226 69.3141C70.83 70.2106 70.0369 71.2344 69.3709 72.3774C68.711 73.5125 68.216 74.6953 67.876 75.9039L61.2822 77.0708L61.7653 85.3265L68.4486 85.7142C69.0628 87.215 69.9196 88.6244 71.003 89.8748L68.3313 96.0114L75.4797 100.172L79.5032 94.8087C81.1213 95.1288 82.7633 95.1745 84.3656 94.9678L88.0153 100.605L95.4341 96.9497L93.1799 90.6083C94.0565 89.7217 94.8358 88.7099 95.4918 87.5828L95.4977 87.5847ZM78.6285 86.5252C75.0145 84.422 73.79 79.7863 75.8952 76.1743C77.9984 72.5603 82.6341 71.3358 86.2461 73.4409C89.8601 75.5441 91.0846 80.1799 88.9795 83.7919C86.8763 87.4058 82.2405 88.6304 78.6285 86.5252Z" fill="#BF0000"/>
</svg>
