<svg width="120" height="120" viewBox="0 0 120 120" fill="none" xmlns="http://www.w3.org/2000/svg">
<path d="M73.5677 91.2074C73.5677 81.431 81.5212 73.4754 91.2997 73.4754C93.8302 73.4754 96.2376 74.0102 98.4163 74.9683C100.7 69.8674 101.973 64.2139 101.973 58.2641C101.973 43.2019 93.8322 30.0441 81.7101 22.9453H81.7161L81.5252 22.836C81.4636 22.8002 81.4 22.7644 81.3384 22.7287L73.8043 18.3911L73.4067 19.2558C69.5124 18.0253 65.3677 17.3594 61.0679 17.3594C38.4755 17.3594 20.1611 35.6738 20.1611 58.2661C20.1611 70.5234 25.5523 81.5184 34.0922 89.0147L32.9353 89.2692L40.2149 93.4617C40.5231 93.6445 40.8352 93.8234 41.1492 94.0004L41.3162 94.0978C47.1725 97.3301 53.9035 99.1729 61.0659 99.1729C65.7752 99.1729 70.2976 98.3737 74.506 96.9106C73.8957 95.1215 73.5657 93.2032 73.5657 91.2094L73.5677 91.2074Z" fill="#BF0000"/>
<path d="M54.2651 13.4492C31.6728 13.4492 13.3584 31.7636 13.3584 54.356C13.3584 76.9483 31.6728 95.2627 54.2651 95.2627C61.2545 95.2627 67.8325 93.5074 73.5874 90.4182C73.989 81.2978 81.3123 73.9446 90.4228 73.4973C93.4524 67.7861 95.1719 61.2718 95.1719 54.356C95.1699 31.7636 76.8555 13.4492 54.2651 13.4492Z" fill="#FF371E"/>
<mask id="mask0_824_40963" style="mask-type:luminance" maskUnits="userSpaceOnUse" x="13" y="13" width="83" height="83">
<path d="M54.2651 95.2627C76.8573 95.2627 95.1719 76.9481 95.1719 54.356C95.1719 31.7638 76.8573 13.4492 54.2651 13.4492C31.673 13.4492 13.3584 31.7638 13.3584 54.356C13.3584 76.9481 31.673 95.2627 54.2651 95.2627Z" fill="white"/>
</mask>
<g mask="url(#mask0_824_40963)">
<path d="M54.2658 54.3558C62.3517 54.3558 68.9066 47.8009 68.9066 39.715C68.9066 31.6291 62.3517 25.0742 54.2658 25.0742C46.1799 25.0742 39.625 31.6291 39.625 39.715C39.625 47.8009 46.1799 54.3558 54.2658 54.3558Z" fill="#BF0000"/>
<path d="M73.5677 91.2073C73.5677 85.1939 76.5774 79.8724 81.1674 76.6639C76.4641 66.5138 66.1867 59.4727 54.2653 59.4727C37.8971 59.4727 24.6279 72.7418 24.6279 89.1101C24.6279 105.478 37.8971 118.747 54.2653 118.747C64.994 118.747 74.3907 113.046 79.593 104.51C75.9035 101.258 73.5697 96.501 73.5697 91.2073H73.5677Z" fill="#BF0000"/>
</g>
<path d="M91.2995 106.55C99.773 106.55 106.642 99.6812 106.642 91.2077C106.642 82.7343 99.773 75.8652 91.2995 75.8652C82.8261 75.8652 75.957 82.7343 75.957 91.2077C75.957 99.6812 82.8261 106.55 91.2995 106.55Z" fill="#D6EBEC"/>
<path d="M91.2996 90.5898C86.7573 90.5898 82.8868 93.8321 82.0977 98.2989L84.4473 98.7143C85.0338 95.3886 87.9162 92.9753 91.2996 92.9753C94.683 92.9753 97.5654 95.3886 98.1518 98.7143L100.502 98.2989C99.7123 93.8321 95.8439 90.5898 91.2996 90.5898Z" fill="#BF0000"/>
<path d="M86.2901 86.4092C87.4291 86.4092 88.3575 85.4829 88.3575 84.3418C88.3575 83.2008 87.4291 82.2744 86.2901 82.2744C85.151 82.2744 84.2227 83.2008 84.2227 84.3418C84.2227 85.4829 85.151 86.4092 86.2901 86.4092Z" fill="#BF0000"/>
<path d="M96.3086 86.4092C97.4477 86.4092 98.376 85.4829 98.376 84.3418C98.376 83.2008 97.4477 82.2744 96.3086 82.2744C95.1696 82.2744 94.2412 83.2008 94.2412 84.3418C94.2412 85.4829 95.1676 86.4092 96.3086 86.4092Z" fill="#BF0000"/>
</svg>
