<svg xmlns="http://www.w3.org/2000/svg" width="92" height="96" viewBox="0 0 92 96" fill="none">
  <path d="M89.5109 43.9174L87.7014 45.3942C87.3547 45.6784 86.8486 45.6299 86.5574 45.2833L71.5749 27.278C71.2006 26.8342 71.4086 26.1479 71.9632 25.9815L77.6831 24.2205C78.0436 24.1095 78.4249 24.2551 78.619 24.5741L89.6842 42.8636C89.8922 43.2103 89.816 43.6609 89.504 43.9174H89.5109Z" fill="#39FDDC"/>
  <path d="M89.8572 27.4868L91.2785 29.338C91.5489 29.6916 91.4866 30.1977 91.133 30.475L72.6632 44.8751C72.2056 45.2356 71.5331 45.0068 71.3736 44.4452L69.7928 38.6699C69.6958 38.3094 69.8552 37.9281 70.1811 37.7478L88.8103 27.265C89.1639 27.0639 89.6076 27.161 89.8572 27.4799V27.4868Z" fill="#39FDDC"/>
  <path d="M25.0672 40.4209C26.2527 46.4666 32.0557 50.571 38.0251 49.5934C43.9876 48.6089 47.8424 42.9168 46.6361 36.8711C45.4297 30.8255 39.6336 26.7211 33.6919 27.6986C27.7502 28.6832 23.8885 34.3752 25.0672 40.4209Z" fill="#FF523D"/>
  <path d="M29.8786 89.5846L25.8782 69.3191C24.3806 61.7066 29.2686 54.5308 36.791 53.2898L41.9284 52.4439C49.4439 51.2098 56.7791 56.375 58.3252 63.9945L62.4435 84.26L29.8856 89.5846H29.8786Z" fill="#FF523D"/>
  <path d="M73.0101 82.4683L57.4521 4.06171C57.0084 1.84311 54.9632 0.310883 52.7099 0.518876L4.56632 4.9838C1.95254 5.22646 0.122258 7.68079 0.642241 10.2599L17.1291 91.9597C17.6006 94.2892 19.8331 95.8284 22.1764 95.4401L69.3909 87.682C71.8591 87.2799 73.4954 84.9157 73.0101 82.4683ZM65.6678 81.2966L24.5822 88.0494C22.5369 88.3892 20.6026 87.0441 20.1936 85.0197L6.64626 17.5119C6.1956 15.2725 7.78332 13.1371 10.0574 12.9291L51.9612 9.04662C53.9232 8.86636 55.6981 10.1975 56.0863 12.1249L68.8155 76.7693C69.2384 78.8977 67.8171 80.9568 65.6748 81.3104L65.6678 81.2966Z" fill="#FF523D"/>
  <path d="M68.8917 92.9635C76.8982 92.9635 83.3889 86.5908 83.3889 78.7298C83.3889 70.8687 76.8982 64.4961 68.8917 64.4961C60.8851 64.4961 54.3945 70.8687 54.3945 78.7298C54.3945 86.5908 60.8851 92.9635 68.8917 92.9635Z" fill="#1E1A25"/>
  <path d="M76.6648 72.8132L76.159 72.319C76.0604 72.2226 75.9024 72.2244 75.806 72.323L71.7308 76.4932C71.6345 76.5918 71.6363 76.7498 71.7349 76.8462L72.2407 77.3404C72.3393 77.4368 72.4973 77.4349 72.5936 77.3364L76.6688 73.1662C76.7652 73.0676 76.7633 72.9096 76.6648 72.8132Z" fill="white"/>
  <path d="M76.0576 77.2863L76.4694 76.8649C76.5925 76.7389 76.5903 76.5369 76.4643 76.4138L72.3933 72.4355C72.2673 72.3124 72.0653 72.3148 71.9422 72.4408L71.5304 72.8622C71.4073 72.9882 71.4096 73.1901 71.5356 73.3132L75.6066 77.2915C75.7326 77.4146 75.9345 77.4123 76.0576 77.2863Z" fill="white"/>
  <path d="M66.0993 72.8132L65.5935 72.319C65.495 72.2226 65.3369 72.2244 65.2406 72.323L61.1654 76.4932C61.0691 76.5918 61.0709 76.7498 61.1695 76.8462L61.6752 77.3404C61.7738 77.4368 61.9319 77.4349 62.0282 77.3364L66.1034 73.1662C66.1997 73.0676 66.1979 72.9096 66.0993 72.8132Z" fill="white"/>
  <path d="M65.4941 77.2902L65.906 76.8688C66.0291 76.7428 66.0268 76.5408 65.9008 76.4177L61.8298 72.4394C61.7038 72.3163 61.5019 72.3187 61.3788 72.4447L60.9669 72.8661C60.8438 72.9921 60.8461 73.194 60.9721 73.3171L65.0431 77.2954C65.1691 77.4185 65.371 77.4162 65.4941 77.2902Z" fill="white"/>
  <path d="M63.6914 84.8921C64.5442 82.8815 66.3954 81.488 68.51 81.28C70.9435 81.0443 73.3215 82.4239 74.3962 84.7327" stroke="white" stroke-width="2" stroke-miterlimit="10" stroke-linecap="round"/>
</svg>