<svg width="45" height="45" viewBox="0 0 45 45" fill="none" xmlns="http://www.w3.org/2000/svg">
<rect x="0.5" y="0.5" width="44" height="44" rx="22" fill="#F1F1F4"/>
<path d="M22.5001 29.6516C22.1834 29.6516 21.9128 29.5389 21.6881 29.3136C21.4628 29.0889 21.3501 28.8182 21.3501 28.5016V23.6516H16.5001C16.1834 23.6516 15.9128 23.5389 15.6881 23.3136C15.4628 23.0889 15.3501 22.8182 15.3501 22.5016C15.3501 22.1849 15.4628 21.9142 15.6881 21.6896C15.9128 21.4642 16.1834 21.3516 16.5001 21.3516H21.3501V16.5016C21.3501 16.1849 21.4628 15.9139 21.6881 15.6886C21.9128 15.4639 22.1834 15.3516 22.5001 15.3516C22.8168 15.3516 23.0874 15.4639 23.3121 15.6886C23.5374 15.9139 23.6501 16.1849 23.6501 16.5016V21.3516H28.5001C28.8168 21.3516 29.0874 21.4642 29.3121 21.6896C29.5374 21.9142 29.6501 22.1849 29.6501 22.5016C29.6501 22.8182 29.5374 23.0889 29.3121 23.3136C29.0874 23.5389 28.8168 23.6516 28.5001 23.6516H23.6501V28.5016C23.6501 28.8182 23.5374 29.0889 23.3121 29.3136C23.0874 29.5389 22.8168 29.6516 22.5001 29.6516Z" fill="#1E1A25"/>
</svg>
