<svg width="94" height="94" viewBox="0 0 94 94" fill="none" xmlns="http://www.w3.org/2000/svg">
<path d="M60.5667 78.2079C60.5667 68.4314 68.5203 60.4759 78.2987 60.4759C80.8293 60.4759 83.2366 61.0107 85.4153 61.9688C87.6994 56.8679 88.9716 51.2144 88.9716 45.2646C88.9716 30.2024 80.8312 17.0446 68.7091 9.94583H68.7151L68.5242 9.83649C68.4626 9.80071 68.399 9.76493 68.3374 9.72915L60.8033 5.39158L60.4057 6.25631C56.5114 5.02581 52.3667 4.35986 48.0669 4.35986C25.4746 4.35986 7.16016 22.6743 7.16016 45.2666C7.16016 57.5239 12.5513 68.5189 21.0913 76.0152L19.9343 76.2697L27.214 80.4621C27.5221 80.645 27.8342 80.8239 28.1483 81.0009L28.3153 81.0983C34.1716 84.3306 40.9026 86.1733 48.0649 86.1733C52.7742 86.1733 57.2967 85.3742 61.505 83.9111C60.8947 82.122 60.5647 80.2037 60.5647 78.2099L60.5667 78.2079Z" fill="#BF0000"/>
<path d="M41.2661 0.449707C18.6738 0.449707 0.359375 18.7641 0.359375 41.3564C0.359375 63.9488 18.6738 82.2632 41.2661 82.2632C48.2555 82.2632 54.8334 80.5079 60.5884 77.4187C60.9899 68.2983 68.3133 60.9451 77.4238 60.4978C80.4533 54.7866 82.1729 48.2723 82.1729 41.3564C82.1709 18.7641 63.8565 0.449707 41.2661 0.449707Z" fill="#FF371E"/>
<mask id="mask0_29318_14734" style="mask-type:luminance" maskUnits="userSpaceOnUse" x="0" y="0" width="83" height="83">
<path d="M41.2661 82.2632C63.8583 82.2632 82.1729 63.9486 82.1729 41.3564C82.1729 18.7643 63.8583 0.449707 41.2661 0.449707C18.6739 0.449707 0.359375 18.7643 0.359375 41.3564C0.359375 63.9486 18.6739 82.2632 41.2661 82.2632Z" fill="white"/>
</mask>
<g mask="url(#mask0_29318_14734)">
<path d="M41.2658 41.3563C49.3517 41.3563 55.9066 34.8014 55.9066 26.7155C55.9066 18.6296 49.3517 12.0747 41.2658 12.0747C33.1799 12.0747 26.625 18.6296 26.625 26.7155C26.625 34.8014 33.1799 41.3563 41.2658 41.3563Z" fill="#BF0000"/>
<path d="M60.5687 78.2078C60.5687 72.1944 63.5784 66.8728 68.1684 63.6644C63.465 53.5142 53.1877 46.4731 41.2663 46.4731C24.8981 46.4731 11.6289 59.7423 11.6289 76.1105C11.6289 92.4788 24.8981 105.748 41.2663 105.748C51.9949 105.748 61.3917 100.047 66.594 91.5107C62.9045 88.2585 60.5707 83.5015 60.5707 78.2078H60.5687Z" fill="#BF0000"/>
</g>
<path d="M78.2995 93.5507C86.773 93.5507 93.6421 86.6817 93.6421 78.2082C93.6421 69.7348 86.773 62.8657 78.2995 62.8657C69.8261 62.8657 62.957 69.7348 62.957 78.2082C62.957 86.6817 69.8261 93.5507 78.2995 93.5507Z" fill="#DCECEE"/>
<path d="M78.2996 77.5894C73.7573 77.5894 69.8868 80.8316 69.0977 85.2984L71.4473 85.7139C72.0338 82.3881 74.9162 79.9748 78.2996 79.9748C81.683 79.9748 84.5654 82.3881 85.1518 85.7139L87.5015 85.2984C86.7123 80.8316 82.8439 77.5894 78.2996 77.5894Z" fill="#BF0000"/>
<path d="M73.2901 73.4092C74.4291 73.4092 75.3575 72.4829 75.3575 71.3418C75.3575 70.2008 74.4291 69.2744 73.2901 69.2744C72.151 69.2744 71.2227 70.2008 71.2227 71.3418C71.2227 72.4829 72.151 73.4092 73.2901 73.4092Z" fill="#BF0000"/>
<path d="M83.3096 73.4092C84.4486 73.4092 85.377 72.4829 85.377 71.3418C85.377 70.2008 84.4486 69.2744 83.3096 69.2744C82.1705 69.2744 81.2422 70.2008 81.2422 71.3418C81.2422 72.4829 82.1685 73.4092 83.3096 73.4092Z" fill="#BF0000"/>
</svg>
