<svg width="45" height="44" viewBox="0 0 45 44" fill="none" xmlns="http://www.w3.org/2000/svg">
<rect x="0.5" width="44" height="44" rx="22" fill="#F1F1F4"/>
<path d="M22.5 28.6246C22.3333 28.6246 22.1667 28.5996 22 28.5496C21.8333 28.4996 21.6833 28.4246 21.55 28.3246C19.4667 26.6913 17.9127 25.1036 16.888 23.5616C15.8627 22.0203 15.35 20.4996 15.35 18.9996C15.35 17.7996 15.571 16.7453 16.013 15.8366C16.4543 14.9286 17.0127 14.1703 17.688 13.5616C18.3627 12.9536 19.125 12.4953 19.975 12.1866C20.825 11.8786 21.6667 11.7246 22.5 11.7246C23.3333 11.7246 24.175 11.8786 25.025 12.1866C25.875 12.4953 26.6373 12.9536 27.312 13.5616C27.9873 14.1703 28.546 14.9286 28.988 15.8366C29.4293 16.7453 29.65 17.7996 29.65 18.9996C29.65 20.4996 29.1377 22.0203 28.113 23.5616C27.0877 25.1036 25.5333 26.6913 23.45 28.3246C23.3333 28.4246 23.1873 28.4996 23.012 28.5496C22.8373 28.5996 22.6667 28.6246 22.5 28.6246ZM22.5 20.9996C23.0833 20.9996 23.5873 20.7913 24.012 20.3746C24.4373 19.9579 24.65 19.4496 24.65 18.8496C24.65 18.2663 24.4373 17.7663 24.012 17.3496C23.5873 16.9329 23.0833 16.7246 22.5 16.7246C21.9167 16.7246 21.4127 16.9329 20.988 17.3496C20.5627 17.7663 20.35 18.2663 20.35 18.8496C20.35 19.4496 20.5627 19.9579 20.988 20.3746C21.4127 20.7913 21.9167 20.9996 22.5 20.9996ZM16.5 32.2746C16.1833 32.2746 15.9127 32.1663 15.688 31.9496C15.4627 31.7329 15.35 31.4663 15.35 31.1496C15.35 30.8163 15.4627 30.5413 15.688 30.3246C15.9127 30.1079 16.1833 29.9996 16.5 29.9996H28.5C28.8167 29.9996 29.0873 30.1079 29.312 30.3246C29.5373 30.5413 29.65 30.8163 29.65 31.1496C29.65 31.4663 29.5373 31.7329 29.312 31.9496C29.0873 32.1663 28.8167 32.2746 28.5 32.2746H16.5Z" fill="#1E1A25"/>
</svg>
