<svg width="75" height="144" viewBox="0 0 75 144" fill="none" xmlns="http://www.w3.org/2000/svg">
<path d="M55.0275 86.9913L0 54.7344V111.552L55.0275 143.806V86.9913Z" fill="#FF371E"/>
<path d="M55.0276 143.806V86.991L74.9826 75.6016V132.417" fill="#E50000"/>
<path d="M55.0275 86.9873L0 54.7304L19.955 43.3438L74.9825 75.5979L55.0275 86.9873Z" fill="#BF0000"/>
<mask id="mask0_4868_716131" style="mask-type:alpha" maskUnits="userSpaceOnUse" x="3" y="0" width="64" height="75">
<path d="M36.6044 62.7505L21.7883 74.952L6.17308 43.7215L3.48608 28.7607L24.4029 1.74307L54.0351 0L63.622 31.3753L66.2366 40.9622L61.0074 51.4206L59.0131 52.4177C55.856 53.9963 52.164 54.1048 48.9195 52.7143L47.9344 52.2921L40.9621 48.806H36.6044V62.7505Z" fill="#D9D9D9"/>
</mask>
<g mask="url(#mask0_4868_716131)">
<path d="M59.5552 75.989L58.9334 45.5223C58.9334 44.8628 58.8661 38.9057 56.5 32.7117C52.952 23.4193 45.9693 18.3047 36.833 18.3047C30.6713 18.3047 25.6778 20.2024 21.9953 23.9495C14.7273 31.3414 15.5537 43.4657 15.7017 52.3166C15.7206 53.4229 15.7367 54.4647 15.7367 55.4069C15.7367 56.7232 18.2321 57.7892 21.3089 57.7892C24.3857 57.7892 26.8811 56.7232 26.8811 55.4069C26.8811 54.3732 26.8623 53.283 26.8434 52.1282C26.7277 45.2478 25.947 35.8234 29.9418 31.7614C31.4735 30.2055 33.7266 29.4463 36.833 29.4463C39.5788 29.4463 43.517 30.1732 46.0043 36.4641C47.7163 40.7954 47.7863 45.3716 47.789 45.5331L48.4108 75.9864C48.4108 77.3027 50.9062 78.3687 53.983 78.3687C57.0599 78.3687 59.5552 77.3027 59.5552 75.9864V75.989Z" fill="#E50000"/>
</g>
<path d="M33.0322 84.4019C29.8369 79.9926 24.7762 78.208 21.729 80.4153C18.6817 82.6227 18.8002 87.9875 21.9954 92.3969C22.4477 93.0214 22.9376 93.5921 23.4545 94.1062V105.205L30.4507 109.396V97.3257C31.4951 97.288 32.4723 96.9838 33.2987 96.3862C36.3459 94.1788 36.2275 88.814 33.0322 84.4047V84.4019Z" fill="#BF0000"/>
</svg>
