<svg xmlns="http://www.w3.org/2000/svg" width="130" height="102" viewBox="0 0 130 102" fill="none">
  <path d="M17.3346 94.0564C33.6562 67.2627 53.1104 70.43 56.0559 70.9706C61.5865 71.9894 65.2389 73.9161 80.9713 86.4328C84.1386 88.9555 88.1376 89.2327 89.8148 90.6327C49.1599 87.5971 32.1384 90.4872 24.3622 94.0564C22.9761 94.6871 14.8188 98.5821 14.2228 97.5841C13.904 97.0574 15.8099 95.3316 17.3346 94.0564Z" fill="#1F1A26"/>
  <path d="M55.9297 79.0582C61.1415 68.2187 75.2106 59.9575 86.2026 63.3812C96.3004 66.5277 105.913 76.4384 105.407 87.4234C101.616 84.3393 92.2945 81.0889 81.3789 78.5661C71.5166 76.286 60.6009 78.1503 55.9297 79.0582Z" fill="#1F1A26"/>
  <path d="M38.2079 62.4037C38.2634 62.5007 38.3396 62.5977 38.395 62.7017C38.5752 63.0274 38.7485 63.3531 38.9356 63.6997C48.0494 79.9034 66.7481 98.8309 74.3163 97.5071C82.037 96.1557 77.643 71.9124 68.453 54.5651C68.4322 54.5236 68.4184 54.482 68.3976 54.4404L61.3908 41.6257C57.5096 34.4387 48.6038 33.0942 40.2594 35.7486C32.206 38.3198 27.7635 43.6841 31.5338 50.3929L38.2079 62.3967V62.4037ZM49.886 53.2137C52.5612 52.4721 56.2691 54.5721 58.1472 57.9334C60.0462 61.3294 59.3393 64.6561 56.574 65.3492C53.8087 66.0353 50.1701 63.8452 48.3612 60.5047C46.5662 57.1988 47.2454 53.9553 49.8929 53.2206L49.886 53.2137Z" fill="#FF523D"/>
  <path d="M34.8963 28.9361C39.921 26.5659 45.8605 26.8431 51.003 29.2411C50.6427 26.8292 49.2635 21.7353 43.9824 17.771C38.0359 13.3077 34.4944 7.96416 32.2489 1.97613C31.7429 0.617731 29.7885 0.645453 29.4697 2.01078C28.5756 5.82954 28.9499 10.48 29.5113 14.0423C29.8093 15.9551 27.446 16.8769 26.1708 15.3591C25.7688 14.8878 25.3737 14.375 24.9995 13.8482C23.8629 12.2473 21.5272 12.7324 21.3886 14.6037C20.9589 20.4947 22.9342 28.2223 28.7559 34.1202C30.239 31.9717 32.2974 30.1629 34.9033 28.9292L34.8963 28.9361Z" fill="#FF523D"/>
  <path d="M69.4732 42.1598L74.8098 51.8487C75.3642 51.821 75.8979 51.724 76.4107 51.5161C82.3017 49.1943 84.4363 42.1736 83.4799 36.3173C82.2462 28.7352 74.1167 19.1363 63.3257 19.8086C57.4555 20.169 70.6791 29.1995 64.594 33.9539C64.0534 34.3767 63.6307 34.848 63.2911 35.3539C65.8 37.1143 67.9554 39.4083 69.4732 42.1598Z" fill="#FF523D"/>
  <path d="M16.8354 63.201C20.8274 67.0822 27.3006 69.9999 32.1797 68.0594C32.5124 67.9277 32.8034 67.7475 33.0668 67.5396L27.959 58.5437C26.4966 55.9586 25.7342 53.2487 25.6303 50.6081C25.1451 50.5666 24.6392 50.5804 24.1264 50.6566C17.4106 51.7032 16.7037 38.2786 13.6265 41.8894C8.24142 48.2171 11.7483 58.2456 16.8284 63.201H16.8354Z" fill="#FF523D"/>
  <path d="M128.813 100.12C129.45 100.12 129.748 99.3233 129.249 98.9144C98.1864 73.3821 74.6362 74.6712 68.9809 75.2049C58.2107 76.2237 42.8941 82.482 12.2539 94.9986C7.79756 96.8214 3.94414 98.4362 0.915471 99.7253C0.229342 100.016 0.444201 101.035 1.18577 101.028L122.811 100.065C124.807 100.086 126.81 100.1 128.806 100.12H128.813Z" fill="#1F1A26"/>
</svg>