<svg width="80" height="65" viewBox="0 0 80 65" fill="none" xmlns="http://www.w3.org/2000/svg">
<path d="M44.0016 11.007L43.3355 11.5545C43.2057 11.6618 43.0251 11.6392 42.9235 11.515L37.7191 4.84869C37.5893 4.68499 37.6683 4.43098 37.8715 4.36889L39.9544 3.71975C40.0842 3.68024 40.2197 3.73104 40.2874 3.84958L44.0806 10.6232C44.154 10.753 44.1201 10.9167 44.0016 11.0127V11.007Z" fill="#1E1A25"/>
<path d="M49.3921 10.4085L48.2463 10.4197C48.0487 10.4197 47.8793 10.2956 47.8511 10.1206L46.5867 2.83333C46.5529 2.62448 46.7278 2.44385 46.9649 2.44385L50.0469 2.46078C50.2783 2.46078 50.459 2.63576 50.442 2.83897L49.776 10.098C49.759 10.273 49.5953 10.4085 49.3978 10.4085H49.3921Z" fill="#1E1A25"/>
<path d="M59.9419 5.15362L55.477 12.3731C55.3923 12.5142 55.2117 12.5763 55.048 12.5255L54.0771 12.2264C53.8795 12.1643 53.7779 11.9667 53.8457 11.7804L56.8599 3.81583C56.9333 3.62956 57.1591 3.53924 57.351 3.61827L59.7725 4.66253C59.9701 4.7472 60.0491 4.97299 59.9362 5.15362H59.9419Z" fill="#1E1A25"/>
<path d="M5.81055 36.5203C7.06366 39.1789 8.67239 43.5648 8.70626 49.1022C8.72319 51.6367 8.40709 53.8606 8.00067 55.6839C8.04583 55.983 8.20952 56.8692 8.97155 57.6426C9.48522 58.1619 10.1569 58.5288 10.9133 58.653L42.4613 63.8404C42.7322 63.8856 42.9693 63.6711 42.958 63.4001C42.5798 55.8193 42.2016 48.2386 41.8235 40.6578" fill="#FF523D"/>
<path d="M5.81055 36.5203C7.06366 39.1789 8.67239 43.5648 8.70626 49.1022C8.72319 51.6367 8.40709 53.8606 8.00067 55.6839C8.04583 55.983 8.20952 56.8692 8.97155 57.6426C9.48522 58.1619 10.1569 58.5288 10.9133 58.653L42.4613 63.8404C42.7322 63.8856 42.9693 63.6711 42.958 63.4001C42.5798 55.8193 42.2016 48.2386 41.8235 40.6578" stroke="white" stroke-miterlimit="10"/>
<path d="M7.13645 33.9749C6.73004 34.1668 6.82035 34.7652 7.26064 34.8329L40.4399 40.1445L41.6535 40.3365C41.7608 40.3534 41.868 40.3365 41.964 40.2744L68.5108 24.1081C68.8664 23.8936 68.7704 23.3517 68.364 23.2727L43.4259 18.3844C41.9358 18.0909 40.3891 18.2828 39.0175 18.9319C32.4527 22.0252 12.5384 31.4235 7.1421 33.9693L7.13645 33.9749Z" fill="#FF523D" stroke="white" stroke-miterlimit="10"/>
<path d="M32.5773 52.9465C22.4 52.0828 13.6959 49.3847 2.86384 47.3921C2.00585 47.2341 1.32849 46.568 1.17608 45.7044C0.961586 44.4738 0.837404 42.5716 1.44703 40.3984C1.84215 38.9929 2.41791 37.8188 2.99366 36.8874C3.65409 35.8149 4.88462 35.2335 6.13209 35.4254C17.5682 37.1753 29.0042 38.9251 40.446 40.675C40.1863 40.7653 36.2125 42.2216 35.3771 46.1334C35.0666 47.5953 34.7561 49.6726 34.6037 51.2643C34.5078 52.286 33.6046 53.0424 32.5773 52.9577V52.9465Z" fill="#FF523D" stroke="white" stroke-miterlimit="10"/>
<path d="M28.4229 38.3944L41.5015 32.2982L41.1007 18.5591" fill="#FF523D"/>
<path d="M28.4229 38.3944L41.5015 32.2982L41.1007 18.5591" stroke="white" stroke-miterlimit="10"/>
<path d="M73.456 35.1375C72.8915 35.6511 71.898 36.7123 71.3844 38.3605C70.4248 41.4369 71.915 44.0617 72.1916 44.5302C72.1577 44.7729 72.0674 45.2244 71.7626 45.693C71.5368 46.0429 71.2376 46.3364 70.8763 46.5622L43.3248 63.7051C43.1667 63.801 42.9635 63.6938 42.9635 63.5075L42.4047 41.4087C42.2071 41.0587 42.0096 40.7087 41.812 40.3588" fill="#FF523D"/>
<path d="M73.456 35.1375C72.8915 35.6511 71.898 36.7123 71.3844 38.3605C70.4248 41.4369 71.915 44.0617 72.1916 44.5302C72.1577 44.7729 72.0674 45.2244 71.7626 45.693C71.5368 46.0429 71.2376 46.3364 70.8763 46.5622L43.3248 63.7051C43.1667 63.801 42.9635 63.6938 42.9635 63.5075L42.4047 41.4087C42.2071 41.0587 42.0096 40.7087 41.812 40.3588" stroke="white" stroke-miterlimit="10"/>
<path d="M42.9805 40.365C44.3465 41.1496 46.2826 42.4761 48.1453 44.5815C49.342 45.9363 50.2169 47.2797 50.8491 48.4538C51.3346 49.3569 52.4974 49.6335 53.3441 49.0521C61.1224 43.7123 70.5828 38.5982 78.316 33.2527C79.1345 32.6882 79.2361 31.5198 78.5249 30.8312C77.3564 29.6966 75.6066 28.3136 74.6018 27.0718C74.3083 26.7049 74.0035 26.3719 73.7043 26.0614C72.2424 24.5599 69.9337 24.2946 68.1331 25.3671C59.7507 30.3683 51.3628 35.3695 42.9805 40.3706V40.365Z" fill="#FF523D" stroke="white" stroke-miterlimit="10"/>
<path d="M52.2376 34.8379L41.5015 32.2979" stroke="white" stroke-miterlimit="10"/>
<path d="M36.5342 28.4768C28.976 24.0909 23.2354 14.8844 23.8281 5.98846C24.0087 3.09275 25.8206 -0.0964787 29.134 0.16882C31.0476 0.309937 32.9103 1.14535 34.1239 2.67505C36.5906 5.84735 35.1625 10.5155 32.1257 12.6492C27.8866 15.6973 22.0161 15.2909 17.3875 13.3999C14.266 11.8758 12.5331 8.61323 11.8219 5.39577C11.4719 3.80962 11.3026 2.19525 11.3647 0.592169C11.9517 4.98936 13.6338 10.1994 18.0028 12.0565C20.7856 13.033 24.0426 13.2362 26.927 12.7056C29.5969 12.2089 32.391 10.3969 33.0289 7.65364C33.5143 5.72316 32.6789 3.72495 30.8952 2.90648C29.8566 2.41539 28.4454 2.05978 27.4632 2.77101C25.894 4.0467 25.7303 6.53035 25.7642 8.44953C26.227 16.2222 30.3589 23.5208 36.5342 28.4768Z" fill="#39FDDC"/>
</svg>
