<svg xmlns="http://www.w3.org/2000/svg" width="90" height="95" viewBox="0 0 90 95" fill="none">
  <g clip-path="url(#clip0_23877_30370)">
    <path d="M29.9652 46.0199C30.2652 46.9899 30.8052 48.3199 31.7852 49.6899C33.2952 51.7899 35.0952 52.9499 36.1652 53.5299C36.8052 53.8599 38.0852 54.4299 39.7952 54.4499C41.3752 54.4699 42.5952 54.0199 43.2452 53.7299L87.2652 25.0499C88.9252 24.2699 89.7552 22.7799 89.4252 21.6699C89.3752 21.4799 89.1652 20.9099 88.3852 20.4399C86.1552 19.4599 82.1352 17.3299 78.5352 13.1099C74.7552 8.6799 73.2952 4.14991 72.7052 1.75991C72.3352 1.05991 71.8452 0.809905 71.6352 0.709905C70.5652 0.229905 69.0552 0.759905 68.0152 2.08991L31.0052 38.3099C30.5652 38.8899 29.8652 39.9599 29.5552 41.4699C29.1152 43.5999 29.6952 45.3199 29.9652 46.0099V46.0199Z" fill="#FF523D"/>
    <path d="M15.335 58.3201C15.385 58.8901 15.555 60.0701 16.375 61.2701C17.415 62.7801 18.835 63.3701 19.355 63.5601C20.015 63.7901 21.005 64.0401 22.205 64.0201C22.925 64.0201 23.555 63.9101 24.055 63.7901L37.615 56.8001C37.125 56.7601 31.625 56.2001 28.575 51.2801C26.365 47.7201 26.865 44.1701 27.015 43.3101L16.685 53.9201C16.425 54.4001 16.155 54.9801 15.915 55.6501C15.565 56.6701 15.405 57.5901 15.335 58.3201Z" fill="#FF523D"/>
    <path d="M6.24542 76.9801L19.7254 66.0001C19.5354 66.0201 16.5954 66.3201 14.6654 63.9501C12.7454 61.5901 13.6254 58.7801 13.6954 58.5901C9.20542 62.2501 4.70542 65.9101 0.215416 69.5701C0.145416 69.7901 -0.634584 72.5501 1.26542 74.8801C3.16542 77.2001 6.01542 77.0001 6.24542 76.9801Z" fill="#FF523D"/>
    <path d="M89.8855 17.09C89.7655 18.06 88.6955 18.58 87.8655 18.07C85.2855 16.5 82.5555 15.19 79.4855 11.53C76.8955 8.42997 75.8855 5.14997 74.7655 2.39997C74.3955 1.48997 75.0955 0.499971 76.0755 0.559971C78.7255 0.719971 83.2855 1.63997 86.6855 5.70997C90.1055 9.79997 90.1855 14.47 89.8755 17.09H89.8855Z" fill="#39FDDC"/>
    <path d="M41.655 90.1799H39.925C38.655 90.1799 37.625 89.6499 37.625 88.9999V57.9499C37.625 57.6299 37.875 57.3099 38.335 57.0899C39.675 56.4499 41.365 56.2699 42.535 56.5799C42.565 56.5799 42.605 56.5999 42.635 56.6099C43.435 56.8499 43.955 57.5999 43.955 58.4299V88.9999C43.955 89.6499 42.925 90.1799 41.655 90.1799Z" fill="#1E1A25"/>
    <path d="M43.2349 70.07L42.3249 69.36C41.6549 68.84 40.8249 68.8 40.4649 69.26L23.3649 91.26C23.1849 91.49 23.1449 91.82 23.2649 92.16C23.6149 93.16 24.4049 93.98 25.1849 94.23C25.7649 94.42 26.2249 94.26 26.4349 94.16L43.7749 71.84C44.1349 71.38 43.8849 70.58 43.2149 70.07H43.2349Z" fill="#1E1A25"/>
    <path d="M41.6553 72.64L40.6853 73.46C39.9753 74.06 39.6653 74.87 39.9953 75.27L55.9053 94.1C56.0753 94.3 56.3753 94.37 56.7453 94.28C57.8253 94.03 58.8753 93.34 59.3753 92.59C59.7453 92.04 59.7353 91.58 59.7053 91.36L43.5653 72.26C43.2353 71.86 42.3853 72.03 41.6653 72.64H41.6553Z" fill="#1E1A25"/>
  </g>
  <defs>
    <clipPath id="clip0_23877_30370">
      <rect width="90.01" height="93.82" fill="white" transform="translate(-0.00488281 0.5)"/>
    </clipPath>
  </defs>
</svg>