
<svg width="220" height="210" viewBox="0 0 220 210" fill="none" xmlns="http://www.w3.org/2000/svg">
<g clip-path="url(#clip0_20931_2805)">
<path d="M23.6041 7.61656L35.7702 38.2045C36.332 39.6048 37.9208 40.2962 39.3253 39.7361L46.172 37.023C47.4009 36.5329 48.1119 35.2376 47.8486 33.9511L41.4671 2.26039C41.1686 0.781314 39.6588 -0.111382 38.2192 0.317462L25.2455 4.22082C23.8147 4.64966 23.0511 6.21626 23.6041 7.60781" fill="#39FDDC"/>
<path d="M219.359 156.644L194.492 130.143C193.746 129.311 192.394 128.812 191.191 128.917L185.415 129.434C184.239 129.539 183.625 130.195 183.519 131.053C178.981 167.347 137.146 187.433 105.177 190.54C102.684 190.785 100.911 192.71 101.2 194.828L102.745 206.328C103.044 208.507 105.405 210.074 107.959 209.733C159.398 202.722 190.384 163.82 190.55 139.078L207.281 159.969C208.291 161.125 210.195 161.65 211.53 161.151L218.859 159.593C220.167 159.094 220.395 157.773 219.368 156.644" fill="white"/>
<path d="M95.1436 135.543C92.6243 139.639 89.7013 140.567 82.5648 140.567C74.8491 140.567 74.024 137.258 71.7066 132.629C67.5108 124.209 59.9881 110.171 50.7012 97.341C49.2177 95.293 49.8848 92.7374 52.1758 91.5822L60.3832 87.46C62.6742 86.3048 65.7903 87.0662 67.3001 89.1229C74.4629 98.9075 80.2475 110.548 84.7681 118.783C101.946 93.3938 136.356 67.952 154.052 57.2747C140.139 44.8732 120.082 36.9265 97.9437 36.6726C57.6006 36.2 19.6626 61.9919 14.2642 98.3649C8.04944 140.217 46.4878 176.222 98.2334 172.888C147.161 169.737 180.034 132.664 174.715 94.8642C173.372 85.2983 169.791 76.6427 164.603 69.1423C146.731 80.7298 112.366 107.519 95.1348 135.534" fill="#FF523D"/>
<path d="M1.06223 47.2793L20.5316 55.6199C21.5498 56.0574 22.7348 55.7161 23.3668 54.8147L26.8604 49.8523C27.6065 48.8021 27.3432 47.3405 26.2899 46.6054L7.8212 33.67C6.92586 33.0486 5.68817 33.3725 5.21417 34.3527L0.175666 44.9075C-0.25445 45.8089 0.149333 46.8854 1.07101 47.2793" fill="#39FDDC"/>
</g>
<defs>
<clipPath id="clip0_20931_2805">
<rect width="220" height="209.573" fill="white" transform="translate(0 0.213379)"/>
</clipPath>
</defs>
</svg>
