<svg xmlns="http://www.w3.org/2000/svg" width="350" height="418" viewBox="0 0 350 418" fill="none">
<path opacity="0.08" d="M11 103.755L174.466 198.417L84.5373 250.986L11 103.755Z" fill="#DCECEE"/>
<path d="M84.5374 250.985L29.1187 283.292L84.5591 272.623L84.5374 250.985Z" fill="#5DDBFE"/>
<path d="M84.5591 272.623L102.734 282.902V325.499L84.5591 272.623Z" fill="#FF371E"/>
<path opacity="0.08" d="M174.809 387.946V198.465L265.298 250.061L174.809 387.946Z" fill="#DCECEE"/>
<path d="M265.298 250.062L320.986 281.904L284.024 239.224L265.298 250.062Z" fill="#5DDBFE"/>
<path d="M284.024 239.223L283.842 218.341L320.73 197.042L284.024 239.223Z" fill="#FF371E"/>
<path opacity="0.08" d="M339 103.625L174.905 198.366L174.345 94.2012L339 103.625Z" fill="#DCECEE"/>
<path d="M174.345 94.201L174.076 30.0527L155.597 83.4019L174.345 94.201Z" fill="#5DDBFE"/>
<path d="M155.597 83.4015L137.604 94.001L100.712 72.7021L155.597 83.4015Z" fill="#FF371E"/>
<path d="M95.8745 195.311L200.299 255.468L133.578 186.977L95.8745 195.311Z" fill="#FF371E"/>
<path d="M176.853 175.47L200.299 255.467L133.578 186.976L176.853 175.47Z" fill="#E50000"/>
<path d="M176.853 175.47L219.88 159.959L200.299 255.468L176.853 175.47Z" fill="#FF371E"/>
<path d="M219.88 159.959L251.844 144.184L200.299 255.468L219.88 159.959Z" fill="#E50000"/>
<path d="M95.8745 195.311L113.516 163.009L133.578 186.976L95.8745 195.311Z" fill="#BF0000"/>
<path d="M113.516 163.009L149.232 159.959L133.578 186.976L113.516 163.009Z" fill="#FF371E"/>
<path d="M133.578 186.976L149.232 159.959L176.853 175.47L133.578 186.976Z" fill="#BF0000"/>
<path d="M149.232 159.959L188.524 146.47L176.853 175.47L149.232 159.959Z" fill="#FF371E"/>
<path d="M176.853 175.47L188.524 146.47L219.88 159.959L176.853 175.47Z" fill="#BF0000"/>
<path d="M188.524 146.47L219.88 128.911V159.959L188.524 146.47Z" fill="#FF371E"/>
<path d="M219.88 128.911L251.844 144.183L219.88 159.959V128.911Z" fill="#BF0000"/>
<path d="M113.516 163.009L140.351 147.646L189.669 131.011L219.88 128.911L188.524 146.47L149.232 159.959L113.516 163.009Z" fill="#E50000"/>
<path fill-rule="evenodd" clip-rule="evenodd" d="M318.977 180.073L311.263 188.052C310.716 188.616 310.174 188.864 309.714 188.816C309.106 188.755 302.446 188.386 302.29 187.362L306.842 176.182L296.867 171.313C295.231 170.515 295.227 169.213 296.854 168.398L306.785 163.443L302.238 150.062C302.399 148.939 309.033 150.743 309.731 150.783C310.148 150.804 310.621 151.052 311.102 151.537L318.882 159.451L323.546 156.423C324.092 156.327 330.809 157.464 331.147 157.599C331.924 157.907 332.119 158.757 331.538 159.881L326.414 169.725L331.62 179.527C332.475 181.132 331.711 182.191 329.915 181.891L318.968 180.06L318.977 180.073Z" fill="#BF0000"/>
<path fill-rule="evenodd" clip-rule="evenodd" d="M312.187 179.019L304.472 186.998C303.21 188.304 301.965 187.909 301.696 186.109L300.051 175.132L290.076 170.263C288.441 169.465 288.436 168.163 290.063 167.348L299.995 162.393L301.544 151.403C301.8 149.602 303.036 149.195 304.312 150.492L312.091 158.406L323.021 156.484C324.812 156.167 325.585 157.221 324.743 158.835L319.619 168.68L324.825 178.481C325.68 180.086 324.917 181.145 323.12 180.846L312.174 179.015L312.187 179.019Z" fill="#FF371E"/>
<path fill-rule="evenodd" clip-rule="evenodd" d="M73.1872 138.278L65.4729 146.257C64.9262 146.821 64.3839 147.069 63.924 147.021C63.3165 146.96 56.6566 146.591 56.5004 145.568L61.0517 134.387L51.077 129.519C49.4413 128.72 49.4369 127.419 51.0639 126.603L60.9953 121.648L56.4483 108.267C56.6089 107.144 63.2428 108.949 63.9413 108.988C64.3578 109.009 64.8308 109.257 65.3124 109.743L73.0917 117.656L77.7559 114.628C78.3026 114.533 85.0189 115.669 85.3573 115.804C86.134 116.112 86.3292 116.962 85.7478 118.086L80.6238 127.931L85.8303 137.732C86.685 139.337 85.9214 140.396 84.1251 140.096L73.1785 138.265L73.1872 138.278Z" fill="#BF0000"/>
<path fill-rule="evenodd" clip-rule="evenodd" d="M66.3971 137.224L58.6829 145.203C57.4203 146.509 56.1751 146.114 55.9061 144.314L54.2617 133.337L44.2869 128.469C42.6512 127.67 42.6469 126.369 44.2739 125.553L54.2053 120.598L55.7542 109.608C56.0102 107.807 57.2467 107.4 58.5223 108.697L66.3017 116.611L77.231 114.689C79.0229 114.372 79.7952 115.426 78.9534 117.04L73.8294 126.885L79.0359 136.686C79.8906 138.291 79.127 139.35 77.3308 139.051L66.3841 137.22L66.3971 137.224Z" fill="#FF371E"/>
<path fill-rule="evenodd" clip-rule="evenodd" d="M175.26 315.654L167.546 323.633C166.999 324.197 166.457 324.445 165.997 324.397C165.39 324.336 158.73 323.967 158.574 322.943L163.125 311.763L153.15 306.894C151.515 306.096 151.51 304.795 153.137 303.979L163.069 299.024L158.522 285.643C158.682 284.52 165.316 286.325 166.015 286.364C166.431 286.385 166.904 286.633 167.386 287.119L175.165 295.032L179.829 292.004C180.376 291.908 187.092 293.045 187.431 293.18C188.207 293.488 188.402 294.338 187.821 295.462L182.697 305.307L187.904 315.108C188.758 316.713 187.995 317.772 186.198 317.472L175.252 315.641L175.26 315.654Z" fill="#BF0000"/>
<path fill-rule="evenodd" clip-rule="evenodd" d="M168.47 314.6L160.756 322.579C159.494 323.885 158.248 323.49 157.979 321.69L156.335 310.713L146.36 305.844C144.724 305.046 144.72 303.745 146.347 302.929L156.279 297.974L157.827 286.984C158.083 285.183 159.32 284.776 160.596 286.073L168.375 293.987L179.304 292.065C181.096 291.748 181.868 292.802 181.027 294.416L175.903 304.261L181.109 314.062C181.964 315.667 181.2 316.726 179.404 316.427L168.457 314.596L168.47 314.6Z" fill="#FF371E"/>
</svg>