<svg width="194" height="220" viewBox="0 0 194 220" fill="none" xmlns="http://www.w3.org/2000/svg">
<path d="M67.5474 111.598L94.9653 216.261C95.5125 218.343 97.3203 219.877 99.4613 219.996C99.5446 219.996 99.6281 219.996 99.7114 219.996C101.995 220.08 103.993 218.486 104.588 216.285L132.743 111.622C133.6 108.434 131.197 105.306 127.902 105.306H72.3885C69.1054 105.306 66.7029 108.41 67.5355 111.586L67.5474 111.598Z" fill="#FF523D"/>
<path d="M191.149 105.317H140.405C139.454 105.317 138.633 105.96 138.383 106.876L111.025 208.815C110.442 211.004 113.261 212.443 114.676 210.671L187.188 120.519C187.307 120.364 187.462 120.234 187.616 120.127C192.112 117.022 194.242 111.883 193.183 106.923C192.981 105.984 192.112 105.329 191.149 105.329V105.317Z" fill="#FF523D"/>
<path d="M7.35968 107.732C6.63409 112.621 8.76335 117.581 13.0812 120.65C13.2953 120.805 13.4975 120.995 13.6641 121.197L82.5714 208.577C84.5102 211.028 88.4118 209.101 87.6386 206.067L62.3738 107.482C62.0407 106.198 60.899 105.306 59.5786 105.306H10.2027C8.78724 105.306 7.54999 106.317 7.34778 107.72L7.35968 107.732Z" fill="#FF523D"/>
<path d="M51.7157 53.0036C45.5066 53.0036 40.0111 56.5959 38.0366 61.9129C38.0009 61.9961 37.9651 62.0794 37.9056 62.1508L9.108 98.6205C8.6203 99.2391 9.10794 100.096 9.94058 100.096H61.1722C61.6242 100.096 62.0168 99.8338 62.1595 99.4413L78.1225 54.2169C78.3366 53.6102 77.8369 52.9917 77.1351 52.9917H51.7157V53.0036Z" fill="#FF523D"/>
<path d="M82.7145 54.9899L68.1908 96.1344C67.5128 98.0732 68.94 100.095 70.9978 100.095H130.461C132.495 100.095 133.934 98.097 133.28 96.17L119.315 55.0256C118.911 53.8242 117.769 53.0034 116.496 53.0034H85.5215C84.2606 53.0034 83.1427 53.8004 82.7145 54.9899Z" fill="#FF523D"/>
<path d="M189.733 96.2652L162.922 62.3171C162.779 62.1387 162.672 61.9365 162.589 61.7224C160.555 56.5124 155.107 53.0034 148.981 53.0034H127.499C125.881 53.0034 124.74 54.5973 125.263 56.1318L139.644 98.4896C139.965 99.453 140.869 100.095 141.88 100.095H187.878C189.852 100.095 190.959 97.8116 189.733 96.2652Z" fill="#FF523D"/>
<path d="M41.1059 70.9889C32.4821 73.4868 29.3892 76.5795 26.8913 85.2033C26.4987 86.5712 24.5482 86.5712 24.1557 85.2033C21.6577 76.5795 18.5648 73.4868 9.94098 70.9889C8.57306 70.5963 8.57306 68.6456 9.94098 68.253C18.5648 65.7551 21.6577 62.6624 24.1557 54.0386C24.5482 52.6707 26.4987 52.6707 26.8913 54.0386C29.3892 62.6624 32.4821 65.7551 41.1059 68.253C42.4739 68.6456 42.4739 70.5963 41.1059 70.9889Z" fill="#39FDDC"/>
<path d="M13.4856 80.1832C10.0242 81.1823 8.77513 82.4313 7.77596 85.8927C7.62132 86.4399 6.83605 86.4399 6.66952 85.8927C5.67034 82.4313 4.42161 81.1823 0.96018 80.1832C0.413013 80.0285 0.413013 79.2435 0.96018 79.0769C4.42161 78.0778 5.67034 76.8288 6.66952 73.3674C6.82415 72.8202 7.60943 72.8202 7.77596 73.3674C8.77513 76.8288 10.0242 78.0778 13.4856 79.0769C14.0328 79.2316 14.0328 80.0166 13.4856 80.1832Z" fill="#39FDDC"/>
<path d="M63.2182 34.9236L60.6728 37.0885C60.1851 37.5048 59.4951 37.4215 59.1264 36.9101L39.9873 9.88484C39.5115 9.21872 39.8327 8.20766 40.594 7.95787L48.4685 5.42425C48.9562 5.26961 49.4797 5.49564 49.7176 5.97144L63.5274 33.3535C63.7891 33.8769 63.6583 34.543 63.2182 34.9117V34.9236Z" fill="white"/>
<path d="M103.292 29.8802L99.4853 29.904C98.831 29.904 98.2841 29.4282 98.2008 28.7739L94.6681 1.45133C94.5729 0.678163 95.1793 -0.0117433 95.9644 0.000151585L106.17 0.131014C106.932 0.131014 107.515 0.797107 107.443 1.55838L104.564 28.7382C104.493 29.3925 103.946 29.8921 103.292 29.8921V29.8802Z" fill="white"/>
<path d="M157.022 10.313L140.726 37.1836C140.417 37.707 139.775 37.933 139.204 37.7308L135.79 36.5651C135.1 36.3272 134.743 35.5659 135.005 34.8879L146.186 5.17444C146.448 4.47264 147.257 4.13958 147.946 4.46074L156.463 8.46935C157.153 8.79051 157.415 9.64692 157.022 10.3011V10.313Z" fill="white"/>
<path d="M170.51 159.439C163.956 161.342 161.613 163.685 159.722 170.228C159.425 171.274 157.938 171.274 157.64 170.228C155.737 163.674 153.394 161.33 146.851 159.439C145.805 159.142 145.805 157.655 146.851 157.357C153.406 155.454 155.749 153.111 157.64 146.569C157.938 145.522 159.425 145.522 159.722 146.569C161.625 153.123 163.968 155.466 170.51 157.357C171.557 157.655 171.557 159.142 170.51 159.439Z" fill="#39FDDC"/>
</svg>
