<svg width="350" height="418" viewBox="0 0 350 418" fill="none" xmlns="http://www.w3.org/2000/svg">
<path opacity="0.08" d="M11.4229 105.185L131.891 74.8613L166.433 194.514L11.4229 105.185Z" fill="#D6EBEC"/>
<path d="M166.433 94.8029L131.891 74.8615L252.781 64.8887L166.433 94.8029Z" fill="#FF371E"/>
<path d="M80.2148 45.024L131.891 74.8606L115.249 44.584L80.2148 45.024Z" fill="#5DDBFE"/>
<path opacity="0.08" d="M166.576 373.417L80.0811 284.252L166.433 194.514L166.576 373.417Z" fill="#D6EBEC"/>
<path d="M80.081 244.365V284.252L11 184.541L80.081 244.365Z" fill="#FF371E"/>
<path d="M80.0808 343.921V284.252L62.1797 313.8L80.0808 343.921Z" fill="#5DDBFE"/>
<path opacity="0.08" d="M321.298 104.934L287.324 224.422L166.434 194.512L321.298 104.934Z" fill="#D6EBEC"/>
<path d="M252.782 244.363L287.324 224.422L235.515 334.106L252.782 244.363Z" fill="#FF371E"/>
<path d="M339 194.59L287.324 224.422L321.863 225.151L339 194.59Z" fill="#5DDBFE"/>
<path d="M207.903 263.728L122.681 208.713C120.498 207.453 119.157 205.129 119.157 202.609L114.796 131.54C116.09 130.323 120.14 128.374 121.49 127.679C122.72 127.045 124.251 126.985 125.619 127.778L214.801 179.252C216.983 180.511 218.325 182.836 218.325 185.355V256.235C218.325 257.991 217.35 259.41 215.995 260.139C214.719 260.829 209.335 264.56 207.899 263.732L207.903 263.728Z" fill="#BF0000"/>
<path d="M205.927 263.271L116.935 211.91C114.753 210.65 113.411 208.326 113.411 205.806V134.707C113.411 131.39 117 129.319 119.873 130.975L209.055 182.449C211.237 183.708 212.579 186.033 212.579 188.552V259.432C212.579 262.848 208.882 264.984 205.923 263.275L205.927 263.271Z" fill="#FF371E"/>
<path d="M212.583 220.337L113.411 163.39V147.158L212.583 204.506V220.337Z" fill="#E50000"/>
<path d="M159.557 198.99L121.162 177.285V173.174L159.557 195.285V198.99Z" fill="#E50000"/>
<path d="M159.557 206.535L121.162 184.829V180.723L159.557 202.829V206.535Z" fill="#E50000"/>
<path d="M135.583 213.513L123.557 206.521C121.297 205.236 119.903 202.837 119.903 200.236V195.487C119.903 192.265 123.406 190.259 126.184 191.89L137.006 198.188C139.086 199.404 140.358 201.634 140.358 204.041V210.736C140.358 213.186 137.714 214.726 135.583 213.513Z" fill="#E50000"/>
<path d="M267.762 125.328C262.034 123.831 253.135 125.798 244.599 130.966C236.062 136.134 230.196 143.109 228.867 148.876L226.654 150.213L229.411 154.742C229.467 154.846 229.523 154.945 229.583 155.044C229.648 155.148 229.713 155.251 229.782 155.35C233.69 161.061 246.126 160.009 257.88 152.896C269.841 145.654 276.562 134.87 272.895 128.814L269.971 123.982L267.758 125.32L267.762 125.328Z" fill="#BF0000"/>
<path d="M269.974 123.987C273.641 130.043 267.39 141.603 255.429 148.846C243.468 156.088 230.329 156.273 226.658 150.217C222.987 144.161 229.712 133.377 241.673 126.135C253.635 118.893 266.303 117.931 269.974 123.987Z" fill="#FF371E"/>
<path d="M187 294.651C184.244 289.803 177.066 285.101 167.969 282.746C158.872 280.391 150.314 281.02 145.552 283.919L143.196 283.311L141.954 288.146C141.92 288.25 141.889 288.353 141.863 288.461C141.833 288.573 141.812 288.686 141.786 288.793V288.798C140.505 295.19 149.391 302.881 161.917 306.125C174.663 309.425 186.353 306.871 188.022 300.414L189.355 295.264L187 294.655V294.651Z" fill="#BF0000"/>
<path d="M189.355 295.264C187.681 301.722 175.78 305.103 163.034 301.804C150.287 298.504 141.522 289.765 143.196 283.312C144.87 276.854 156.555 274.301 169.301 277.6C182.048 280.9 191.024 288.811 189.355 295.264Z" fill="#FF371E"/>
<path d="M86.8571 185.459C86.6328 180.645 82.9447 174.21 76.8584 168.831C70.772 163.452 63.9351 160.583 59.1298 160.95L57.5554 159.557L54.7041 162.796C54.6394 162.865 54.5747 162.93 54.51 163.003C54.4453 163.076 54.3806 163.154 54.3202 163.232C50.8306 167.653 54.661 177.061 63.0422 184.467C71.57 192.003 81.5773 194.613 85.3948 190.295L88.4402 186.848L86.8657 185.455L86.8571 185.459Z" fill="#BF0000"/>
<path d="M88.4354 186.852C84.6179 191.17 74.1231 189.117 65.5953 181.577C57.0675 174.041 53.7418 163.874 57.5549 159.556C61.3681 155.238 71.3797 157.848 79.9076 165.384C88.4354 172.919 92.2529 182.53 88.4354 186.852Z" fill="#FF371E"/>
</svg>
