<svg xmlns="http://www.w3.org/2000/svg" width="350" height="418" viewBox="0 0 350 418" fill="none">
<path d="M97.2673 171.39V171.482L255.468 173.132L254.643 162.907C254.113 156.297 249.643 151.002 244.357 150.788L109.896 145.502C101.809 145.187 95.536 152.305 96.3202 161.043L97.2571 171.39H97.2673Z" fill="#FF523D"/>
<path d="M261.09 243.158L257.403 197.238L256.955 191.637L99.2939 193.684L99.905 200.385L105.079 257.549C105.791 265.39 112.044 270.941 119.275 270.238L251.649 257.406C257.372 256.856 261.66 250.328 261.079 243.158H261.09Z" fill="#FF523D"/>
<path d="M264.512 128.78C257.821 130.715 255.428 133.119 253.483 139.81C253.177 140.869 251.67 140.869 251.354 139.81C249.419 133.119 247.016 130.726 240.325 128.78C239.265 128.475 239.265 126.968 240.325 126.652C247.016 124.717 249.409 122.313 251.354 115.622C251.66 114.563 253.167 114.563 253.483 115.622C255.418 122.313 257.821 124.707 264.512 126.652C265.571 126.957 265.571 128.465 264.512 128.78Z" fill="#39FDDC"/>
<path d="M45.6649 135.532L80.9529 144.057L77.9995 156.288L42.8235 154.261C41.2958 154.169 40.1756 152.784 40.3997 151.267L42.4874 137.661C42.7216 136.154 44.1882 135.176 45.6649 135.532Z" fill="white"/>
<path d="M98.5921 100.326L104.723 122.955L95.3841 127.711L83.9065 105.163C83.4075 104.176 83.9065 102.974 84.9657 102.648L96.3312 99.0835C97.2987 98.7779 98.3273 99.3381 98.5921 100.326Z" fill="white"/>
<path d="M299.729 284.771C288.822 287.939 284.911 291.839 281.754 302.746C281.255 304.478 278.79 304.478 278.291 302.746C275.124 291.839 271.223 287.928 260.316 284.771C258.585 284.272 258.585 281.808 260.316 281.309C271.223 278.141 275.134 274.241 278.291 263.334C278.79 261.602 281.255 261.602 281.754 263.334C284.921 274.241 288.822 278.152 299.729 281.309C301.46 281.808 301.46 284.272 299.729 284.771Z" fill="#39FDDC"/>
<path opacity="0.98" d="M287.253 152.234C283.25 153.395 281.814 154.831 280.653 158.834C280.47 159.475 279.564 159.475 279.38 158.834C278.219 154.831 276.783 153.395 272.781 152.234C272.139 152.051 272.139 151.145 272.781 150.961C276.783 149.8 278.219 148.364 279.38 144.362C279.564 143.72 280.47 143.72 280.653 144.362C281.814 148.364 283.25 149.8 287.253 150.961C287.894 151.145 287.894 152.051 287.253 152.234Z" fill="#39FDDC"/>
<path d="M261.141 174.62C271.539 169.732 282.579 166.228 294.025 164.711C297.6 164.314 301.307 163.957 304.943 164.68C309.159 165.444 310.972 169.457 308.528 173.164C306.491 176.209 303.792 178.042 301.144 180.048C297.885 182.37 294.565 184.397 291.235 186.362C284.544 190.232 277.761 193.756 270.897 197.086C250.529 206.996 229.112 215.652 207.878 223.463C172.152 236.407 136.059 247.64 98.5 254.943C90.8822 256.368 83.295 257.59 75.5143 258.232C69.1696 258.497 57.1116 260.126 53.9138 252.987C52.7222 250.024 54.1174 247.539 55.7571 245.675C59.4438 241.876 63.8127 239.422 68.1919 236.743C78.0706 230.969 88.2751 225.928 98.6426 221.141C89.8842 228.372 80.9018 235.226 72.2452 242.487C68.8946 245.431 65.3913 248.15 62.9471 251.51C62.5906 252.091 62.8351 252.02 62.998 251.378C63.0795 251.062 63.2017 250.197 62.8045 249.25C62.3972 248.262 61.9694 248.038 61.837 247.895C61.7046 247.783 61.7861 247.803 61.9694 247.814C69.4751 247.936 77.1234 245.583 84.4866 243.832C109.631 237.049 134.481 228.779 159.299 220.724C201.686 206.537 244.938 192.972 286.51 176.82C291.917 174.498 297.783 172.349 302.326 168.846C302.448 168.774 302.376 168.764 302.326 169.406C302.346 169.752 302.305 170.078 302.743 170.893C303.12 171.463 303.364 171.545 303.446 171.595C303.599 171.646 303.375 171.483 303.11 171.392C302.03 171.005 300.9 170.821 299.678 170.669C294.28 170.078 288.781 170.322 283.302 170.811C275.898 171.504 268.484 172.797 261.141 174.641V174.62Z" fill="#39FDDC"/>
<path d="M108.022 319C124.795 319 138.392 305.403 138.392 288.631C138.392 271.859 124.795 258.262 108.022 258.262C91.2501 258.262 77.6533 271.859 77.6533 288.631C77.6533 305.403 91.2501 319 108.022 319Z" fill="white"/>
<path d="M91.7519 290.178C90.8018 289.066 89.1304 288.935 88.0187 289.885C86.9071 290.835 86.7761 292.507 87.7262 293.618L98.3792 306.083C99.3293 307.194 101.001 307.325 102.112 306.375C103.224 305.425 103.355 303.754 102.405 302.642L91.7519 290.178Z" fill="#1E1A25"/>
<path d="M124.893 273.577C125.721 272.372 125.415 270.723 124.209 269.896C123.004 269.068 121.355 269.374 120.527 270.579L98.3823 302.824C97.5545 304.03 97.8606 305.678 99.0661 306.506C100.272 307.334 101.92 307.028 102.748 305.823L124.893 273.577Z" fill="#1E1A25"/>
</svg>