<svg width="295" height="142" viewBox="0 0 295 142" fill="none" xmlns="http://www.w3.org/2000/svg">
  <rect x="27" width="241" height="142" rx="10" fill="#FFF0B8"/>
  <path d="M227 0H258C263.523 0 268 4.47715 268 10V132C268 137.523 263.523 142 258 142H187L227 0Z" fill="#FFFAE5"/>
  <path d="M218 115.408C218.029 115.221 218.144 115.199 218.316 115.2C219.721 115.208 221.126 115.223 222.531 115.197C223.34 115.182 223.894 115.594 224.048 116.449C224.403 118.418 224.781 120.384 225.15 122.351C225.225 122.36 225.215 122.293 225.228 122.26C226.14 119.96 227.051 117.66 227.956 115.357C228.004 115.235 228.062 115.201 228.188 115.202C229.088 115.207 229.989 115.205 230.888 115.205C230.912 115.26 230.878 115.296 230.862 115.336C229.415 118.791 227.967 122.245 226.522 125.701C226.48 125.8 226.436 125.847 226.315 125.845C225.443 125.838 224.571 125.838 223.698 125.845C223.573 125.847 223.536 125.799 223.508 125.691C222.792 122.906 222.068 120.121 221.358 117.334C221.238 116.865 220.991 116.543 220.546 116.342C219.748 115.981 218.916 115.736 218.066 115.542C218.045 115.538 218.022 115.543 218 115.544V115.408V115.408Z" fill="#090833"/>
  <path d="M240.679 115C240.875 115.072 241.083 115.06 241.286 115.092C241.757 115.166 242.214 115.286 242.665 115.435C242.778 115.473 242.798 115.518 242.773 115.629C242.626 116.291 242.484 116.954 242.347 117.619C242.324 117.73 242.295 117.739 242.193 117.696C241.473 117.385 240.72 117.223 239.933 117.245C239.55 117.256 239.178 117.316 238.846 117.526C238.514 117.737 238.368 118.078 238.483 118.373C238.555 118.559 238.692 118.693 238.848 118.81C239.206 119.081 239.613 119.269 240.006 119.48C240.545 119.77 241.074 120.072 241.515 120.507C242.172 121.155 242.389 121.944 242.259 122.836C242.053 124.259 241.165 125.108 239.881 125.609C239.286 125.841 238.662 125.946 238.027 125.989C237.967 126.009 237.905 125.995 237.844 125.999C237.636 125.999 237.429 125.999 237.222 125.999C237.16 125.995 237.098 126.01 237.037 125.988C236.205 125.931 235.387 125.802 234.601 125.508C234.477 125.462 234.445 125.413 234.476 125.274C234.638 124.558 234.786 123.838 234.941 123.107C235.251 123.235 235.543 123.383 235.854 123.485C236.673 123.753 237.507 123.862 238.362 123.703C238.63 123.653 238.882 123.55 239.095 123.371C239.49 123.039 239.518 122.532 239.158 122.165C238.88 121.882 238.533 121.7 238.184 121.526C237.642 121.254 237.102 120.981 236.634 120.588C236.127 120.162 235.725 119.661 235.619 118.991C235.463 118 235.751 117.131 236.436 116.403C237.153 115.64 238.074 115.278 239.083 115.106C239.295 115.07 239.51 115.055 239.723 115.03C239.783 115.007 239.844 115.022 239.905 115.018C240.139 115.007 240.375 115.04 240.609 115.001H240.677L240.679 115Z" fill="#090833"/>
  <path d="M231.184 125.841C230.776 125.841 230.368 125.836 229.96 125.844C229.827 125.847 229.812 125.799 229.837 125.686C230.26 123.719 230.681 121.752 231.102 119.784C231.416 118.32 231.731 116.856 232.039 115.39C232.068 115.255 232.106 115.198 232.261 115.2C233.071 115.209 233.881 115.205 234.691 115.203C234.785 115.203 234.846 115.196 234.816 115.334C234.072 118.788 233.333 122.242 232.598 125.697C232.571 125.823 232.521 125.846 232.407 125.844C231.999 125.838 231.592 125.841 231.184 125.841V125.841Z" fill="#090833"/>
  <path d="M251.921 125.177C251.491 123.126 251.065 121.073 250.634 119.022C250.382 117.819 250.136 116.614 249.878 115.412C249.828 115.18 249.801 115.157 249.575 115.157C248.862 115.155 248.148 115.146 247.434 115.159C246.85 115.17 246.441 115.465 246.206 115.998C246.149 116.127 246.096 116.259 246.041 116.389C245.253 118.27 244.466 120.152 243.677 122.032C243.177 123.223 242.68 124.415 242.179 125.606C242.075 125.853 242.103 125.895 242.368 125.895C243.184 125.897 244 125.897 244.816 125.895C245.043 125.895 245.072 125.87 245.15 125.66C245.296 125.267 245.436 124.872 245.576 124.477C245.62 124.351 245.688 124.296 245.823 124.297C246.849 124.3 247.874 124.3 248.899 124.297C249.031 124.297 249.092 124.349 249.119 124.476C249.202 124.864 249.276 125.253 249.362 125.641C249.413 125.868 249.44 125.895 249.666 125.896C250.374 125.897 251.082 125.897 251.79 125.896C251.864 125.896 251.939 125.902 252 125.848V125.712C251.963 125.535 251.958 125.354 251.921 125.178L251.921 125.177ZM248.628 121.529C247.948 121.525 247.268 121.525 246.589 121.529C246.451 121.529 246.495 121.462 246.521 121.391C246.791 120.647 247.06 119.904 247.329 119.16C247.5 118.688 247.672 118.215 247.844 117.743C247.861 117.697 247.867 117.644 247.916 117.603C248.112 118.537 248.306 119.466 248.5 120.395C248.57 120.733 248.636 121.071 248.711 121.408C248.729 121.49 248.734 121.53 248.627 121.529L248.628 121.529Z" fill="#090833"/>
  <path fill-rule="evenodd" clip-rule="evenodd" d="M147.499 31C125.694 31.0006 108.013 48.6709 108 70.4763L167.223 36.2828C161.229 32.8148 154.425 30.9922 147.499 31ZM187 70.5014C187.004 56.4349 179.521 43.4295 167.359 36.3621V104.641C179.521 97.5728 187.003 84.5679 187 70.5014ZM147.499 110C154.425 110.008 161.229 108.185 167.224 104.717L108.001 70.5232C108.013 92.3291 125.693 109.999 147.499 110ZM160.092 70.2757C160.213 77.1687 154.603 82.8503 147.561 82.9766C140.518 83.1029 134.713 77.6151 134.591 70.7232C134.47 63.8313 140.08 58.1435 147.124 58.02H147.358C154.292 58.02 159.971 63.4609 160.092 70.2757Z" fill="#F34C33"/>
  <path d="M41.5859 21H45.2012C47.7617 21 49.2734 19.418 49.2734 16.7109V16.6992C49.2734 13.998 47.7617 12.5449 45.2012 12.5449H41.5859V21ZM44.0703 19.0254V14.5195H44.8496C46.0332 14.5195 46.7422 15.2812 46.7422 16.6992V16.7109C46.7422 18.2695 46.0918 19.0254 44.8496 19.0254H44.0703ZM52.4733 21H54.9577V18.2227H55.7721L57.1081 21H59.8854L58.2799 17.8535C59.1002 17.4551 59.6393 16.5059 59.6393 15.4512V15.4395C59.6393 13.5645 58.4557 12.5449 56.2819 12.5449H52.4733V21ZM54.9577 16.4707V14.3789H55.9948C56.651 14.3789 57.1081 14.8066 57.1081 15.4219V15.4336C57.1081 16.0547 56.6627 16.4707 55.9948 16.4707H54.9577ZM62.47 21H65.0833L65.5228 19.3184H68.054L68.4935 21H71.1067L68.347 12.5449H65.2298L62.47 21ZM66.7649 14.5605H66.8118L67.597 17.5664H65.9798L66.7649 14.5605ZM74.0957 21H76.58V18.0059H79.7089V16.1426H76.58V14.5137H80.0371V12.5449H74.0957V21ZM85.0475 21H87.5318V14.5137H89.7584V12.5449H82.8209V14.5137H85.0475V21Z" fill="#00334C"/>
</svg>
