<svg width="12" height="9" viewBox="0 0 12 9" fill="none" xmlns="http://www.w3.org/2000/svg">
<path d="M1.6034 9H10.3966C11.4689 9 12 8.45726 12 7.37178V1.63349C12 0.548009 11.4689 0 10.3966 0H1.6034C0.53617 0 0 0.548009 0 1.63349V7.37178C0 8.45726 0.53617 9 1.6034 9ZM0.822128 1.68091C0.822128 1.1329 1.10298 0.848361 1.61362 0.848361H10.3864C10.8868 0.848361 11.1779 1.1329 11.1779 1.68091V2.09719H0.822128V1.68091ZM1.61362 8.15164C1.10298 8.15164 0.822128 7.87237 0.822128 7.32436V3.29333H11.1779V7.32436C11.1779 7.87237 10.8868 8.15164 10.3864 8.15164H1.61362ZM2.29277 7.15574H3.54383C3.84511 7.15574 4.04426 6.94496 4.04426 6.64988V5.67506C4.04426 5.37471 3.84511 5.1692 3.54383 5.1692H2.29277C1.99149 5.1692 1.79234 5.37471 1.79234 5.67506V6.64988C1.79234 6.94496 1.99149 7.15574 2.29277 7.15574Z" fill="#CFCFDD"/>
</svg>
