<svg width="24" height="22" viewBox="0 0 24 22" fill="none" xmlns="http://www.w3.org/2000/svg">
<path d="M18.3672 5.03125C17.5547 4.22656 16.4453 4.04688 14.9609 4.04688H9.01562C7.54688 4.04688 6.42969 4.22656 5.625 5.03125C4.82031 5.84375 4.64844 6.9375 4.64844 8.40625V14.3125C4.64844 15.8047 4.82031 16.9062 5.625 17.7109C6.4375 18.5156 7.53906 18.6953 9.03125 18.6953H14.9609C16.4453 18.6953 17.5547 18.5156 18.3672 17.7109C19.1719 16.8984 19.3438 15.8047 19.3438 14.3125V8.42188C19.3438 6.92969 19.1719 5.83594 18.3672 5.03125ZM17.6016 8.21094V14.5312C17.6016 15.3516 17.4922 16.0234 17.0938 16.4375C16.6875 16.8438 15.9922 16.9531 15.1797 16.9531H8.8125C8 16.9531 7.30469 16.8359 6.89844 16.4375C6.49219 16.0234 6.39062 15.3516 6.39062 14.5312V8.22656C6.39062 7.39062 6.49219 6.71094 6.89844 6.30469C7.30469 5.89844 8 5.78906 8.82812 5.78906H15.1797C15.9922 5.78906 16.6875 5.89844 17.0938 6.30469C17.5 6.71094 17.6016 7.39062 17.6016 8.21094ZM8.39844 11.3594C8.39844 11.8125 8.72656 12.1406 9.1875 12.1406H11.2109V14.1719C11.2109 14.625 11.5391 14.9531 11.9922 14.9531C12.4531 14.9531 12.7891 14.625 12.7891 14.1719V12.1406H14.8203C15.2734 12.1406 15.6016 11.8125 15.6016 11.3594C15.6016 10.8984 15.2734 10.5625 14.8203 10.5625H12.7891V8.53906C12.7891 8.07812 12.4531 7.75 11.9922 7.75C11.5391 7.75 11.2109 8.07812 11.2109 8.53906V10.5625H9.1875C8.72656 10.5625 8.39844 10.8984 8.39844 11.3594Z" fill="#FF7512"/>
</svg>
