<svg width="24" height="24" viewBox="0 0 24 24" fill="none" xmlns="http://www.w3.org/2000/svg">
<path d="M18.3672 6.03125C17.5547 5.22656 16.4453 5.04688 14.9609 5.04688H9.01562C7.54688 5.04688 6.42969 5.22656 5.625 6.03125C4.82031 6.84375 4.64844 7.9375 4.64844 9.40625V15.3125C4.64844 16.8047 4.82031 17.9062 5.625 18.7109C6.4375 19.5156 7.53906 19.6953 9.03125 19.6953H14.9609C16.4453 19.6953 17.5547 19.5156 18.3672 18.7109C19.1719 17.8984 19.3438 16.8047 19.3438 15.3125V9.42188C19.3438 7.92969 19.1719 6.83594 18.3672 6.03125ZM17.6016 9.21094V15.5312C17.6016 16.3516 17.4922 17.0234 17.0938 17.4375C16.6875 17.8438 15.9922 17.9531 15.1797 17.9531H8.8125C8 17.9531 7.30469 17.8359 6.89844 17.4375C6.49219 17.0234 6.39062 16.3516 6.39062 15.5312V9.22656C6.39062 8.39062 6.49219 7.71094 6.89844 7.30469C7.30469 6.89844 8 6.78906 8.82812 6.78906H15.1797C15.9922 6.78906 16.6875 6.89844 17.0938 7.30469C17.5 7.71094 17.6016 8.39062 17.6016 9.21094ZM8.39844 12.3594C8.39844 12.8125 8.72656 13.1406 9.1875 13.1406H11.2109V15.1719C11.2109 15.625 11.5391 15.9531 11.9922 15.9531C12.4531 15.9531 12.7891 15.625 12.7891 15.1719V13.1406H14.8203C15.2734 13.1406 15.6016 12.8125 15.6016 12.3594C15.6016 11.8984 15.2734 11.5625 14.8203 11.5625H12.7891V9.53906C12.7891 9.07812 12.4531 8.75 11.9922 8.75C11.5391 8.75 11.2109 9.07812 11.2109 9.53906V11.5625H9.1875C8.72656 11.5625 8.39844 11.8984 8.39844 12.3594Z" fill="#FF7512"/>
</svg>
