<svg width="49" height="34" viewBox="0 0 42 30" fill="none" xmlns="http://www.w3.org/2000/svg" xmlns:xlink="http://www.w3.org/1999/xlink">
  <path d="M38.3569 1.62616H4.60645V25.1264H38.3569V1.62616Z" fill="#DEDBCE"/>
  <path d="M38.0016 1.99953H5.00049V16.0002H38.0016V1.99953Z" fill="#40A5D9"/>
  <path fill-rule="evenodd" clip-rule="evenodd" d="M37.9992 7.95432C37.9992 7.84088 37.9992 7.72884 37.9992 7.6154C37.9992 7.52017 37.9978 7.42494 37.995 7.3297C37.9894 7.12243 37.9768 6.91376 37.9404 6.70929C37.9026 6.50201 37.8423 6.30875 37.7457 6.11968C37.6519 5.93482 37.5286 5.76396 37.3816 5.6169C37.2345 5.46985 37.0651 5.34661 36.8788 5.25138C36.6897 5.15474 36.4965 5.09452 36.2892 5.05671C36.0847 5.0203 35.8761 5.00769 35.6688 5.00209C35.5736 4.99929 35.4783 4.99789 35.3831 4.99789C35.2696 4.99789 35.1576 4.99789 35.0442 4.99789H34.9517H9.24853H7.95308C7.83964 4.99789 7.7276 4.99789 7.61416 4.99789C7.51893 4.99789 7.4237 4.99929 7.32846 5.00209C7.12119 5.00769 6.91252 5.0203 6.70805 5.05671C6.50077 5.09452 6.30751 5.15474 6.11844 5.25138C5.93357 5.34521 5.76271 5.46845 5.61566 5.6169C5.46861 5.76396 5.34537 5.93341 5.25154 6.11968C5.1549 6.30875 5.09468 6.50201 5.05687 6.70929C5.02045 6.91376 5.00785 7.12243 5.00225 7.3297C4.99945 7.42494 4.99805 7.52017 4.99805 7.6154C4.99805 7.72884 4.99805 7.84088 4.99805 7.95432V9.24977V8.23162V19H37.9992V8.30024V7.95432Z" fill="#FFB003"/>
  <path fill-rule="evenodd" clip-rule="evenodd" d="M37.9992 10.9546C37.9992 10.8411 37.9992 10.7291 37.9992 10.6156C37.9992 10.5204 37.9978 10.4252 37.995 10.3299C37.9894 10.1227 37.9768 9.91399 37.9404 9.70951C37.9026 9.50224 37.8423 9.30898 37.7457 9.11991C37.6519 8.93504 37.5286 8.76418 37.3816 8.61713C37.2345 8.47008 37.0651 8.34684 36.8788 8.2516C36.6897 8.15497 36.4965 8.09475 36.2892 8.05694C36.0847 8.02052 35.8761 8.00792 35.6688 8.00232C35.5736 7.99952 35.4783 7.99812 35.3831 7.99812C35.2696 7.99812 35.1576 7.99812 35.0442 7.99812H34.9503H9.24853H7.95308C7.83964 7.99812 7.7276 7.99812 7.61416 7.99812C7.51893 7.99812 7.4237 7.99952 7.32846 8.00232C7.12119 8.00792 6.91252 8.02052 6.70805 8.05694C6.50077 8.09475 6.30751 8.15497 6.11844 8.2516C5.93357 8.34544 5.76271 8.46868 5.61566 8.61713C5.46861 8.76418 5.34537 8.93364 5.25154 9.11991C5.1549 9.30898 5.09468 9.50224 5.05687 9.70951C5.02045 9.91399 5.00785 10.1227 5.00225 10.3299C4.99945 10.4252 4.99805 10.5204 4.99805 10.6156C4.99805 10.7291 4.99805 10.8411 4.99805 10.9546V12.25V11.2318V22.0002H37.9992V11.3005V10.9546Z" fill="#40C740"/>
  <path fill-rule="evenodd" clip-rule="evenodd" d="M37.9992 13.9548C37.9992 13.8413 37.9992 13.7293 37.9992 13.6159C37.9992 13.5206 37.9978 13.4254 37.995 13.3302C37.9894 13.1229 37.9768 12.9142 37.9404 12.7097C37.9026 12.5025 37.8423 12.3092 37.7457 12.1201C37.6519 11.9353 37.5286 11.7644 37.3816 11.6174C37.2345 11.4703 37.0651 11.3471 36.8788 11.2518C36.6897 11.1552 36.4965 11.095 36.2892 11.0572C36.0847 11.0208 35.8761 11.0081 35.6688 11.0025C35.5736 10.9997 35.4783 10.9983 35.3831 10.9983C35.2696 10.9983 35.1576 10.9983 35.0442 10.9983H34.9503H9.24853H7.95308C7.83964 10.9983 7.7276 10.9983 7.61416 10.9983C7.51893 10.9983 7.4237 10.9997 7.32846 11.0025C7.12119 11.0081 6.91252 11.0208 6.70805 11.0572C6.50077 11.095 6.30751 11.1552 6.11844 11.2518C5.93357 11.3457 5.76271 11.4689 5.61566 11.6174C5.46861 11.7644 5.34537 11.9339 5.25154 12.1201C5.1549 12.3092 5.09468 12.5025 5.05687 12.7097C5.02045 12.9142 5.00785 13.1229 5.00225 13.3302C4.99945 13.4254 4.99805 13.5206 4.99805 13.6159C4.99805 13.7293 4.99805 13.8413 4.99805 13.9548V15.2502V14.2321V25.0004H37.9992V14.3007V13.9548Z" fill="#F26D5F"/>
  <path fill-rule="evenodd" clip-rule="evenodd" d="M5.79903 0C4.25209 0 2.99805 1.25404 2.99805 2.80098V18.8999C2.99805 19.4522 3.44574 19.8999 3.998 19.8999C4.55025 19.8999 4.99795 19.4522 4.99795 18.8999V6.25039V4.95493C4.99795 4.84149 4.99795 4.72946 4.99795 4.61602C4.99795 4.52078 4.99935 4.42555 5.00215 4.33032C5.00775 4.12304 5.02035 3.91437 5.05677 3.7099C5.09458 3.50263 5.1548 3.30936 5.25144 3.12029C5.34527 2.93543 5.46851 2.76457 5.61556 2.61752C5.76401 2.47187 5.93347 2.34862 6.11834 2.25479C6.30741 2.15816 6.50067 2.09793 6.70794 2.06012C6.91242 2.02371 7.12109 2.0111 7.32836 2.0055C7.42359 2.0027 7.51883 2.0013 7.61406 2.0013C7.7275 2.0013 7.83954 2.0013 7.95298 2.0013H9.24843H34.9446H35.0441C35.1575 2.0013 35.2695 2.0013 35.383 2.0013C35.4782 2.0013 35.5734 2.0027 35.6687 2.0055C35.876 2.0111 36.0846 2.02371 36.2891 2.06012C36.4964 2.09793 36.6896 2.15816 36.8787 2.25479C37.0636 2.34862 37.2344 2.47186 37.3815 2.62032C37.5285 2.76737 37.6518 2.93683 37.7456 3.12309C37.8422 3.31216 37.9025 3.50543 37.9403 3.7127C37.9767 3.91717 37.9893 4.12584 37.9949 4.33312C37.9977 4.42835 37.9991 4.52358 37.9991 4.61882C37.9991 4.73226 37.9991 4.8443 37.9991 4.95774V6.25319L37.9451 17.8749C37.9424 18.4439 38.403 18.9066 38.972 18.9066C39.5392 18.9066 39.999 18.4468 39.999 17.8796V2.80098C39.999 1.25404 38.745 0 37.198 0H5.79903Z" fill="#D9D6CC"/>
  <g filter="url(#filter0_d_163_97082)">
    <path fill-rule="evenodd" clip-rule="evenodd" d="M30.7099 14.0004C30.4957 14.0004 30.28 14.0004 30.0657 14.0018C29.885 14.0032 29.7044 14.0046 29.5237 14.0102C29.1302 14.0214 28.7324 14.0439 28.3431 14.1139C27.9482 14.1853 27.5798 14.3015 27.2213 14.4836C27.1751 14.5074 26.1877 14.9556 25.2998 16.3365C24.6262 17.3854 23.3153 18.4974 21.4807 18.4974C19.6461 18.4974 18.3352 17.3854 17.6616 16.3365C16.7274 14.8814 15.6617 14.4444 15.7387 14.4836C15.3802 14.3001 15.0118 14.1853 14.6169 14.1139C14.2276 14.0439 13.8298 14.02 13.4363 14.0102C13.2556 14.006 13.075 14.0032 12.8943 14.0018C12.68 14.0004 12.4643 14.0004 12.2501 14.0004H5.80782C4.26088 14.0004 3.00684 15.2545 3.00684 16.8014V25.1988C3.00684 26.7457 4.26088 27.9997 5.80782 27.9997H37.2068C38.7537 27.9997 40.0078 26.7457 40.0078 25.1988V16.8014C40.0078 15.2545 38.7537 14.0004 37.2068 14.0004H30.7099Z" fill="#DEDBCE"/>
  </g>
</svg>
