<svg width="11" height="20" viewBox="0 0 11 20" fill="none" xmlns="http://www.w3.org/2000/svg">
<path d="M0.382812 10.2441C0.382812 10.5127 0.479492 10.749 0.683594 10.9531L9.20215 19.2783C9.38477 19.4717 9.62109 19.5684 9.90039 19.5684C10.459 19.5684 10.8887 19.1494 10.8887 18.5908C10.8887 18.3115 10.7705 18.0752 10.5986 17.8926L2.77832 10.2441L10.5986 2.5957C10.7705 2.41309 10.8887 2.16602 10.8887 1.89746C10.8887 1.33887 10.459 0.919922 9.90039 0.919922C9.62109 0.919922 9.38477 1.0166 9.20215 1.19922L0.683594 9.53516C0.479492 9.72852 0.382812 9.97559 0.382812 10.2441Z" fill="black"/>
</svg>
