<svg width="20" height="20" viewBox="0 0 20 20" fill="none" xmlns="http://www.w3.org/2000/svg">
<path d="M12.268 7.32435L8.69297 10.9077L7.31797 9.53268C7.24327 9.44545 7.15133 9.3746 7.04795 9.32458C6.94456 9.27456 6.83195 9.24645 6.71718 9.24202C6.60242 9.23758 6.48797 9.25692 6.38104 9.29882C6.2741 9.34071 6.17698 9.40426 6.09576 9.48547C6.01455 9.56669 5.951 9.66381 5.90911 9.77075C5.86721 9.87768 5.84787 9.99213 5.85231 10.1069C5.85674 10.2217 5.88485 10.3343 5.93487 10.4377C5.98489 10.541 6.05574 10.633 6.14297 10.7077L8.10131 12.6743C8.17917 12.7516 8.27152 12.8127 8.37305 12.8542C8.47458 12.8956 8.5833 12.9167 8.69297 12.916C8.91159 12.9151 9.12109 12.8283 9.27631 12.6743L13.443 8.50768C13.5211 8.43021 13.5831 8.33805 13.6254 8.2365C13.6677 8.13495 13.6895 8.02603 13.6895 7.91602C13.6895 7.80601 13.6677 7.69708 13.6254 7.59554C13.5831 7.49399 13.5211 7.40182 13.443 7.32435C13.2868 7.16914 13.0756 7.08202 12.8555 7.08202C12.6353 7.08202 12.4241 7.16914 12.268 7.32435ZM10.0013 1.66602C8.35313 1.66602 6.74196 2.15476 5.37155 3.07044C4.00114 3.98611 2.93304 5.2876 2.30231 6.81032C1.67158 8.33304 1.50655 10.0086 1.8281 11.6251C2.14964 13.2416 2.94331 14.7265 4.10875 15.8919C5.27419 17.0573 6.75905 17.851 8.37555 18.1726C9.99206 18.4941 11.6676 18.3291 13.1903 17.6983C14.7131 17.0676 16.0145 15.9995 16.9302 14.6291C17.8459 13.2587 18.3346 11.6475 18.3346 9.99935C18.3346 8.905 18.1191 7.82137 17.7003 6.81032C17.2815 5.79927 16.6677 4.88061 15.8939 4.10679C15.12 3.33297 14.2014 2.71914 13.1903 2.30035C12.1793 1.88156 11.0957 1.66602 10.0013 1.66602V1.66602ZM10.0013 16.666C8.68276 16.666 7.39383 16.275 6.2975 15.5425C5.20118 14.8099 4.34669 13.7687 3.84211 12.5506C3.33752 11.3324 3.2055 9.99195 3.46274 8.69875C3.71997 7.40554 4.35491 6.21765 5.28726 5.2853C6.21961 4.35295 7.4075 3.71802 8.7007 3.46078C9.99391 3.20355 11.3344 3.33557 12.5525 3.84015C13.7707 4.34474 14.8119 5.19922 15.5444 6.29555C16.277 7.39188 16.668 8.68081 16.668 9.99935C16.668 11.7675 15.9656 13.4632 14.7154 14.7134C13.4651 15.9636 11.7694 16.666 10.0013 16.666V16.666Z" fill="#00AC86"/>
</svg>
