<svg width="24" height="25" viewBox="0 0 24 25" fill="none" xmlns="http://www.w3.org/2000/svg">
<path d="M11.9862 24.2825C13.6321 24.2825 15.176 23.9692 16.618 23.3425C18.0601 22.7234 19.3285 21.8628 20.4232 20.7605C21.5255 19.6657 22.3899 18.3974 23.0166 16.9553C23.6432 15.5133 23.9565 13.9693 23.9565 12.3235C23.9565 10.6851 23.6432 9.14496 23.0166 7.70293C22.3899 6.2609 21.5255 4.98874 20.4232 3.88645C19.3285 2.78417 18.0563 1.92348 16.6067 1.30439C15.1647 0.677749 13.6245 0.364428 11.9862 0.364428C10.3479 0.364428 8.8039 0.677749 7.35432 1.30439C5.91229 1.92348 4.64013 2.78417 3.53785 3.88645C2.44311 4.98874 1.58243 6.2609 0.955784 7.70293C0.336693 9.14496 0.027147 10.6851 0.027147 12.3235C0.027147 13.9693 0.336693 15.5133 0.955784 16.9553C1.58243 18.3974 2.44689 19.6657 3.54917 20.7605C4.65146 21.8628 5.92362 22.7234 7.36565 23.3425C8.80768 23.9692 10.3479 24.2825 11.9862 24.2825ZM6.43701 12.3235C6.43701 11.9309 6.56158 11.61 6.81073 11.3609C7.06742 11.1042 7.38452 10.9758 7.76202 10.9758H10.6612V8.07665C10.6612 7.69915 10.7857 7.38583 11.0349 7.13668C11.284 6.87999 11.6011 6.75164 11.9862 6.75164C12.3712 6.75164 12.6883 6.87999 12.9375 7.13668C13.1942 7.38583 13.3225 7.69915 13.3225 8.07665V10.9758H16.233C16.6105 10.9758 16.9238 11.1042 17.173 11.3609C17.4221 11.61 17.5467 11.9309 17.5467 12.3235C17.5467 12.701 17.4221 13.0181 17.173 13.2747C16.9238 13.5239 16.6105 13.6485 16.233 13.6485H13.3225V16.5476C13.3225 16.9251 13.1942 17.2384 12.9375 17.4876C12.6883 17.7367 12.3712 17.8613 11.9862 17.8613C11.6011 17.8613 11.284 17.7367 11.0349 17.4876C10.7857 17.2384 10.6612 16.9251 10.6612 16.5476V13.6485H7.76202C7.38452 13.6485 7.06742 13.5239 6.81073 13.2747C6.56158 13.0181 6.43701 12.701 6.43701 12.3235Z" fill="#CCCCCC"/>
</svg>
