<svg width="60" height="54" viewBox="0 0 60 54" fill="none" xmlns="http://www.w3.org/2000/svg">
<path d="M45.1172 10.6016C47.7891 10.6016 49.9688 8.42188 49.9688 5.75C49.9688 3.10156 47.7891 0.921875 45.1172 0.921875C42.4453 0.921875 40.2891 3.10156 40.2891 5.75C40.2891 8.42188 42.4453 10.6016 45.1172 10.6016ZM16.8281 11.6094C19.5 11.6094 21.6797 9.42969 21.6797 6.75781C21.6797 4.08594 19.5 1.92969 16.8281 1.92969C14.1562 1.92969 12 4.08594 12 6.75781C12 9.42969 14.1562 11.6094 16.8281 11.6094ZM3.32812 17.5625L8.27344 17.9609C8.60156 17.9844 8.83594 18.2188 8.83594 18.5938V27.5703C8.83594 29.375 9.42188 31.1328 10.5234 32.5156L16.3125 39.9688L13.3594 49.7891C12.9609 51.0781 13.7109 52.4609 14.9531 52.8125C16.1953 53.1641 17.5547 52.5781 17.9766 51.1719L21.2812 40.1328C21.3516 39.9219 21.375 39.7578 21.375 39.5469L30.3281 50.8672C31.1484 51.8984 32.6953 52.1094 33.6797 51.2891C34.7344 50.3984 34.9219 48.9453 34.1016 47.8906L18.1172 27.6641L18.8438 20.4922C18.9141 19.9766 19.3828 19.7188 19.8281 19.9297L25.3828 22.7188C25.7578 22.9297 26.4375 23.0703 26.9766 23.0703H35.5312C36.0938 23.0703 36.6797 22.8594 37.0781 22.5078L41.1328 19.0391C41.5312 18.6875 42.0234 18.8516 42.2109 19.3203L44.4844 25.6484L34.8984 28.2734C33.9375 28.5312 33.1875 29.375 33.0938 30.3828L32.0156 41.4219C31.875 42.9922 33.2578 44.0469 34.4297 44.0469C35.6484 44.0469 36.7031 43.1562 36.8203 41.8906L37.7344 32.7031L44.4609 31.6719L41.25 38.1406C40.8984 38.8438 40.7109 39.6172 40.9922 40.3438L45.4219 51.3828C45.9609 52.7188 47.4141 53.1875 48.5625 52.7188C49.7812 52.2266 50.3906 50.8203 49.8984 49.5781L45.9609 39.7578L51.3984 32.0234C52.7812 30.1016 53.2734 27.6172 52.8516 25.2969L52.0078 20.6562C51.8906 20.0234 52.3828 19.625 52.9688 19.8125L55.7578 20.75C57.6562 21.4062 59.0859 20.2344 58.9219 18.3359L57.7969 7.17969C57.6797 5.79688 56.4375 4.85938 55.1719 5C53.8828 5.14062 52.875 6.3125 52.9922 7.67188L53.7422 15.0312L47.0859 12.8047C44.3672 11.8906 41.4844 12.3828 39.2344 14.3281L34.6641 18.2656H27.2578L20.1094 14.7031C19.0312 14.1406 17.9766 13.8594 16.7812 13.7656L6.77344 13.0156L9.09375 6.00781C9.53906 4.71875 8.83594 3.35938 7.59375 2.9375C6.32812 2.51562 4.94531 3.19531 4.54688 4.46094L1.19531 14.375C0.703125 15.875 1.75781 17.4453 3.32812 17.5625Z" fill="white"/>
</svg>
