<svg width="15" height="9" viewBox="0 0 15 9" fill="none" xmlns="http://www.w3.org/2000/svg">
<path d="M11.7728 8.88171C11.9374 9.03446 12.2009 9.04432 12.371 8.88171C12.5521 8.71911 12.5357 8.49737 12.371 8.34462L3.19429 0.110867C3.02964 -0.0369558 2.7607 -0.0369558 2.59056 0.110867C2.43139 0.253763 2.43139 0.505063 2.59056 0.647959L11.7728 8.88171ZM7.50274 0.391732C6.54775 0.391732 5.68057 0.539555 4.87377 0.780999L5.59824 1.42649C6.20198 1.26389 6.82217 1.17027 7.50274 1.17027C11.1142 1.17027 14.0395 4.02818 14.0395 4.61455C14.0395 5.01367 13.079 6.08785 11.5587 6.92552L12.2338 7.53159C13.9682 6.52147 15 5.19599 15 4.61455C15 3.60442 11.9374 0.391732 7.50274 0.391732ZM7.50274 8.83737C8.5236 8.83737 9.45664 8.67476 10.3074 8.41361L9.58836 7.76811C8.93524 7.95043 8.24369 8.05883 7.50274 8.05883C3.88584 8.05883 0.960483 5.30932 0.960483 4.61455C0.960483 4.26963 1.97585 3.12153 3.59495 2.24938L2.91438 1.63837C1.08672 2.65343 0 4.01833 0 4.61455C0 5.61975 3.12294 8.83737 7.50274 8.83737ZM10.3183 5.69366C10.4885 5.36352 10.5818 4.99396 10.5818 4.61455C10.5818 3.07226 9.20966 1.85518 7.50274 1.85518C7.06916 1.85518 6.66301 1.93895 6.29528 2.08184L10.3183 5.69366ZM7.50274 7.37392C7.98573 7.37392 8.44127 7.26551 8.84742 7.08812L4.73106 3.39254C4.52799 3.75717 4.41273 4.17108 4.41273 4.61455C4.41822 6.11742 5.78485 7.37392 7.50274 7.37392Z" fill="#CFCFDD"/>
</svg>
