<svg width="24" height="25" viewBox="0 0 24 25" fill="none" xmlns="http://www.w3.org/2000/svg">
<path d="M11.9862 24.2825C13.6321 24.2825 15.176 23.9692 16.618 23.3425C18.0601 22.7234 19.3285 21.8628 20.4232 20.7605C21.5255 19.6657 22.3899 18.3974 23.0166 16.9553C23.6432 15.5133 23.9565 13.9693 23.9565 12.3235C23.9565 10.6851 23.6432 9.14496 23.0166 7.70293C22.3899 6.2609 21.5255 4.98874 20.4232 3.88645C19.3285 2.78417 18.0563 1.92348 16.6067 1.30439C15.1647 0.677749 13.6245 0.364428 11.9862 0.364428C10.3479 0.364428 8.8039 0.677749 7.35432 1.30439C5.91229 1.92348 4.64013 2.78417 3.53785 3.88645C2.44311 4.98874 1.58243 6.2609 0.955784 7.70293C0.336693 9.14496 0.027147 10.6851 0.027147 12.3235C0.027147 13.9693 0.336693 15.5133 0.955784 16.9553C1.58243 18.3974 2.44689 19.6657 3.54917 20.7605C4.65146 21.8628 5.92362 22.7234 7.36565 23.3425C8.80768 23.9692 10.3479 24.2825 11.9862 24.2825ZM7.75069 13.6711C7.35055 13.6711 7.01835 13.5503 6.7541 13.3087C6.49741 13.0596 6.36906 12.7387 6.36906 12.3461C6.36906 11.946 6.49741 11.6213 6.7541 11.3722C7.0108 11.123 7.343 10.9985 7.75069 10.9985H16.2556C16.6633 10.9985 16.9918 11.123 17.2409 11.3722C17.4976 11.6213 17.626 11.946 17.626 12.3461C17.626 12.7387 17.4938 13.0596 17.2296 13.3087C16.9729 13.5503 16.6482 13.6711 16.2556 13.6711H7.75069Z" fill="#C50707"/>
</svg>
