<svg width="25" height="24" viewBox="0 0 25 24" fill="none" xmlns="http://www.w3.org/2000/svg">
<path d="M19.9401 12.9994C19.7201 12.9994 19.4901 12.9294 19.2701 12.8794C18.8246 12.7812 18.3868 12.6509 17.9601 12.4894C17.4962 12.3206 16.9862 12.3294 16.5284 12.514C16.0706 12.6986 15.6972 13.046 15.4801 13.4894L15.2601 13.9394C14.2861 13.3976 13.3911 12.7246 12.6001 11.9394C11.8149 11.1484 11.1419 10.2534 10.6001 9.27938L11.0201 8.99938C11.4635 8.7823 11.8109 8.40891 11.9955 7.95107C12.1801 7.49323 12.1889 6.98329 12.0201 6.51938C11.8613 6.0918 11.731 5.65418 11.6301 5.20938C11.5801 4.98938 11.5401 4.75938 11.5101 4.52938C11.3887 3.825 11.0197 3.18712 10.4697 2.73062C9.91972 2.27412 9.2248 2.02899 8.5101 2.03938H5.5101C5.07913 2.03533 4.65235 2.12419 4.25881 2.29991C3.86527 2.47563 3.51421 2.73408 3.22953 3.05766C2.94485 3.38125 2.73324 3.76237 2.60909 4.17509C2.48494 4.58781 2.45118 5.02244 2.5101 5.44938C3.04284 9.63876 4.95613 13.5313 7.94775 16.512C10.9394 19.4928 14.8388 21.3919 19.0301 21.9094H19.4101C20.1475 21.9105 20.8595 21.6399 21.4101 21.1494C21.7265 20.8664 21.9792 20.5196 22.1516 20.1317C22.3239 19.7438 22.4121 19.3238 22.4101 18.8994V15.8994C22.3979 15.2048 22.1449 14.5359 21.6944 14.007C21.244 13.4782 20.6239 13.122 19.9401 12.9994ZM20.4401 18.9994C20.4399 19.1414 20.4095 19.2817 20.3509 19.411C20.2923 19.5403 20.2068 19.6557 20.1001 19.7494C19.9887 19.8464 19.8581 19.9188 19.7168 19.9619C19.5755 20.005 19.4267 20.0177 19.2801 19.9994C15.535 19.5192 12.0563 17.8059 9.39282 15.1297C6.7293 12.4535 5.03251 8.96672 4.5701 5.21938C4.55419 5.0729 4.56813 4.92471 4.6111 4.78377C4.65407 4.64283 4.72517 4.51207 4.8201 4.39938C4.91381 4.29271 5.02916 4.20722 5.15848 4.1486C5.2878 4.08997 5.42812 4.05956 5.5701 4.05938H8.5701C8.80265 4.05421 9.02972 4.13026 9.21224 4.27445C9.39476 4.41864 9.52131 4.62195 9.5701 4.84938C9.6101 5.12271 9.6601 5.39271 9.7201 5.65938C9.83562 6.18652 9.98936 6.70456 10.1801 7.20938L8.7801 7.85938C8.6604 7.9143 8.55272 7.99233 8.46326 8.08898C8.37379 8.18562 8.3043 8.29899 8.25877 8.42257C8.21324 8.54615 8.19257 8.67751 8.19795 8.8091C8.20332 8.94069 8.23464 9.06992 8.2901 9.18938C9.7293 12.2721 12.2073 14.7502 15.2901 16.1894C15.5336 16.2894 15.8066 16.2894 16.0501 16.1894C16.1748 16.1448 16.2894 16.0758 16.3873 15.9866C16.4851 15.8973 16.5643 15.7895 16.6201 15.6694L17.2401 14.2694C17.7571 14.4543 18.2847 14.6079 18.8201 14.7294C19.0868 14.7894 19.3568 14.8394 19.6301 14.8794C19.8575 14.9282 20.0608 15.0547 20.205 15.2372C20.3492 15.4198 20.4253 15.6468 20.4201 15.8794L20.4401 18.9994Z" fill="#282F86"/>
</svg>
