<svg width="20" height="22" viewBox="0 0 20 22" fill="none" xmlns="http://www.w3.org/2000/svg">
<path d="M15.0859 5.8125C16 5.8125 16.7422 5.0625 16.7422 4.14844C16.7422 3.23438 16 2.49219 15.0859 2.49219C14.1719 2.49219 13.4297 3.23438 13.4297 4.14844C13.4297 5.0625 14.1719 5.8125 15.0859 5.8125ZM5.54688 6.14844C6.46875 6.14844 7.21094 5.39844 7.21094 4.48438C7.21094 3.57031 6.46875 2.82812 5.54688 2.82812C4.63281 2.82812 3.89062 3.57031 3.89062 4.48438C3.89062 5.39844 4.63281 6.14844 5.54688 6.14844ZM0.976562 8.21094L2.61719 8.34375C2.72656 8.35156 2.79688 8.42188 2.79688 8.53906V11.5547C2.79688 12.1641 2.99219 12.7656 3.36719 13.2422L5.30469 15.7344L4.3125 19.0234C4.17969 19.4766 4.4375 19.9609 4.88281 20.0859C5.3125 20.2031 5.78906 20 5.9375 19.5078L7.03125 15.8359C7.05469 15.7734 7.0625 15.7188 7.0625 15.6562L10.0391 19.4219C10.3281 19.7812 10.875 19.8516 11.2188 19.5625C11.5859 19.2578 11.6562 18.7422 11.3672 18.375L5.99219 11.5703L6.23438 9.17188C6.25 9.01562 6.39062 8.94531 6.52344 9.01562L8.38281 9.94531C8.51562 10.0156 8.75 10.0703 8.9375 10.0703H11.9062C12.0938 10.0703 12.3047 9.99219 12.4453 9.86719L13.7969 8.70312C13.9219 8.59375 14.0703 8.64844 14.1172 8.78906L14.875 10.875L11.6797 11.7578C11.3359 11.8516 11.0859 12.1406 11.0469 12.4922L10.6953 16.1172C10.6406 16.6719 11.125 17.0391 11.5312 17.0391C11.9688 17.0391 12.3359 16.7188 12.375 16.2734L12.6719 13.3047L14.8516 12.9766L13.7969 15.0938C13.6719 15.3359 13.6094 15.6094 13.7109 15.8594L15.2031 19.5781C15.3906 20.0547 15.9062 20.2188 16.3047 20.0547C16.7344 19.8828 16.9453 19.3828 16.7734 18.9531L15.4531 15.6562L17.2734 13.0703C17.7422 12.4141 17.9141 11.5625 17.7734 10.7812L17.4922 9.21875C17.4531 9.03125 17.6016 8.91406 17.7812 8.97656L18.7031 9.28906C19.3672 9.51562 19.875 9.09375 19.8125 8.42969L19.4375 4.67969C19.3906 4.19531 18.9609 3.86719 18.5156 3.91406C18.0625 3.96094 17.7109 4.38281 17.7578 4.85156L18 7.27344L15.8047 6.53906C14.8828 6.23438 13.8906 6.40625 13.125 7.0625L11.5938 8.38281H9.03906L6.64062 7.1875C6.27344 7 5.90625 6.89844 5.5 6.86719L2.17188 6.60938L2.94531 4.29688C3.10156 3.84375 2.85156 3.35938 2.41406 3.21875C1.97656 3.07812 1.49219 3.3125 1.34375 3.75L0.226562 7.09375C0.046875 7.61719 0.421875 8.17188 0.976562 8.21094Z" fill="#FF7512"/>
</svg>
