<svg width="18" height="17" viewBox="0 0 18 17" fill="none" xmlns="http://www.w3.org/2000/svg">
<path d="M17.0917 15.4114L14 12.3448C15.2001 10.8484 15.7813 8.94918 15.624 7.03751C15.4668 5.12585 14.5831 3.34708 13.1546 2.06696C11.7262 0.786849 9.86152 0.102686 7.94411 0.155153C6.02671 0.20762 4.20228 0.992729 2.84596 2.34905C1.48965 3.70536 0.704538 5.52979 0.652071 7.4472C0.599604 9.3646 1.28377 11.2292 2.56388 12.6577C3.844 14.0862 5.62276 14.9699 7.53443 15.1271C9.44609 15.2843 11.3454 14.7032 12.8417 13.5031L15.9083 16.5698C15.9858 16.6479 16.078 16.7099 16.1795 16.7522C16.2811 16.7945 16.39 16.8163 16.5 16.8163C16.61 16.8163 16.7189 16.7945 16.8205 16.7522C16.922 16.7099 17.0142 16.6479 17.0917 16.5698C17.2419 16.4144 17.3258 16.2067 17.3258 15.9906C17.3258 15.7745 17.2419 15.5668 17.0917 15.4114ZM8.16668 13.5031C7.01295 13.5031 5.88514 13.161 4.92585 12.52C3.96657 11.879 3.21889 10.968 2.77738 9.90208C2.33587 8.83618 2.22035 7.66329 2.44543 6.53173C2.67051 5.40018 3.22608 4.36078 4.04189 3.54497C4.8577 2.72917 5.8971 2.17359 7.02865 1.94851C8.16021 1.72343 9.3331 1.83895 10.399 2.28046C11.4649 2.72197 12.3759 3.46965 13.0169 4.42893C13.6579 5.38822 14 6.51604 14 7.66976C14 9.21686 13.3854 10.7006 12.2915 11.7946C11.1975 12.8885 9.71378 13.5031 8.16668 13.5031Z" fill="#A3A3A3"/>
</svg>
