<svg width="40" height="40" viewBox="0 0 40 40" fill="none" xmlns="http://www.w3.org/2000/svg">
<rect width="40" height="40" rx="20" fill="#FFDECC"/>
<g clip-path="url(#clip0_240_9801)">
<path d="M16.6666 10.8333H26.6666C27.5833 10.8333 28.3333 11.5833 28.3333 12.5V24.1667H26.6666V12.5H16.6666V10.8333ZM14.1666 14.1667H23.3333C24.25 14.1667 25 14.9167 25 15.8333V27.5C25 28.4167 24.25 29.1667 23.3333 29.1667H14.1666C13.25 29.1667 12.5 28.4167 12.5 27.5V15.8333C12.5 14.9167 13.25 14.1667 14.1666 14.1667ZM14.1666 27.5H23.3333V15.8333H14.1666V27.5Z" fill="#FF7512"/>
</g>
<defs>
<clipPath id="clip0_240_9801">
<rect width="20" height="20" fill="white" transform="matrix(-1 0 0 1 30 10)"/>
</clipPath>
</defs>
</svg>
