<svg width="16" height="20" viewBox="0 0 16 20" fill="none" xmlns="http://www.w3.org/2000/svg">
<path d="M8 12.7188C8.44531 12.7188 8.79688 12.3594 8.79688 11.9375V4.17969L8.73438 3.02344L9.1875 3.60938L10.2109 4.70312C10.3516 4.85938 10.5469 4.9375 10.7422 4.9375C11.125 4.9375 11.4453 4.65625 11.4453 4.25781C11.4453 4.05469 11.3672 3.89844 11.2266 3.75781L8.61719 1.25C8.40625 1.04688 8.21094 0.96875 8 0.96875C7.78906 0.96875 7.58594 1.04688 7.38281 1.25L4.77344 3.75781C4.625 3.89844 4.54688 4.05469 4.54688 4.25781C4.54688 4.65625 4.86719 4.9375 5.25 4.9375C5.44531 4.9375 5.64844 4.85938 5.78125 4.70312L6.8125 3.60938L7.26562 3.02344L7.19531 4.17969V11.9375C7.19531 12.3594 7.55469 12.7188 8 12.7188ZM3.49219 19.0312H12.5078C14.2422 19.0312 15.1562 18.1172 15.1562 16.4062V8.79688C15.1562 7.08594 14.2422 6.17188 12.5078 6.17188H10.4375V7.91406H12.3594C13.0391 7.91406 13.4141 8.26562 13.4141 8.97656V16.2266C13.4141 16.9453 13.0391 17.2891 12.3594 17.2891H3.64062C2.95312 17.2891 2.58594 16.9453 2.58594 16.2266V8.97656C2.58594 8.26562 2.95312 7.91406 3.64062 7.91406H5.58594V6.17188H3.49219C1.76562 6.17188 0.84375 7.08594 0.84375 8.79688V16.4062C0.84375 18.125 1.76562 19.0312 3.49219 19.0312Z" fill="white"/>
</svg>
