<svg width="74" height="54" viewBox="0 0 74 54" fill="none" xmlns="http://www.w3.org/2000/svg">
<path d="M63.6663 13.6663H53.6663V0.333008H6.99967C3.33301 0.333008 0.333008 3.33301 0.333008 6.99967V43.6663H6.99967C6.99967 49.1997 11.4663 53.6663 16.9997 53.6663C22.533 53.6663 26.9997 49.1997 26.9997 43.6663H46.9997C46.9997 49.1997 51.4663 53.6663 56.9997 53.6663C62.533 53.6663 66.9997 49.1997 66.9997 43.6663H73.6663V26.9997L63.6663 13.6663ZM16.9997 48.6663C14.233 48.6663 11.9997 46.433 11.9997 43.6663C11.9997 40.8997 14.233 38.6663 16.9997 38.6663C19.7663 38.6663 21.9997 40.8997 21.9997 43.6663C21.9997 46.433 19.7663 48.6663 16.9997 48.6663ZM61.9997 18.6663L68.533 26.9997H53.6663V18.6663H61.9997ZM56.9997 48.6663C54.233 48.6663 51.9997 46.433 51.9997 43.6663C51.9997 40.8997 54.233 38.6663 56.9997 38.6663C59.7663 38.6663 61.9997 40.8997 61.9997 43.6663C61.9997 46.433 59.7663 48.6663 56.9997 48.6663Z" fill="white"/>
</svg>
