<svg width="80" height="80" viewBox="0 0 80 80" fill="none" xmlns="http://www.w3.org/2000/svg">
<rect width="80" height="80" rx="40" fill="#F34C33"/>
<path d="M55.8636 32.25H49.7273V24H21.0909C18.8409 24 17 25.8562 17 28.125V50.8125H21.0909C21.0909 54.2362 23.8318 57 27.2273 57C30.6227 57 33.3636 54.2362 33.3636 50.8125H45.6364C45.6364 54.2362 48.3773 57 51.7727 57C55.1682 57 57.9091 54.2362 57.9091 50.8125H62V40.5L55.8636 32.25ZM27.2273 53.9062C25.5295 53.9062 24.1591 52.5244 24.1591 50.8125C24.1591 49.1006 25.5295 47.7188 27.2273 47.7188C28.925 47.7188 30.2955 49.1006 30.2955 50.8125C30.2955 52.5244 28.925 53.9062 27.2273 53.9062ZM54.8409 35.3438L58.85 40.5H49.7273V35.3438H54.8409ZM51.7727 53.9062C50.075 53.9062 48.7045 52.5244 48.7045 50.8125C48.7045 49.1006 50.075 47.7188 51.7727 47.7188C53.4705 47.7188 54.8409 49.1006 54.8409 50.8125C54.8409 52.5244 53.4705 53.9062 51.7727 53.9062Z" fill="#FAFAFA"/>
</svg>
