<svg width="14" height="8" viewBox="0 0 14 8" fill="none" xmlns="http://www.w3.org/2000/svg">
<path d="M7.00256 8C11.1416 8 14 4.95216 14 4C14 3.04317 11.1365 0 7.00256 0C2.91987 0 0 3.04317 0 4C0 4.95216 2.91475 8 7.00256 8ZM7.00256 7.26254C3.62678 7.26254 0.896451 4.65811 0.896451 4C0.896451 3.44457 3.62678 0.737456 7.00256 0.737456C10.363 0.737456 13.1035 3.44457 13.1035 4C13.1035 4.65811 10.363 7.26254 7.00256 7.26254ZM7.00256 6.61377C8.59568 6.61377 9.87633 5.42357 9.87633 4C9.87633 2.53909 8.59568 1.38623 7.00256 1.38623C5.3992 1.38623 4.11343 2.53909 4.11855 4C4.1288 5.42357 5.3992 6.61377 7.00256 6.61377ZM7.00256 4.86814C6.46981 4.86814 6.03952 4.47608 6.03952 4C6.03952 3.51925 6.46981 3.13186 7.00256 3.13186C7.53019 3.13186 7.96048 3.51925 7.96048 4C7.96048 4.47608 7.53019 4.86814 7.00256 4.86814Z" fill="#CFCFDD"/>
</svg>
