<svg width="20" height="20" viewBox="0 0 20 20" fill="none" xmlns="http://www.w3.org/2000/svg">
<path d="M16.593 12.9243H12.818C12.597 12.9243 12.385 13.0121 12.2287 13.1684C12.0724 13.3247 11.9846 13.5367 11.9846 13.7577C11.9846 13.9787 12.0724 14.1907 12.2287 14.3469C12.385 14.5032 12.597 14.591 12.818 14.591H14.818C13.8988 15.5516 12.7133 16.2154 11.4139 16.4972C10.1146 16.7789 8.76064 16.6657 7.52612 16.1721C6.29159 15.6784 5.23286 14.8269 4.48596 13.727C3.73906 12.6271 3.33812 11.3289 3.33464 9.99935C3.33464 9.77834 3.24684 9.56637 3.09056 9.41009C2.93428 9.25381 2.72232 9.16602 2.5013 9.16602C2.28029 9.16602 2.06833 9.25381 1.91205 9.41009C1.75577 9.56637 1.66797 9.77834 1.66797 9.99935C1.67237 11.6267 2.15315 13.2171 3.05097 14.5744C3.94879 15.9316 5.22436 16.9963 6.72025 17.637C8.21615 18.2778 9.86691 18.4665 11.4688 18.1799C13.0707 17.8933 14.5537 17.144 15.7346 16.0243V17.4993C15.7346 17.7204 15.8224 17.9323 15.9787 18.0886C16.135 18.2449 16.347 18.3327 16.568 18.3327C16.789 18.3327 17.0009 18.2449 17.1572 18.0886C17.3135 17.9323 17.4013 17.7204 17.4013 17.4993V13.7493C17.3992 13.534 17.3139 13.3279 17.1632 13.1741C17.0126 13.0203 16.8082 12.9308 16.593 12.9243ZM10.0013 1.66602C7.86496 1.67211 5.81254 2.49844 4.26797 3.97435V2.49935C4.26797 2.27834 4.18017 2.06637 4.02389 1.91009C3.86761 1.75381 3.65565 1.66602 3.43464 1.66602C3.21362 1.66602 3.00166 1.75381 2.84538 1.91009C2.6891 2.06637 2.6013 2.27834 2.6013 2.49935V6.24935C2.6013 6.47036 2.6891 6.68232 2.84538 6.8386C3.00166 6.99488 3.21362 7.08268 3.43464 7.08268H7.18464C7.40565 7.08268 7.61761 6.99488 7.77389 6.8386C7.93017 6.68232 8.01797 6.47036 8.01797 6.24935C8.01797 6.02834 7.93017 5.81637 7.77389 5.66009C7.61761 5.50381 7.40565 5.41602 7.18464 5.41602H5.18464C6.10336 4.45591 7.28804 3.79227 8.58663 3.51027C9.88522 3.22828 11.2385 3.3408 12.4726 3.8334C13.7068 4.326 14.7656 5.17619 15.5132 6.27485C16.2607 7.37351 16.6628 8.6705 16.668 9.99935C16.668 10.2204 16.7558 10.4323 16.912 10.5886C17.0683 10.7449 17.2803 10.8327 17.5013 10.8327C17.7223 10.8327 17.9343 10.7449 18.0906 10.5886C18.2468 10.4323 18.3346 10.2204 18.3346 9.99935C18.3346 8.905 18.1191 7.82137 17.7003 6.81032C17.2815 5.79927 16.6677 4.88061 15.8939 4.10679C15.12 3.33297 14.2014 2.71914 13.1903 2.30035C12.1793 1.88156 11.0957 1.66602 10.0013 1.66602Z" fill="#FF7512"/>
</svg>
