<svg width="24" height="22" viewBox="0 0 24 22" fill="none" xmlns="http://www.w3.org/2000/svg">
<path d="M6.75 4.16406L2.8125 8.1875C2.64062 8.36719 2.53125 8.625 2.53125 8.85938C2.53125 9.39844 2.90625 9.76562 3.4375 9.76562C3.69531 9.76562 3.90625 9.67969 4.07812 9.50781L5.67969 7.84375L6.5625 6.8125L6.51562 8.38281V17.9453C6.51562 18.4766 6.89844 18.8672 7.42969 18.8672C7.96094 18.8672 8.34375 18.4766 8.34375 17.9453V8.38281L8.29688 6.8125L9.17969 7.84375L10.7812 9.50781C10.9531 9.67969 11.1641 9.76562 11.4219 9.76562C11.9531 9.76562 12.3281 9.39844 12.3281 8.85938C12.3281 8.625 12.2188 8.36719 12.0469 8.1875L8.10938 4.16406C7.73438 3.76562 7.13281 3.75781 6.75 4.16406ZM17.25 18.5703L21.1875 14.5312C21.3594 14.3594 21.4688 14.0938 21.4688 13.8672C21.4688 13.3281 21.0938 12.9531 20.5625 12.9531C20.3047 12.9531 20.0938 13.0391 19.9219 13.2188L18.3203 14.8828L17.4375 15.9062L17.4922 14.3359V4.78125C17.4922 4.25 17.1016 3.85938 16.5703 3.85938C16.0391 3.85938 15.6562 4.25 15.6562 4.78125V14.3359L15.7109 15.9062L14.8203 14.8828L13.2188 13.2188C13.0469 13.0391 12.8359 12.9531 12.5859 12.9531C12.0547 12.9531 11.6719 13.3281 11.6719 13.8672C11.6719 14.0938 11.7812 14.3594 11.9531 14.5312L15.8906 18.5703C16.2656 18.9688 16.8672 18.9766 17.25 18.5703Z" fill="#FF7512"/>
</svg>
