<svg width="24" height="50" viewBox="0 0 24 50" fill="none" xmlns="http://www.w3.org/2000/svg">
<path d="M14.39 24.0648L16 25.6748V24.0648H14.39ZM17 20.0648H13V21.9648H17C18.71 21.9648 20.1 23.3548 20.1 25.0648C20.1 26.3348 19.33 27.4348 18.23 27.9048L19.63 29.3048C21.05 28.4248 22 26.8548 22 25.0648C22 22.3048 19.76 20.0648 17 20.0648ZM2 17.3348L5.11 20.4448C3.29 21.1848 2 22.9748 2 25.0648C2 27.8248 4.24 30.0648 7 30.0648H11V28.1648H7C5.29 28.1648 3.9 26.7748 3.9 25.0648C3.9 23.4748 5.11 22.1648 6.66 21.9948L8.73 24.0648H8V26.0648H10.73L13 28.3348V30.0648H14.73L18.74 34.0748L20.15 32.6648L3.41 15.9248L2 17.3348Z" fill="#00A0CC"/>
</svg>
