<svg width="48" height="52" viewBox="0 0 48 52" fill="none" xmlns="http://www.w3.org/2000/svg">
<path d="M39.5 13.0833H38.5958C39.1854 11.8763 39.4945 10.5516 39.5 9.20833C39.5078 7.40859 38.9768 5.64769 37.9753 4.15231C36.9739 2.65692 35.5478 1.49549 33.8806 0.817503C32.2134 0.139519 30.3815 -0.0239825 28.6206 0.348044C26.8597 0.72007 25.2505 1.6106 24 2.90499C22.7495 1.6106 21.1403 0.72007 19.3794 0.348044C17.6185 -0.0239825 15.7866 0.139519 14.1194 0.817503C12.4522 1.49549 11.0261 2.65692 10.0247 4.15231C9.02318 5.64769 8.49218 7.40859 8.5 9.20833C8.50551 10.5516 8.8146 11.8763 9.40417 13.0833H8.5C6.44457 13.0833 4.47333 13.8998 3.01992 15.3533C1.56652 16.8067 0.75 18.7779 0.75 20.8333V26C0.75 26.6851 1.02217 27.3422 1.50664 27.8267C1.99111 28.3112 2.64819 28.5833 3.33333 28.5833H5.91667V44.0833C5.91667 46.1388 6.73318 48.11 8.18659 49.5634C9.64 51.0168 11.6112 51.8333 13.6667 51.8333H34.3333C36.3888 51.8333 38.36 51.0168 39.8134 49.5634C41.2668 48.11 42.0833 46.1388 42.0833 44.0833V28.5833H44.6667C45.3518 28.5833 46.0089 28.3112 46.4934 27.8267C46.9778 27.3422 47.25 26.6851 47.25 26V20.8333C47.25 18.7779 46.4335 16.8067 44.9801 15.3533C43.5267 13.8998 41.5554 13.0833 39.5 13.0833ZM21.4167 46.6667H13.6667C12.9815 46.6667 12.3244 46.3945 11.84 45.91C11.3555 45.4256 11.0833 44.7685 11.0833 44.0833V28.5833H21.4167V46.6667ZM21.4167 23.4167H5.91667V20.8333C5.91667 20.1482 6.18884 19.4911 6.67331 19.0066C7.15778 18.5222 7.81486 18.25 8.5 18.25H21.4167V23.4167ZM21.4167 13.0833H17.5417C16.7753 13.0833 16.0261 12.8561 15.3888 12.4303C14.7516 12.0045 14.2549 11.3993 13.9616 10.6912C13.6683 9.98316 13.5916 9.20403 13.7411 8.45235C13.8906 7.70068 14.2597 7.01022 14.8016 6.46829C15.3436 5.92636 16.034 5.5573 16.7857 5.40779C17.5374 5.25827 18.3165 5.33501 19.0246 5.6283C19.7326 5.92158 20.3378 6.41825 20.7636 7.05549C21.1894 7.69273 21.4167 8.44193 21.4167 9.20833V13.0833ZM26.5833 9.20833C26.5833 8.44193 26.8106 7.69273 27.2364 7.05549C27.6622 6.41825 28.2674 5.92158 28.9754 5.6283C29.6835 5.33501 30.4626 5.25827 31.2143 5.40779C31.966 5.5573 32.6564 5.92636 33.1984 6.46829C33.7403 7.01022 34.1094 7.70068 34.2589 8.45235C34.4084 9.20403 34.3317 9.98316 34.0384 10.6912C33.7451 11.3993 33.2484 12.0045 32.6112 12.4303C31.9739 12.8561 31.2247 13.0833 30.4583 13.0833H26.5833V9.20833ZM36.9167 44.0833C36.9167 44.7685 36.6445 45.4256 36.16 45.91C35.6756 46.3945 35.0185 46.6667 34.3333 46.6667H26.5833V28.5833H36.9167V44.0833ZM42.0833 23.4167H26.5833V18.25H39.5C40.1851 18.25 40.8422 18.5222 41.3267 19.0066C41.8112 19.4911 42.0833 20.1482 42.0833 20.8333V23.4167Z" fill="#FEB24F"/>
</svg>
