<svg width="99" height="99" viewBox="0 0 99 99" fill="none" xmlns="http://www.w3.org/2000/svg">
<g clip-path="url(#clip0_15564_14028)">
<path d="M0.402657 57.8332L9.08681 47.4121C9.16743 47.3155 9.27283 47.2569 9.36816 47.1822C9.4339 47.1304 9.47952 47.0616 9.55416 47.0185L66.8698 14.019C67.3251 13.756 67.8731 13.7137 68.3598 13.9028L90.9386 22.5869C91.1091 22.6525 91.246 22.7607 91.3817 22.8688C91.4212 22.9002 91.472 22.9149 91.509 22.9499C91.6845 23.1165 91.818 23.317 91.9106 23.5369C91.9146 23.5469 91.9243 23.5529 91.9284 23.563L98.8758 40.9313C99.1836 41.7022 98.9038 42.5824 98.2083 43.0337L33.9453 84.7177C33.9022 84.7458 33.8529 84.757 33.8078 84.7808C33.7601 84.8063 33.7146 84.826 33.6649 84.8467C33.4513 84.9362 33.2285 84.9977 32.9996 84.9977C32.7836 84.9977 32.5701 84.9453 32.3644 84.8639C32.3431 84.8556 32.3199 84.8595 32.299 84.8502C32.1714 84.7939 32.0542 84.7214 31.9458 84.639C31.9419 84.6359 31.9373 84.9283 31.9334 84.9252L31.9291 85.2148H31.9272L0.670265 60.6103C0.29805 60.321 0.0596313 59.6 0.009552 59.1318C-0.0407181 58.6635 0.100822 58.1946 0.402657 57.8332ZM67.8857 17.4426L13.6072 48.6939L29.5968 60.3227L86.4534 24.5843L67.8857 17.4426ZM34.2779 80.3621L95.1196 40.8965L89.4766 26.7873L31.4291 63.2734L34.2779 80.3621ZM30.5555 79.1594L27.9299 63.4057L10.7143 50.8853L4.22073 58.6772L30.5555 79.1594Z" fill="#F2D262"/>
<path d="M17.4844 47.46L53.813 26.2796L64.7748 37.6624L32.1192 58.3714L17.4844 47.46Z" fill="#1E1A25"/>
<path d="M34.1683 61.7124L67.1065 41.9095L70.5099 57.1655L38.0096 77.8959L34.1683 61.7124Z" fill="#1E1A25"/>
<path d="M3.5017 58.4978L11.0011 49.9994L28.6301 63.9989L30.6301 79.4989L3.5017 58.4978Z" fill="#1E1A25"/>
<path d="M34.3339 53.6707C32.1403 55.173 29.6088 54.3412 27.6761 51.5192C25.7476 48.7032 25.9115 46.052 28.093 44.558C30.2745 43.064 32.7955 43.8675 34.7241 46.6835C36.6526 49.4995 36.5275 52.1684 34.3339 53.6707ZM33.3324 52.2084C34.3718 51.4965 34.2346 49.9482 32.873 47.9601C31.5239 45.9901 30.1279 45.3127 29.0945 46.0204C28.0672 46.724 28.1863 48.2847 29.5313 50.2487C30.8887 52.2307 32.293 52.9202 33.3324 52.2084ZM38.2538 40.9638C39.2057 42.3537 39.0342 43.7494 37.8135 44.5854C36.5989 45.4173 35.2294 45.0768 34.2776 43.6869C33.3299 42.3031 33.5033 40.8972 34.7179 40.0653C35.9386 39.2293 37.3061 39.58 38.2538 40.9638ZM37.081 43.5158C37.4738 43.2468 37.4092 42.6341 36.8961 41.8848C36.3829 41.1355 35.8308 40.8478 35.438 41.1168C35.0452 41.3858 35.1139 42.0045 35.6271 42.7539C36.1402 43.5032 36.6882 43.7848 37.081 43.5158ZM41.1441 48.7227L39.6817 49.7242L39.8915 42.7717L40.073 36.6464L41.5293 35.649L41.3293 42.4084L41.1441 48.7227ZM46.9003 41.6379C47.8522 43.0278 47.6848 44.4296 46.4641 45.2656C45.2495 46.0974 43.8759 45.751 42.9241 44.3611C41.9763 42.9773 42.1498 41.5713 43.3644 40.7395C44.585 39.9035 45.9526 40.2541 46.9003 41.6379ZM45.7275 44.19C46.1203 43.921 46.0557 43.3082 45.5426 42.5589C45.0294 41.8096 44.4773 41.5219 44.0845 41.7909C43.6917 42.0599 43.7604 42.6787 44.2735 43.428C44.7867 44.1773 45.3347 44.459 45.7275 44.19Z" fill="#F2F2F2"/>
<path d="M78.7654 68V61.3237H78.6795L76.7083 62.7524V61.7319L78.7708 60.2495H79.7322V68H78.7654ZM85.0292 68V60.2495H85.996V64.0146H86.082L89.4765 60.2495H90.6904L87.5912 63.5957L90.975 68H89.7236L86.9252 64.2671L85.996 65.293V68H85.0292ZM94.9824 68.1826C92.8394 68.1826 91.4697 66.6035 91.4697 64.1274V64.1167C91.4697 61.6729 92.8608 60.0669 94.9824 60.0669C96.7012 60.0669 97.9097 61.0337 98.2158 62.5054L98.2266 62.5591H97.249L97.2329 62.5054C96.916 61.5063 96.1372 60.9585 94.9824 60.9585C93.4463 60.9585 92.458 62.1938 92.458 64.1167V64.1274C92.458 66.0771 93.4302 67.291 94.9878 67.291C96.3735 67.291 97.3081 66.4048 97.3081 65.0942V64.9062H95.1328V64.0576H98.2749V65.0029C98.2749 66.915 96.9644 68.1826 94.9824 68.1826Z" fill="#FAFAFA"/>
</g>
<defs>
<clipPath id="clip0_15564_14028">
<rect width="99" height="99" fill="white" transform="matrix(-1 0 0 1 99 0)"/>
</clipPath>
</defs>
</svg>
