<svg width="99" height="99" viewBox="0 0 99 99" fill="none" xmlns="http://www.w3.org/2000/svg">
<g clip-path="url(#clip0_6833_119843)">
<path d="M0.402654 57.8332L9.08681 47.4121C9.16744 47.3155 9.27283 47.2569 9.36816 47.1822C9.4339 47.1304 9.47952 47.0616 9.55416 47.0185L66.8698 14.019C67.3251 13.756 67.8731 13.7137 68.3598 13.9028L90.9386 22.5869C91.1091 22.6525 91.246 22.7607 91.3817 22.8688C91.4212 22.9002 91.472 22.9149 91.509 22.9499C91.6845 23.1165 91.818 23.317 91.9106 23.5369C91.9146 23.5469 91.9243 23.5529 91.9284 23.563L98.8758 40.9313C99.1836 41.7022 98.9038 42.5824 98.2083 43.0337L33.9453 84.7177C33.9022 84.7458 33.8529 84.757 33.8078 84.7808C33.7601 84.8063 33.7146 84.826 33.6649 84.8467C33.4513 84.9362 33.2285 84.9977 32.9996 84.9977H32.9992H32.9988C32.7828 84.9977 32.5701 84.9453 32.3644 84.8639C32.3431 84.8556 32.3199 84.8595 32.299 84.8502C32.1714 84.7939 32.0542 84.7214 31.9458 84.639C31.9419 84.6359 31.9373 84.9283 31.9334 84.9252L31.9291 85.2148C31.9286 85.2148 31.9278 85.2148 31.9272 85.2148L0.670268 60.6103C0.298051 60.321 0.0596326 59.6 0.00955254 59.1318C-0.0407209 58.6635 0.10082 58.1946 0.402654 57.8332ZM67.8857 17.4426L13.6072 48.6939L29.5968 60.3227L86.4534 24.5843L67.8857 17.4426ZM34.2779 80.3621L95.1196 40.8965L89.4766 26.7873L31.4291 63.2734L34.2779 80.3621ZM30.5555 79.1594L27.9299 63.4057L10.7143 50.8853L4.22073 58.6772L30.5555 79.1594Z" fill="#F2D262"/>
<path d="M12.8906 48.9062L68.9833 15.5603L87.1613 24.2446L29.1296 61.0838L12.8906 48.9062Z" fill="#F2D262"/>
<path d="M30.0336 62.9984L91.501 25.002L96.001 41.502L34 80.498L30.0336 62.9984Z" fill="#F2D262" fill-opacity="0.78"/>
<path d="M3.5017 58.4978L11.0011 49.9994L28.6301 63.9989L30.6301 79.4989L3.5017 58.4978Z" fill="#F2D262" fill-opacity="0.78"/>
</g>
<defs>
<clipPath id="clip0_6833_119843">
<rect width="99" height="99" fill="white" transform="matrix(-1 0 0 1 99 0)"/>
</clipPath>
</defs>
</svg>
