<svg xmlns="http://www.w3.org/2000/svg" width="140" height="133" viewBox="0 0 140 133" fill="none">
<g id="Illu 01">
<g id="Group">
<path id="Vector" d="M91.9246 95.1842C83.1327 108.845 56.7945 107.557 33.1007 92.3047C9.4038 77.0551 -2.67494 53.6151 6.117 39.9541C14.9089 26.293 44.2614 22.8966 67.9583 38.1493C91.6552 53.3989 100.72 81.5231 91.9278 95.1842H91.9246Z" fill="#EC5F48"/>
<path id="Vector_2" d="M97.4255 75.8207C95.3043 63.3346 84.4413 48.7587 67.954 38.1463C51.4668 27.5339 33.7043 23.6863 21.4563 26.9261L16.5684 23.7803L6.73625 39.0581C6.52006 39.3495 6.31013 39.6471 6.11274 39.9542C-2.67921 53.6152 9.40267 77.0521 33.0964 92.3048C56.4142 107.313 82.2918 108.801 91.488 95.8235L91.5037 95.8329L102.345 78.9884L97.4224 75.8207H97.4255Z" fill="#A61C06"/>
<path id="Vector_3" d="M101.725 79.9673C110.519 66.3073 98.4389 42.8693 74.7449 27.617C51.0508 12.3648 24.7146 11.074 15.9215 24.7341C7.12828 38.3941 19.2079 61.8322 42.9019 77.0844C66.596 92.3367 92.9322 93.6274 101.725 79.9673Z" fill="#EC5F48"/>
<path id="Vector_4" d="M67.953 38.1486C88.5104 51.3804 100.323 70.7722 97.3493 84.5961C99.082 83.3084 100.558 81.7637 101.72 79.9558C110.512 66.2947 98.4303 42.8579 74.7366 27.6052C51.0397 12.3556 24.7046 11.0646 15.9126 24.7257C14.747 26.5336 13.9543 28.5169 13.5 30.6256C24.8518 22.194 47.3957 24.9137 67.953 38.1455V38.1486Z" fill="#A61C06"/>
<path id="Vector_5" d="M38.0281 19.7256C38.3978 19.7256 38.777 19.7318 39.1498 19.7412C44.1756 19.8791 49.5648 20.9006 55.1639 22.7774C61.0513 24.7513 66.8667 27.5744 72.447 31.1651C77.9114 34.6838 82.8025 38.7132 86.9823 43.1436C90.9615 47.361 94.1167 51.7507 96.3633 56.1811C98.5158 60.4267 99.7065 64.4592 99.9038 68.1721C100.092 71.6689 99.368 74.7207 97.7544 77.243C97.7544 77.2461 97.7513 77.2492 97.7482 77.2524C97.745 77.2586 97.7388 77.2649 97.7356 77.2712C97.6385 77.4215 97.5351 77.5751 97.4286 77.7255L97.4223 77.7317C97.391 77.7725 97.3596 77.8132 97.3252 77.8633C97.2406 77.9793 97.156 78.0983 97.0745 78.2017L97.0651 78.2111C97.0338 78.2487 97.0056 78.2863 96.9711 78.3271C96.8614 78.4649 96.7737 78.5746 96.6985 78.6592L96.6922 78.6655C96.664 78.6968 96.639 78.7281 96.6077 78.7595C96.4949 78.891 96.3915 79.0038 96.3006 79.1041L96.2317 79.1793C96.1126 79.3046 95.9935 79.4268 95.8776 79.5396L95.84 79.5741C95.84 79.5741 95.8337 79.5804 95.8275 79.5866C95.6959 79.712 95.5643 79.8373 95.4295 79.9595L95.4013 79.9846C95.2635 80.1099 95.1162 80.2352 94.9658 80.3574C94.9595 80.3605 94.9533 80.3668 94.9501 80.3699C91.4221 83.2557 86.1582 84.7816 79.7287 84.7816C69.1477 84.7816 56.599 80.6112 45.3004 73.3389C36.0354 67.3763 28.2304 59.7155 23.3237 51.7632C18.7804 44.4032 16.96 37.2625 18.1945 31.6539C18.1945 31.6477 18.1945 31.6414 18.1977 31.6351C18.2415 31.4409 18.2885 31.2497 18.3387 31.0617C18.3387 31.0555 18.3418 31.0492 18.3449 31.0429C18.3951 30.8581 18.4483 30.6701 18.5047 30.4884C18.5047 30.4852 18.5047 30.479 18.5079 30.4758L18.5141 30.4539C18.5674 30.2816 18.6269 30.1061 18.6864 29.94L18.7115 29.8711C18.7648 29.7207 18.8274 29.564 18.8932 29.398C18.8932 29.3948 18.8964 29.3886 18.8995 29.3854L18.9308 29.304C18.9841 29.1755 19.0436 29.0345 19.1188 28.8747C19.1345 28.8371 19.1533 28.7995 19.169 28.7619V28.7557C19.2222 28.646 19.2849 28.5238 19.3664 28.364C19.3883 28.3201 19.4102 28.2794 19.4322 28.2355V28.2261C19.5011 28.1008 19.5763 27.9661 19.6452 27.8501C19.6703 27.8031 19.6985 27.7561 19.7236 27.7091C19.8207 27.5431 19.9178 27.3833 20.015 27.236C21.4093 25.0678 23.449 23.332 26.0716 22.0724C28.8226 20.7533 32.1438 19.9825 35.9445 19.7757C36.1826 19.7632 36.427 19.7506 36.6745 19.7444C37.1195 19.7287 37.5769 19.7224 38.0312 19.7224M38.0312 14.9192C37.5174 14.9192 37.0098 14.9285 36.5085 14.9442C36.2327 14.9536 35.957 14.9662 35.6844 14.9818C26.9395 15.4581 19.827 18.654 15.9762 24.6385C15.832 24.8641 15.6942 25.0897 15.5595 25.3216C15.5281 25.3749 15.4999 25.4281 15.4717 25.4814C15.3683 25.66 15.2681 25.8417 15.1741 26.0234C15.1459 26.0767 15.1208 26.1331 15.0926 26.1864C14.9986 26.3712 14.9046 26.5592 14.8169 26.7472C14.7949 26.7942 14.7761 26.8381 14.7542 26.8851C14.6633 27.0856 14.5725 27.2862 14.491 27.4898C14.4753 27.5243 14.4628 27.5588 14.4503 27.5932C14.3625 27.8094 14.2779 28.0287 14.1965 28.2512C14.1871 28.2731 14.1808 28.2982 14.1714 28.3201C14.0868 28.5551 14.0085 28.7901 13.9333 29.0314C13.9302 29.0439 13.927 29.0564 13.9239 29.0658C13.8456 29.3165 13.7735 29.5672 13.7077 29.821C13.7077 29.8241 13.7077 29.8304 13.7077 29.8335C13.6388 30.0936 13.5761 30.3568 13.5166 30.6199C10.4303 44.6225 22.1581 64.1459 42.7155 77.3777C55.2924 85.4709 68.6464 89.5849 79.7444 89.5849C87.1295 89.5849 93.5151 87.7645 98.0082 84.086C98.0082 84.086 98.0145 84.0829 98.0145 84.0797C98.2181 83.9137 98.4187 83.7413 98.6129 83.569C98.6223 83.5596 98.6317 83.5533 98.6411 83.5439C98.826 83.3779 99.0109 83.2056 99.1895 83.0332C99.2083 83.0176 99.2239 82.9988 99.2427 82.9831C99.4119 82.8202 99.5749 82.651 99.7346 82.4818C99.7597 82.4536 99.7879 82.4285 99.813 82.4003C99.9634 82.2405 100.108 82.0776 100.252 81.9115C100.286 81.8739 100.321 81.8363 100.355 81.7956C100.49 81.6389 100.618 81.4791 100.747 81.3162C100.784 81.2661 100.825 81.2191 100.866 81.1689C100.991 81.0091 101.11 80.8462 101.229 80.6833C101.267 80.63 101.308 80.5799 101.345 80.5266C101.499 80.3104 101.646 80.0942 101.79 79.8718C101.79 79.8718 101.79 79.8686 101.793 79.8655C110.726 65.9883 98.7571 42.3728 75.0633 27.1232C62.9595 19.3339 50.135 15.2325 39.2971 14.9348C38.8772 14.9223 38.4574 14.916 38.0438 14.916L38.0312 14.9192Z" fill="#EC5F48"/>
<path id="Vector_6" d="M78.5596 72.8467C82.6921 66.427 75.6172 54.5121 62.7574 46.2341C49.8977 37.9561 36.1227 36.4496 31.9903 42.8693C27.8578 49.289 34.9327 61.2038 47.7925 69.4819C60.6522 77.7599 74.4271 79.2663 78.5596 72.8467Z" fill="#A61C06"/>
<g id="Group_2">
<path id="Vector_7" d="M31.9922 42.8613L52.4618 58.5089L54.4608 54.2884L31.9922 42.8613Z" fill="#EC5F48"/>
<path id="Vector_8" d="M79.1429 71.7215L59.1151 57.2803L56.0664 60.5201L79.1429 71.7215Z" fill="#EC5F48"/>
</g>
<g id="Group_3">
<path id="Vector_9" d="M60.5071 44.8516L58.7055 58.4374L53.3633 54.9971L60.5071 44.8516Z" fill="#EC5F48"/>
<path id="Vector_10" d="M47.9258 71.4871L53.409 53.9346L59.1115 57.2809L47.9258 71.4871Z" fill="#EC5F48"/>
</g>
<g id="Group_4">
<path id="Vector_11" d="M21.3203 54.3601L53.2013 60.3635L51.1396 53.8525L21.3203 54.3601Z" fill="#EC5F48"/>
<path id="Vector_12" d="M85.4697 59.2854L58.5393 54.291L58.4453 60.9931L85.4697 59.2854Z" fill="#EC5F48"/>
</g>
<g id="Group_5">
<path id="Vector_13" d="M48.9883 33.2422L59.6163 55.8675L51.097 56.2623L48.9883 33.2422Z" fill="#EC5F48"/>
<path id="Vector_14" d="M60.5852 83.1235L51.0977 56.262L59.617 55.8672L60.5852 83.1235Z" fill="#EC5F48"/>
</g>
</g>
<g id="Group_6">
<path id="Vector_15" d="M19.9088 121.281C18.4237 121.281 9.92311 118.765 13.1065 115.083L10.8506 113.82L6.73971 116.95C6.60498 117.057 6.21332 117.433 6.11619 117.587C5.87179 117.975 5.7214 118.382 5.60233 118.787C4.39289 122.901 10.5686 124.674 16.3682 125.385L19.9057 121.281H19.9088Z" fill="#A61C06"/>
<path id="Vector_16" d="M48.1374 132.808C48.1374 132.808 53.3919 130.721 53.912 128.747C53.912 128.747 39.4677 114.735 29.2282 111.711C18.9886 108.688 12.4245 108.165 6.11719 117.586C6.11719 117.586 16.106 106.112 48.1374 132.808Z" fill="#EC5F48"/>
<path id="Vector_17" d="M19.9098 121.28L21.8117 119.128L27.2135 126.331L13.8125 129.646L16.3724 125.385" fill="#A61C06"/>
</g>
<g id="Group_7">
<path id="Vector_18" d="M126.195 23.4353C127.612 23.4353 135.727 25.8354 132.687 29.3509L134.843 30.5573L138.766 27.5713C138.894 27.4679 139.267 27.1107 139.361 26.9634C139.596 26.5905 139.737 26.202 139.853 25.8166C141.009 21.8906 135.113 20.1955 129.576 19.5156L126.198 23.4353H126.195Z" fill="#A61C06"/>
<path id="Vector_19" d="M99.2497 12.4346C99.2497 12.4346 94.2333 14.4273 93.7383 16.3104C93.7383 16.3104 107.528 29.6863 117.3 32.5721C127.073 35.4609 133.343 35.9591 139.362 26.9635C139.362 26.9635 129.827 37.9174 99.2497 12.4346Z" fill="#EC5F48"/>
<path id="Vector_20" d="M126.194 23.4357L124.38 25.4943L119.223 18.6167L132.013 15.4521L129.572 19.5191" fill="#A61C06"/>
</g>
</g>
</svg>