<svg width="350" height="418" viewBox="0 0 350 418" fill="none" xmlns="http://www.w3.org/2000/svg">
<path d="M249.67 131.117C246.653 130.434 243.693 130.468 240.892 131.117H133.571C121.628 131.117 111.938 140.806 111.938 152.75L134.596 179.324L151.287 176.386L131.135 152.761H235.119L268.775 191.814C271.508 186.884 273.33 180.838 273.831 174.052C275.333 153.706 264.517 134.487 249.67 131.128V131.117Z" fill="#FF523D"/>
<path d="M220.638 273.918C224.201 269.75 231.625 269.762 239.868 273.2V218.139C239.868 209.999 233.264 203.406 225.135 203.406H120.16C112.019 203.406 105.427 210.01 105.427 218.139V280.248C105.427 288.389 112.03 294.981 120.16 294.981H224.247C218.497 286.692 216.778 278.438 220.638 273.906V273.918ZM179.752 272.79H160.818C157.391 272.79 155.091 269.272 156.457 266.13L165.93 244.372C165.93 244.372 165.964 244.303 165.987 244.269C162.753 242.675 160.522 239.351 160.522 235.502C160.522 230.106 164.894 225.734 170.291 225.734C175.687 225.734 180.059 230.106 180.059 235.502C180.059 239.351 177.828 242.675 174.594 244.269C174.606 244.303 174.628 244.338 174.651 244.372L184.124 266.13C185.49 269.272 183.191 272.79 179.763 272.79H179.752Z" fill="#FF523D"/>
<path d="M252.437 278.596C255.238 280.475 257.754 282.547 259.952 284.688L264.404 281.443C269.982 277.378 274.411 267.757 274.298 259.947L273.364 200.377C273.296 196.221 271.952 193.409 269.869 192.316C268.035 191.36 265.644 191.713 263.037 193.603L254.373 199.91C248.794 203.975 244.365 213.596 244.479 221.406L245.31 274.532C247.689 275.648 250.08 277.002 252.437 278.585V278.596Z" fill="#FF523D"/>
<path d="M122.846 199.83C123.665 197.154 126.273 189.89 133.218 184.938C144.934 176.581 158.289 182.41 159.416 182.934C163.288 174.634 171.052 169.647 178.909 170.33C187.106 171.036 191.945 177.628 192.765 178.789C200.632 171.4 211.039 169.465 218.94 173.825C224.747 177.036 227.423 182.672 228.402 185.074C229.802 184.289 233.047 182.763 236.668 183.731C242.11 185.199 246.266 191.735 246.163 199.819" fill="white"/>
<path d="M96.9664 143.78C87.5392 153.093 76.7229 157.602 72.0093 154.391L74.2978 156.702H74.3092C78.7268 160.585 89.9302 156.144 99.6194 146.569C109.491 136.812 114.056 125.415 109.809 121.122L108.136 119.426C110.72 124.39 106.098 134.774 96.9664 143.791V143.78Z" fill="#FF523D"/>
<path d="M95.5851 142.537C105.459 132.776 110.023 121.383 105.779 117.09C101.535 112.797 90.0907 117.23 80.2168 126.99C70.3428 136.751 65.7787 148.144 70.0225 152.437C74.2664 156.73 85.7112 152.298 95.5851 142.537Z" fill="#FF523D"/>
<path d="M238.467 300.491C227.912 292.487 221.912 282.411 224.428 277.299L222.47 279.883H222.481C219.248 284.825 225.237 295.277 236.087 303.52C247.154 311.911 259.075 314.803 262.718 309.998L264.164 308.097C259.621 311.365 248.691 308.245 238.467 300.503V300.491Z" fill="#FF523D"/>
<path d="M266.251 305.291C269.898 300.481 263.886 289.781 252.822 281.392C241.759 273.004 229.834 270.103 226.186 274.913C222.539 279.724 228.551 290.423 239.615 298.812C250.678 307.2 262.604 310.101 266.251 305.291Z" fill="#FF523D"/>
<path d="M274.024 123.854C264.495 126.62 261.09 130.025 258.335 139.543C257.891 141.057 255.751 141.057 255.307 139.543C252.54 130.013 249.136 126.609 239.617 123.854C238.103 123.41 238.103 121.269 239.617 120.825C249.147 118.058 252.551 114.654 255.307 105.136C255.751 103.621 257.891 103.621 258.335 105.136C261.102 114.665 264.506 118.07 274.024 120.825C275.539 121.269 275.539 123.41 274.024 123.854Z" fill="#39FDDC"/>
<path d="M287.209 141.297C283.383 142.401 282.017 143.779 280.901 147.605C280.719 148.208 279.865 148.208 279.683 147.605C278.579 143.779 277.201 142.413 273.375 141.297C272.772 141.115 272.772 140.261 273.375 140.079C277.201 138.974 278.567 137.597 279.683 133.771C279.865 133.167 280.719 133.167 280.901 133.771C282.006 137.597 283.383 138.963 287.209 140.079C287.812 140.261 287.812 141.115 287.209 141.297Z" fill="#39FDDC"/>
<path d="M94.394 260.458C87.4146 262.485 84.9212 264.978 82.8946 271.958C82.5758 273.062 81.0046 273.062 80.6744 271.958C78.6478 264.978 76.1544 262.485 69.175 260.458C68.0706 260.139 68.0706 258.568 69.175 258.238C76.1544 256.211 78.6478 253.718 80.6744 246.738C80.9932 245.634 82.5644 245.634 82.8946 246.738C84.9212 253.718 87.4146 256.211 94.394 258.238C95.4984 258.557 95.4984 260.128 94.394 260.458Z" fill="#39FDDC"/>
</svg>
