<svg width="350" height="418" viewBox="0 0 350 418" fill="none" xmlns="http://www.w3.org/2000/svg">
<path d="M247.47 101.868C230.252 106.863 224.082 113.019 219.087 130.251C218.294 132.984 214.415 132.984 213.622 130.251C208.627 113.034 202.471 106.863 185.239 101.868C182.492 101.075 182.492 97.1967 185.239 96.3887C202.457 91.3937 208.627 85.2382 213.622 68.0057C214.415 65.2585 218.294 65.2585 219.087 68.0057C224.082 85.2235 230.237 91.3937 247.47 96.3887C250.202 97.182 250.202 101.06 247.47 101.868Z" fill="#39FDDC"/>
<path d="M290.808 293.748C280.172 296.833 276.367 300.638 273.282 311.274C272.797 312.964 270.402 312.964 269.903 311.274C266.818 300.638 263.013 296.833 252.377 293.748C250.673 293.263 250.673 290.868 252.377 290.369C263.013 287.284 266.818 283.479 269.903 272.843C270.388 271.138 272.782 271.138 273.282 272.843C276.367 283.479 280.172 287.284 290.808 290.369C292.498 290.854 292.498 293.248 290.808 293.748Z" fill="#39FDDC"/>
<path d="M95.6101 330.43C83.3725 333.985 78.9946 338.363 75.4394 350.6C74.8812 352.539 72.1191 352.539 71.5461 350.6C67.9909 338.363 63.613 333.985 51.3755 330.43C49.4216 329.871 49.4216 327.11 51.3755 326.537C63.613 322.981 67.9909 318.603 71.5461 306.366C72.1044 304.412 74.8665 304.412 75.4394 306.366C78.9946 318.603 83.3725 322.981 95.6101 326.537C97.5493 327.095 97.5493 329.857 95.6101 330.43Z" fill="#39FDDC"/>
<path d="M299.242 325.039C292.072 327.125 289.502 329.681 287.416 336.865C287.078 337.996 285.462 337.996 285.138 336.865C283.052 329.696 280.496 327.125 273.312 325.039C272.181 324.701 272.181 323.085 273.312 322.747C280.481 320.661 283.052 318.105 285.138 310.921C285.476 309.789 287.092 309.789 287.416 310.921C289.502 318.09 292.058 320.661 299.242 322.747C300.373 323.085 300.373 324.701 299.242 325.039Z" fill="#39FDDC"/>
<path d="M99.826 192.762L101.075 195.759C101.56 196.919 101.016 198.271 99.8554 198.756L59.896 215.753C58.1184 216.502 56.1645 215.21 56.1498 213.285L56.0762 204.103C56.0762 202.869 56.8991 201.782 58.1038 201.473L97.1377 191.41C98.2543 191.131 99.3999 191.704 99.8407 192.762" fill="white"/>
<path d="M96.4916 163.732L95.7865 166.421C95.4486 167.728 94.1851 168.566 92.8483 168.389L61.6153 164.158C59.8524 163.923 58.7066 162.175 59.1914 160.456L61.8064 151.216C62.2765 149.556 64.0687 148.659 65.67 149.291L94.8758 160.574C96.1392 161.059 96.8442 162.425 96.4916 163.747" fill="white"/>
<path d="M90.0861 104.91L115.384 131.398C116.118 132.162 116.206 133.337 115.619 134.204L113.797 136.907C113.092 137.965 111.652 138.214 110.624 137.48L80.6542 115.928C79.1998 114.885 78.9503 112.828 80.1108 111.462L85.5464 105.042C86.7217 103.661 88.8373 103.588 90.0861 104.91Z" fill="white"/>
<path d="M187.223 233.058C198.902 233.058 208.363 223.597 208.363 211.918C208.363 200.238 198.902 190.777 187.223 190.777C175.543 190.777 166.083 200.238 166.083 211.918C166.083 223.597 175.543 233.058 187.223 233.058Z" fill="#FF523D"/>
<path d="M146.339 151.304C138.685 160.485 123.788 190.763 137.877 247.147C129.415 286.607 129.37 314.961 150.555 333.119C170.285 350.028 205.528 334.529 202.708 309.158C200.504 289.34 200.401 275.942 213.99 264.057C236.541 244.327 251.673 220.292 261.912 196.405C270.374 176.675 253.45 159.766 239.361 185.122C226.742 207.834 211.17 258.415 171.71 244.327C149.027 236.232 151.348 186.077 163.248 168.213C180.157 142.842 160.427 134.38 146.339 151.304Z" fill="#FF523D"/>
</svg>
