<svg width="224" height="338" viewBox="0 0 224 338" fill="none" xmlns="http://www.w3.org/2000/svg">
<g filter="url(#filter0_ii_2645_199893)">
<rect width="224" height="338" rx="12" fill="url(#paint0_linear_2645_199893)"/>
<path d="M63.0285 177.258C66.2727 177.258 68.7541 175.335 69.3449 172.37L69.3664 172.263H67.4113L67.3791 172.359C66.7023 174.4 65.1984 175.475 63.0285 175.475C59.9455 175.475 57.9367 173.015 57.9367 169.244V169.233C57.9367 165.463 59.9348 163.024 63.0285 163.024C65.2092 163.024 66.7346 164.12 67.3361 166L67.4113 166.236H69.3664L69.3449 166.129C68.7541 163.196 66.2512 161.241 63.0285 161.241C58.7102 161.241 55.9494 164.356 55.9494 169.233V169.244C55.9494 174.121 58.7209 177.258 63.0285 177.258ZM76.0545 177H77.9881V170.866H81.6941L85.0135 177H87.2801L83.6922 170.565C85.6258 169.953 86.8074 168.288 86.8074 166.14V166.118C86.8074 163.325 84.8523 161.499 81.866 161.499H76.0545V177ZM77.9881 169.158V163.218H81.6082C83.5955 163.218 84.8094 164.313 84.8094 166.161V166.183C84.8094 168.084 83.6814 169.158 81.6941 169.158H77.9881ZM100.199 177.258C104.592 177.258 107.331 174.175 107.331 169.255V169.233C107.331 164.324 104.581 161.241 100.199 161.241C95.8051 161.241 93.0443 164.324 93.0443 169.233V169.255C93.0443 174.175 95.7943 177.258 100.199 177.258ZM100.199 175.475C97.0189 175.475 95.0209 173.068 95.0209 169.255V169.233C95.0209 165.42 97.0297 163.024 100.199 163.024C103.357 163.024 105.355 165.431 105.355 169.233V169.255C105.355 173.036 103.389 175.475 100.199 175.475ZM112.473 177H114.503L116.071 172.563H122.312L123.881 177H125.911L120.153 161.499H118.241L112.473 177ZM119.176 163.819H119.219L121.732 170.92H116.662L119.176 163.819ZM133.867 177H135.8V163.239H140.688V161.499H128.979V163.239H133.867V177ZM147.129 177H149.063V161.499H147.129V177ZM155.235 177H157.265L158.834 172.563H165.075L166.643 177H168.674L162.916 161.499H161.004L155.235 177ZM161.938 163.819H161.981L164.495 170.92H159.425L161.938 163.819Z" fill="white"/>
<path d="M170.216 313.835H165.518L168.456 295.664H173.154L170.216 313.835Z" fill="white"/>
<path d="M187.249 296.106C186.322 295.738 184.852 295.332 183.035 295.332C178.395 295.332 175.127 297.806 175.107 301.344C175.069 303.953 177.447 305.403 179.225 306.273C181.043 307.162 181.661 307.743 181.661 308.535C181.642 309.753 180.192 310.314 178.839 310.314C176.963 310.314 175.958 310.025 174.431 309.347L173.812 309.057L173.155 313.136C174.257 313.638 176.287 314.084 178.395 314.103C183.325 314.103 186.534 311.667 186.572 307.898C186.591 305.829 185.335 304.244 182.628 302.949C180.985 302.117 179.979 301.557 179.979 300.706C179.998 299.933 180.83 299.141 182.685 299.141C184.212 299.102 185.335 299.469 186.185 299.836L186.61 300.029L187.249 296.106V296.106Z" fill="white"/>
<path d="M193.494 307.398C193.881 306.354 195.37 302.314 195.37 302.314C195.35 302.352 195.756 301.25 195.988 300.574L196.316 302.14C196.316 302.14 197.206 306.489 197.399 307.398C196.665 307.398 194.422 307.398 193.494 307.398ZM199.293 295.664H195.659C194.538 295.664 193.687 295.992 193.203 297.172L186.225 313.835H191.154C191.154 313.835 191.966 311.592 192.141 311.109C192.681 311.109 197.477 311.109 198.173 311.109C198.308 311.747 198.734 313.835 198.734 313.835H203.084L199.293 295.664V295.664Z" fill="white"/>
<path d="M161.595 295.664L156.993 308.055L156.49 305.542C155.64 302.642 152.972 299.492 149.995 297.925L154.209 313.816H159.178L166.563 295.664H161.595V295.664Z" fill="white"/>
<path d="M152.72 295.664H145.161L145.083 296.031C150.98 297.539 154.885 301.174 156.49 305.543L154.846 297.191C154.576 296.031 153.744 295.702 152.72 295.664Z" fill="white"/>
</g>
<defs>
<filter id="filter0_ii_2645_199893" x="0" y="-0.5" width="224" height="339" filterUnits="userSpaceOnUse" color-interpolation-filters="sRGB">
<feFlood flood-opacity="0" result="BackgroundImageFix"/>
<feBlend mode="normal" in="SourceGraphic" in2="BackgroundImageFix" result="shape"/>
<feColorMatrix in="SourceAlpha" type="matrix" values="0 0 0 0 0 0 0 0 0 0 0 0 0 0 0 0 0 0 127 0" result="hardAlpha"/>
<feOffset dy="1"/>
<feGaussianBlur stdDeviation="0.25"/>
<feComposite in2="hardAlpha" operator="arithmetic" k2="-1" k3="1"/>
<feColorMatrix type="matrix" values="0 0 0 0 1 0 0 0 0 1 0 0 0 0 1 0 0 0 0.25 0"/>
<feBlend mode="normal" in2="shape" result="effect1_innerShadow_2645_199893"/>
<feColorMatrix in="SourceAlpha" type="matrix" values="0 0 0 0 0 0 0 0 0 0 0 0 0 0 0 0 0 0 127 0" result="hardAlpha"/>
<feOffset dy="-1"/>
<feGaussianBlur stdDeviation="0.25"/>
<feComposite in2="hardAlpha" operator="arithmetic" k2="-1" k3="1"/>
<feColorMatrix type="matrix" values="0 0 0 0 0 0 0 0 0 0 0 0 0 0 0 0 0 0 0.25 0"/>
<feBlend mode="normal" in2="effect1_innerShadow_2645_199893" result="effect2_innerShadow_2645_199893"/>
</filter>
<linearGradient id="paint0_linear_2645_199893" x1="112" y1="0" x2="112" y2="338" gradientUnits="userSpaceOnUse">
<stop stop-color="#345EB6"/>
<stop offset="1" stop-color="#08082D"/>
</linearGradient>
</defs>
</svg>
