<svg width="224" height="338" viewBox="0 0 224 338" fill="none" xmlns="http://www.w3.org/2000/svg">
<g filter="url(#filter0_ii_2645_199886)">
<rect width="224" height="338" rx="12" fill="url(#paint0_linear_2645_199886)"/>
<path d="M63.0285 177.258C66.2727 177.258 68.7541 175.335 69.3449 172.37L69.3664 172.263H67.4113L67.3791 172.359C66.7023 174.4 65.1984 175.475 63.0285 175.475C59.9455 175.475 57.9367 173.015 57.9367 169.244V169.233C57.9367 165.463 59.9348 163.024 63.0285 163.024C65.2092 163.024 66.7346 164.12 67.3361 166L67.4113 166.236H69.3664L69.3449 166.129C68.7541 163.196 66.2512 161.241 63.0285 161.241C58.7102 161.241 55.9494 164.356 55.9494 169.233V169.244C55.9494 174.121 58.7209 177.258 63.0285 177.258ZM76.0545 177H77.9881V170.866H81.6941L85.0135 177H87.2801L83.6922 170.565C85.6258 169.953 86.8074 168.288 86.8074 166.14V166.118C86.8074 163.325 84.8523 161.499 81.866 161.499H76.0545V177ZM77.9881 169.158V163.218H81.6082C83.5955 163.218 84.8094 164.313 84.8094 166.161V166.183C84.8094 168.084 83.6814 169.158 81.6941 169.158H77.9881ZM100.199 177.258C104.592 177.258 107.331 174.175 107.331 169.255V169.233C107.331 164.324 104.581 161.241 100.199 161.241C95.8051 161.241 93.0443 164.324 93.0443 169.233V169.255C93.0443 174.175 95.7943 177.258 100.199 177.258ZM100.199 175.475C97.0189 175.475 95.0209 173.068 95.0209 169.255V169.233C95.0209 165.42 97.0297 163.024 100.199 163.024C103.357 163.024 105.355 165.431 105.355 169.233V169.255C105.355 173.036 103.389 175.475 100.199 175.475ZM112.473 177H114.503L116.071 172.563H122.312L123.881 177H125.911L120.153 161.499H118.241L112.473 177ZM119.176 163.819H119.219L121.732 170.92H116.662L119.176 163.819ZM133.867 177H135.8V163.239H140.688V161.499H128.979V163.239H133.867V177ZM147.129 177H149.063V161.499H147.129V177ZM155.235 177H157.265L158.834 172.563H165.075L166.643 177H168.674L162.916 161.499H161.004L155.235 177ZM161.938 163.819H161.981L164.495 170.92H159.425L161.938 163.819Z" fill="white" fill-opacity="0.3"/>
<g filter="url(#filter1_b_2645_199886)">
<rect x="52" y="231" width="120" height="37" rx="18.5" fill="black" fill-opacity="0.08"/>
<path d="M74.4437 255.273C76.9594 255.273 78.7953 253.836 79.1234 251.672V251.625H77.3891L77.3734 251.656C77.0531 252.93 75.9359 253.727 74.4437 253.727C72.4125 253.727 71.1469 252.047 71.1469 249.375V249.359C71.1469 246.68 72.4125 245 74.4359 245C75.9203 245 77.0531 245.898 77.3812 247.281V247.305H79.1156L79.1234 247.266C78.8266 245.023 76.9203 243.453 74.4359 243.453C71.3031 243.453 69.3578 245.719 69.3578 249.359V249.375C69.3578 253.008 71.3109 255.273 74.4437 255.273ZM83.2409 255.141C84.3659 255.141 85.2566 254.656 85.7566 253.797H85.8894V255H87.5691V249.195C87.5691 247.414 86.3659 246.352 84.2331 246.352C82.3034 246.352 80.9675 247.281 80.7644 248.672L80.7566 248.727H82.3894L82.3972 248.695C82.6003 248.094 83.2175 247.75 84.155 247.75C85.3034 247.75 85.8894 248.266 85.8894 249.195V249.945L83.5925 250.078C81.5691 250.203 80.4284 251.086 80.4284 252.602V252.617C80.4284 254.156 81.6237 255.141 83.2409 255.141ZM82.1159 252.547V252.531C82.1159 251.766 82.6472 251.344 83.8191 251.273L85.8894 251.141V251.867C85.8894 252.961 84.9597 253.789 83.6941 253.789C82.78 253.789 82.1159 253.328 82.1159 252.547ZM89.6397 255H91.335V249.93C91.335 248.703 92.2178 247.906 93.5147 247.906C93.835 247.906 94.1241 247.945 94.4287 248.008V246.445C94.2569 246.406 93.96 246.367 93.6866 246.367C92.5537 246.367 91.7647 246.898 91.46 247.797H91.335V246.516H89.6397V255ZM98.6009 255.141C99.7884 255.141 100.718 254.594 101.21 253.664H101.343V255H103.031V243.188H101.343V247.859H101.21C100.757 246.945 99.765 246.367 98.6009 246.367C96.4447 246.367 95.0853 248.062 95.0853 250.75V250.766C95.0853 253.43 96.4681 255.141 98.6009 255.141ZM99.0853 253.695C97.6634 253.695 96.8119 252.586 96.8119 250.766V250.75C96.8119 248.93 97.6634 247.82 99.0853 247.82C100.492 247.82 101.367 248.938 101.367 250.75V250.766C101.367 252.578 100.499 253.695 99.0853 253.695ZM109.891 255H111.578V247.852H113.445V246.516H111.562V245.703C111.562 244.844 111.93 244.391 112.867 244.391C113.133 244.391 113.359 244.406 113.516 244.43V243.188C113.227 243.141 112.898 243.109 112.516 243.109C110.75 243.109 109.891 243.938 109.891 245.625V246.516H108.492V247.852H109.891V255ZM115.032 255H116.727V249.93C116.727 248.703 117.61 247.906 118.907 247.906C119.227 247.906 119.516 247.945 119.821 248.008V246.445C119.649 246.406 119.352 246.367 119.078 246.367C117.946 246.367 117.157 246.898 116.852 247.797H116.727V246.516H115.032V255ZM124.493 255.164C126.977 255.164 128.501 253.5 128.501 250.766V250.75C128.501 248.016 126.969 246.352 124.493 246.352C122.008 246.352 120.477 248.023 120.477 250.75V250.766C120.477 253.5 122.001 255.164 124.493 255.164ZM124.493 253.75C123.032 253.75 122.212 252.648 122.212 250.766V250.75C122.212 248.867 123.032 247.766 124.493 247.766C125.946 247.766 126.774 248.867 126.774 250.75V250.766C126.774 252.641 125.946 253.75 124.493 253.75ZM129.79 255H136.524V253.664H131.892V253.531L136.477 247.68V246.516H129.821V247.852H134.477V247.984L129.79 253.898V255ZM141.79 255.164C143.962 255.164 145.134 253.914 145.415 252.797L145.431 252.727L143.798 252.734L143.767 252.797C143.564 253.234 142.915 253.773 141.829 253.773C140.431 253.773 139.54 252.828 139.509 251.203H145.525V250.609C145.525 248.062 144.072 246.352 141.704 246.352C139.337 246.352 137.806 248.125 137.806 250.773V250.781C137.806 253.469 139.306 255.164 141.79 255.164ZM141.712 247.742C142.861 247.742 143.712 248.477 143.845 249.992H139.533C139.681 248.531 140.556 247.742 141.712 247.742ZM147.22 255H148.916V250.023C148.916 248.656 149.689 247.805 150.931 247.805C152.173 247.805 152.759 248.5 152.759 249.906V255H154.447V249.508C154.447 247.484 153.4 246.352 151.502 246.352C150.267 246.352 149.455 246.898 149.041 247.805H148.916V246.516H147.22V255Z" fill="white"/>
</g>
</g>
<defs>
<filter id="filter0_ii_2645_199886" x="0" y="-0.5" width="224" height="339" filterUnits="userSpaceOnUse" color-interpolation-filters="sRGB">
<feFlood flood-opacity="0" result="BackgroundImageFix"/>
<feBlend mode="normal" in="SourceGraphic" in2="BackgroundImageFix" result="shape"/>
<feColorMatrix in="SourceAlpha" type="matrix" values="0 0 0 0 0 0 0 0 0 0 0 0 0 0 0 0 0 0 127 0" result="hardAlpha"/>
<feOffset dy="1"/>
<feGaussianBlur stdDeviation="0.25"/>
<feComposite in2="hardAlpha" operator="arithmetic" k2="-1" k3="1"/>
<feColorMatrix type="matrix" values="0 0 0 0 1 0 0 0 0 1 0 0 0 0 1 0 0 0 0.25 0"/>
<feBlend mode="normal" in2="shape" result="effect1_innerShadow_2645_199886"/>
<feColorMatrix in="SourceAlpha" type="matrix" values="0 0 0 0 0 0 0 0 0 0 0 0 0 0 0 0 0 0 127 0" result="hardAlpha"/>
<feOffset dy="-1"/>
<feGaussianBlur stdDeviation="0.25"/>
<feComposite in2="hardAlpha" operator="arithmetic" k2="-1" k3="1"/>
<feColorMatrix type="matrix" values="0 0 0 0 0 0 0 0 0 0 0 0 0 0 0 0 0 0 0.25 0"/>
<feBlend mode="normal" in2="effect1_innerShadow_2645_199886" result="effect2_innerShadow_2645_199886"/>
</filter>
<filter id="filter1_b_2645_199886" x="12" y="191" width="200" height="117" filterUnits="userSpaceOnUse" color-interpolation-filters="sRGB">
<feFlood flood-opacity="0" result="BackgroundImageFix"/>
<feGaussianBlur in="BackgroundImageFix" stdDeviation="20"/>
<feComposite in2="SourceAlpha" operator="in" result="effect1_backgroundBlur_2645_199886"/>
<feBlend mode="normal" in="SourceGraphic" in2="effect1_backgroundBlur_2645_199886" result="shape"/>
</filter>
<linearGradient id="paint0_linear_2645_199886" x1="112" y1="0" x2="112" y2="338" gradientUnits="userSpaceOnUse">
<stop stop-color="#5890E4"/>
<stop offset="1" stop-color="#DDEBFF"/>
</linearGradient>
</defs>
</svg>
