<svg width="20" height="20" viewBox="0 0 20 20" fill="none" xmlns="http://www.w3.org/2000/svg">
<path d="M15.8952 15.75H6.93685C6.40907 15.75 5.96129 15.5658 5.59352 15.1975C5.22518 14.8297 5.04102 14.3819 5.04102 13.8542V2.58333C5.04102 2.05556 5.22518 1.6075 5.59352 1.23917C5.96129 0.871389 6.40907 0.6875 6.93685 0.6875H11.916C12.166 0.6875 12.4057 0.7325 12.6352 0.8225C12.8641 0.913056 13.0688 1.04861 13.2493 1.22917L17.2494 5.22917C17.416 5.39583 17.548 5.59722 17.6452 5.83333C17.7424 6.06944 17.791 6.3125 17.791 6.5625V13.8542C17.791 14.3819 17.6071 14.8297 17.2393 15.1975C16.871 15.5658 16.423 15.75 15.8952 15.75ZM11.7285 2.58333H6.93685V13.8542H15.8952V6.75H12.6869C12.423 6.75 12.1974 6.65639 12.0102 6.46917C11.8224 6.28139 11.7285 6.05556 11.7285 5.79167V2.58333ZM3.37435 19.3125C2.84657 19.3125 2.39879 19.1286 2.03102 18.7608C1.66268 18.3925 1.47852 17.9444 1.47852 17.4167V6.77083C1.47852 6.50694 1.56879 6.28111 1.74935 6.09333C1.9299 5.90611 2.15213 5.8125 2.41602 5.8125C2.69379 5.8125 2.92296 5.90611 3.10352 6.09333C3.28407 6.28111 3.37435 6.50694 3.37435 6.77083V17.4167H11.6452C11.9091 17.4167 12.1313 17.5103 12.3118 17.6975C12.4924 17.8853 12.5827 18.1111 12.5827 18.375C12.5827 18.6389 12.4924 18.8611 12.3118 19.0417C12.1313 19.2222 11.9091 19.3125 11.6452 19.3125H3.37435Z" fill="#FFD8D4"/>
</svg>
