<svg xmlns="http://www.w3.org/2000/svg" width="202" height="205" viewBox="0 0 202 205" fill="none">
  <path opacity="0.16" d="M149.773 11.925V4.47446C149.773 -1.81425 143.588 -6.20344 137.714 -4.09184L5.99413 43.2302C-1.25197 45.8306 -2.14859 55.7984 4.51197 59.6713L36.0765 78.0671C42.0874 81.5711 42.0874 90.3218 36.0765 93.8258L11.7215 107.998C6.12222 111.253 5.63732 119.22 10.8066 123.148L135.317 217.627C141.264 222.136 149.773 217.866 149.773 210.361V160.162C149.773 153.163 157.293 148.783 163.313 152.287L189.58 167.566C195.024 170.729 201.923 167.465 202.993 161.231L230.861 -2.33985C232.16 -9.93794 224.073 -15.6181 217.449 -11.7545L163.313 19.7997C157.293 23.3037 149.773 18.933 149.773 11.925ZM136.095 136.187L63.4049 93.8258C57.3939 90.3218 57.3939 81.5803 63.4049 78.0763L136.095 35.7336C142.115 32.2296 149.635 36.6096 149.635 43.6083V128.321C149.635 135.329 142.106 139.7 136.086 136.196L136.095 136.187Z" fill="#FFF"/>
</svg>