<svg width="326" height="205" viewBox="0 0 326 205" fill="none" xmlns="http://www.w3.org/2000/svg">
<g clip-path="url(#clip0_6430_51534)">
<path fill-rule="evenodd" clip-rule="evenodd" d="M325.991 104.491V10.9445C325.809 4.86522 320.746 0 314.508 0H12.9489C5.76419 0.17854 0 5.96325 0 13.0692C0 13.3013 0 13.5334 0.0182123 13.7655V94.2157H0V194.055C0.182123 200.135 5.24514 205 11.4828 205H313.051C320.236 204.821 326 199.037 326 191.931C326 191.699 326 191.467 325.982 191.235V104.5H326L325.991 104.491Z" fill="#FF523D"/>
<path d="M274.681 164.303L268.067 180.589H263.748L260.495 167.588C260.298 166.785 260.125 166.495 259.526 166.159C258.544 165.606 256.923 165.093 255.501 164.777L255.597 164.303H262.543C263.43 164.303 264.227 164.908 264.425 165.962L266.147 175.389L270.395 164.303H274.688H274.681ZM291.591 175.27C291.61 170.971 285.831 170.735 285.869 168.812C285.882 168.226 286.418 167.608 287.598 167.45C288.185 167.371 289.792 167.311 291.623 168.18L292.337 164.724C291.355 164.355 290.092 164 288.516 164C284.485 164 281.64 166.212 281.615 169.385C281.589 171.729 283.643 173.039 285.187 173.815C286.775 174.612 287.311 175.125 287.304 175.836C287.292 176.929 286.035 177.41 284.861 177.43C282.808 177.462 281.615 176.857 280.664 176.403L279.924 179.971C280.881 180.425 282.635 180.813 284.466 180.833C288.752 180.833 291.559 178.647 291.572 175.257M302.224 180.576H306L302.702 164.29H299.213C298.429 164.29 297.772 164.757 297.478 165.481L291.355 180.576H295.641L296.496 178.147H301.733L302.224 180.576ZM297.67 174.803L299.819 168.687L301.057 174.803H297.67ZM280.492 164.283L277.118 180.57H273.036L276.41 164.283H280.492Z" fill="#FAFAFA"/>
</g>
<defs>
<clipPath id="clip0_6430_51534">
<rect width="326" height="205" fill="white"/>
</clipPath>
</defs>
</svg>
