<svg xmlns="http://www.w3.org/2000/svg" width="302" height="192" viewBox="0 0 302 192" fill="none">
<rect width="302" height="192" rx="16" fill="#2C2636"/>
<path d="M260.5 162.97L255.12 175.81H251.61L248.96 165.56C248.8 164.93 248.66 164.7 248.17 164.43C247.37 164 246.05 163.59 244.89 163.34L244.97 162.97H250.62C251.34 162.97 251.99 163.45 252.15 164.28L253.55 171.71L257.01 162.97H260.5ZM274.26 171.62C274.27 168.23 269.57 168.04 269.61 166.53C269.61 166.07 270.06 165.58 271.02 165.45C271.5 165.39 272.81 165.34 274.3 166.02L274.88 163.3C274.08 163.01 273.05 162.73 271.77 162.73C268.49 162.73 266.18 164.48 266.16 166.97C266.14 168.82 267.81 169.85 269.07 170.46C270.36 171.09 270.8 171.49 270.79 172.06C270.79 172.92 269.76 173.3 268.8 173.32C267.13 173.35 266.16 172.87 265.39 172.51L264.79 175.32C265.57 175.68 267 175.99 268.48 176C271.97 176 274.25 174.28 274.26 171.61M282.93 175.8H286L283.31 162.97H280.47C279.83 162.97 279.29 163.34 279.06 163.91L274.08 175.81H277.57L278.26 173.89H282.52L282.92 175.81L282.93 175.8ZM279.22 171.25L280.97 166.43L281.98 171.25H279.23H279.22ZM265.24 162.97L262.49 175.81H259.17L261.92 162.97H265.24Z" fill="#605E6E"/>
</svg>
