<svg width="326" height="205" viewBox="0 0 326 205" fill="none" xmlns="http://www.w3.org/2000/svg">
<g clip-path="url(#clip0_31477_73457)">
<path fill-rule="evenodd" clip-rule="evenodd" d="M325.991 104.491V10.9445C325.809 4.86522 320.746 0 314.508 0H12.9489C5.76419 0.17854 0 5.96325 0 13.0692C0 13.3013 0 13.5334 0.0182123 13.7655V94.2157H0V194.055C0.182123 200.135 5.24514 205 11.4828 205H313.051C320.236 204.821 326 199.037 326 191.931C326 191.699 326 191.467 325.982 191.235V104.5H326L325.991 104.491Z" fill="#BF0000"/>
<path d="M275.611 167.288L269.193 182.768H265.003L261.846 170.41C261.654 169.647 261.487 169.372 260.905 169.052C259.952 168.527 258.38 168.039 257 167.738L257.093 167.288H263.833C264.693 167.288 265.467 167.864 265.659 168.865L267.33 177.825L271.452 167.288H275.617H275.611ZM292.019 177.713C292.037 173.627 286.43 173.401 286.467 171.574C286.479 171.017 286.999 170.429 288.144 170.279C288.714 170.204 290.273 170.147 292.05 170.973L292.743 167.688C291.79 167.338 290.564 167 289.035 167C285.124 167 282.363 169.102 282.339 172.118C282.314 174.346 284.307 175.591 285.805 176.33C287.346 177.087 287.866 177.575 287.859 178.251C287.847 179.289 286.628 179.746 285.489 179.765C283.496 179.796 282.339 179.221 281.416 178.789L280.698 182.18C281.627 182.612 283.329 182.981 285.105 183C289.264 183 291.988 180.923 292 177.7M302.336 182.756H306L302.8 167.275H299.415C298.653 167.275 298.016 167.72 297.731 168.408L291.79 182.756H295.949L296.778 180.447H301.859L302.336 182.756ZM297.917 177.268L300.003 171.455L301.203 177.268H297.917ZM281.249 167.269L277.975 182.75H274.014L277.288 167.269H281.249Z" fill="#FFDDCC"/>
<path d="M249.459 34.2393C247.231 34.2393 245.802 33.1113 245.665 31.4502L245.659 31.3613H247.163L247.169 31.4365C247.251 32.332 248.202 32.9062 249.521 32.9062C250.779 32.9062 251.674 32.2773 251.674 31.3613V31.3545C251.674 30.5957 251.141 30.1035 249.835 29.8232L248.755 29.5908C246.752 29.167 245.891 28.2373 245.891 26.7812V26.7744C245.898 25.0723 247.374 23.8965 249.466 23.8965C251.558 23.8965 252.925 25.0791 253.035 26.6104L253.041 26.7061H251.558L251.544 26.6172C251.414 25.8105 250.642 25.2227 249.446 25.2295C248.29 25.2295 247.436 25.7695 247.436 26.6992V26.7061C247.436 27.4375 247.956 27.916 249.234 28.1895L250.307 28.4287C252.378 28.873 253.226 29.707 253.226 31.1699V31.1768C253.226 33.0635 251.756 34.2393 249.459 34.2393ZM257.794 34.0479C256.161 34.0479 255.491 33.4736 255.491 32.0449V27.7451H254.329V26.5762H255.491V24.7031H257.001V26.5762H258.594V27.7451H257.001V31.6895C257.001 32.4893 257.302 32.8174 258.034 32.8174C258.259 32.8174 258.389 32.8105 258.594 32.79V33.9727C258.355 34.0137 258.082 34.0479 257.794 34.0479ZM262.281 34.123C260.866 34.123 259.82 33.2617 259.82 31.915V31.9014C259.82 30.5752 260.818 29.8027 262.588 29.6934L264.598 29.5771V28.9209C264.598 28.1074 264.086 27.6562 263.081 27.6562C262.26 27.6562 261.72 27.957 261.543 28.4834L261.536 28.5107H260.107L260.114 28.4629C260.292 27.2461 261.461 26.4326 263.149 26.4326C265.015 26.4326 266.068 27.3623 266.068 28.9209V34H264.598V32.9473H264.482C264.045 33.6992 263.265 34.123 262.281 34.123ZM261.296 31.8535C261.296 32.5371 261.878 32.9404 262.677 32.9404C263.785 32.9404 264.598 32.2158 264.598 31.2588V30.623L262.787 30.7393C261.761 30.8008 261.296 31.1699 261.296 31.8398V31.8535ZM268.08 34V26.5762H269.563V27.7041H269.673C270.035 26.9111 270.746 26.4326 271.826 26.4326C273.487 26.4326 274.403 27.4238 274.403 29.1943V34H272.926V29.543C272.926 28.3125 272.414 27.7041 271.327 27.7041C270.24 27.7041 269.563 28.4492 269.563 29.6455V34H268.08ZM279.101 34.123C277.235 34.123 276.025 32.626 276.025 30.2949V30.2812C276.025 27.9297 277.215 26.4463 279.101 26.4463C280.12 26.4463 280.988 26.9521 281.385 27.752H281.501V23.6641H282.977V34H281.501V32.8311H281.385C280.954 33.6445 280.14 34.123 279.101 34.123ZM279.525 32.8584C280.762 32.8584 281.521 31.8809 281.521 30.2949V30.2812C281.521 28.6953 280.756 27.7178 279.525 27.7178C278.281 27.7178 277.536 28.6885 277.536 30.2812V30.2949C277.536 31.8877 278.281 32.8584 279.525 32.8584ZM287.142 34.123C285.727 34.123 284.681 33.2617 284.681 31.915V31.9014C284.681 30.5752 285.68 29.8027 287.45 29.6934L289.46 29.5771V28.9209C289.46 28.1074 288.947 27.6562 287.942 27.6562C287.122 27.6562 286.582 27.957 286.404 28.4834L286.397 28.5107H284.969L284.975 28.4629C285.153 27.2461 286.322 26.4326 288.011 26.4326C289.877 26.4326 290.93 27.3623 290.93 28.9209V34H289.46V32.9473H289.344C288.906 33.6992 288.127 34.123 287.142 34.123ZM286.158 31.8535C286.158 32.5371 286.739 32.9404 287.539 32.9404C288.646 32.9404 289.46 32.2158 289.46 31.2588V30.623L287.648 30.7393C286.623 30.8008 286.158 31.1699 286.158 31.8398V31.8535ZM292.941 34V26.5762H294.425V27.6973H294.534C294.801 26.9111 295.491 26.4463 296.482 26.4463C296.722 26.4463 296.981 26.4805 297.132 26.5146V27.8818C296.865 27.8271 296.612 27.793 296.332 27.793C295.197 27.793 294.425 28.4902 294.425 29.5635V34H292.941ZM300.982 34.123C299.116 34.123 297.906 32.626 297.906 30.2949V30.2812C297.906 27.9297 299.096 26.4463 300.982 26.4463C302.001 26.4463 302.869 26.9521 303.266 27.752H303.382V23.6641H304.858V34H303.382V32.8311H303.266C302.835 33.6445 302.021 34.123 300.982 34.123ZM301.406 32.8584C302.644 32.8584 303.402 31.8809 303.402 30.2949V30.2812C303.402 28.6953 302.637 27.7178 301.406 27.7178C300.162 27.7178 299.417 28.6885 299.417 30.2812V30.2949C299.417 31.8877 300.162 32.8584 301.406 32.8584Z" fill="#FFDDCC"/>
</g>
<defs>
<clipPath id="clip0_31477_73457">
<rect width="326" height="205" fill="white"/>
</clipPath>
</defs>
</svg>
