<svg width="224" height="338" viewBox="0 0 224 338" fill="none" xmlns="http://www.w3.org/2000/svg">
<g clip-path="url(#clip0_974_191972)">
<rect width="224" height="338" rx="12" fill="white"/>
<g filter="url(#filter0_ii_974_191972)">
<rect width="224" height="338" rx="12" fill="url(#paint0_linear_974_191972)"/>
<path d="M170.217 41.8349H165.519L168.457 23.6641H173.155L170.217 41.8349Z" fill="white"/>
<path d="M187.25 24.1056C186.323 23.738 184.854 23.332 183.036 23.332C178.396 23.332 175.129 25.8062 175.109 29.3436C175.07 31.9534 177.448 33.403 179.227 34.2732C181.044 35.1625 181.662 35.7429 181.662 36.5355C181.644 37.7528 180.193 38.3139 178.841 38.3139C176.965 38.3139 175.96 38.0246 174.432 37.3474L173.814 37.057L173.156 41.136C174.258 41.638 176.288 42.0835 178.396 42.1031C183.326 42.1031 186.536 39.6671 186.574 35.8975C186.592 33.829 185.337 32.244 182.63 30.9489C180.987 30.1175 179.98 29.5568 179.98 28.7062C179.999 27.9328 180.831 27.1407 182.686 27.1407C184.214 27.1019 185.336 27.4691 186.186 27.8365L186.611 28.0294L187.25 24.1056V24.1056Z" fill="white"/>
<path d="M193.493 35.3976C193.88 34.3537 195.369 30.3136 195.369 30.3136C195.349 30.3524 195.755 29.2504 195.987 28.5739L196.315 30.1396C196.315 30.1396 197.205 34.4891 197.398 35.3976C196.664 35.3976 194.421 35.3976 193.493 35.3976ZM199.292 23.6641H195.658C194.537 23.6641 193.686 23.9924 193.202 25.1717L186.224 41.8346H191.154C191.154 41.8346 191.965 39.5919 192.14 39.1089C192.68 39.1089 197.476 39.1089 198.172 39.1089C198.307 39.7469 198.733 41.8346 198.733 41.8346H203.083L199.292 23.6641V23.6641Z" fill="white"/>
<path d="M161.594 23.6641L156.993 36.0548L156.49 33.5419C155.639 30.6422 152.971 27.4918 149.994 25.9253L154.209 41.8157H159.177L166.562 23.6641H161.594V23.6641Z" fill="white"/>
<path d="M152.72 23.6641H145.16L145.083 24.0312C150.98 25.5391 154.885 29.1738 156.489 33.5426L154.846 25.1915C154.576 24.031 153.744 23.7023 152.72 23.6641Z" fill="white"/>
<g filter="url(#filter1_b_974_191972)">
<rect width="52" height="338" fill="black" fill-opacity="0.24"/>
</g>
</g>
</g>
<defs>
<filter id="filter0_ii_974_191972" x="0" y="-0.5" width="224" height="339" filterUnits="userSpaceOnUse" color-interpolation-filters="sRGB">
<feFlood flood-opacity="0" result="BackgroundImageFix"/>
<feBlend mode="normal" in="SourceGraphic" in2="BackgroundImageFix" result="shape"/>
<feColorMatrix in="SourceAlpha" type="matrix" values="0 0 0 0 0 0 0 0 0 0 0 0 0 0 0 0 0 0 127 0" result="hardAlpha"/>
<feOffset dy="1"/>
<feGaussianBlur stdDeviation="0.25"/>
<feComposite in2="hardAlpha" operator="arithmetic" k2="-1" k3="1"/>
<feColorMatrix type="matrix" values="0 0 0 0 1 0 0 0 0 1 0 0 0 0 1 0 0 0 0.25 0"/>
<feBlend mode="normal" in2="shape" result="effect1_innerShadow_974_191972"/>
<feColorMatrix in="SourceAlpha" type="matrix" values="0 0 0 0 0 0 0 0 0 0 0 0 0 0 0 0 0 0 127 0" result="hardAlpha"/>
<feOffset dy="-1"/>
<feGaussianBlur stdDeviation="0.25"/>
<feComposite in2="hardAlpha" operator="arithmetic" k2="-1" k3="1"/>
<feColorMatrix type="matrix" values="0 0 0 0 0 0 0 0 0 0 0 0 0 0 0 0 0 0 0.25 0"/>
<feBlend mode="normal" in2="effect1_innerShadow_974_191972" result="effect2_innerShadow_974_191972"/>
</filter>
<filter id="filter1_b_974_191972" x="-100" y="-100" width="252" height="538" filterUnits="userSpaceOnUse" color-interpolation-filters="sRGB">
<feFlood flood-opacity="0" result="BackgroundImageFix"/>
<feGaussianBlur in="BackgroundImageFix" stdDeviation="50"/>
<feComposite in2="SourceAlpha" operator="in" result="effect1_backgroundBlur_974_191972"/>
<feBlend mode="normal" in="SourceGraphic" in2="effect1_backgroundBlur_974_191972" result="shape"/>
</filter>
<linearGradient id="paint0_linear_974_191972" x1="112" y1="0" x2="112" y2="338" gradientUnits="userSpaceOnUse">
<stop stop-color="#0230E0"/>
<stop offset="1" stop-color="#ED734A"/>
</linearGradient>
<clipPath id="clip0_974_191972">
<rect width="224" height="338" rx="12" fill="white"/>
</clipPath>
</defs>
</svg>
