<svg width="80" height="66" viewBox="0 0 80 66" fill="none" xmlns="http://www.w3.org/2000/svg">
<g id="No_rewards_yet">
<g id="no result">
<g id="Group">
<path id="Vector" d="M44.0021 11.8083L43.336 12.3558C43.2062 12.4631 43.0256 12.4405 42.924 12.3163L37.7196 5.64996C37.5898 5.48626 37.6688 5.23225 37.872 5.17016L39.9549 4.52102C40.0847 4.48151 40.2202 4.53231 40.2879 4.65085L44.0811 11.4244C44.1545 11.5543 44.1206 11.718 44.0021 11.8139V11.8083Z" fill="#1E1A25"/>
<path id="Vector_2" d="M49.3926 11.2107L48.2467 11.222C48.0492 11.222 47.8798 11.0978 47.8516 10.9228L46.5872 3.63557C46.5533 3.42672 46.7283 3.24609 46.9654 3.24609L50.0474 3.26303C50.2788 3.26303 50.4594 3.43801 50.4425 3.64122L49.7764 10.9002C49.7595 11.0752 49.5958 11.2107 49.3982 11.2107H49.3926Z" fill="#1E1A25"/>
<path id="Vector_3" d="M59.9424 5.95464L55.4775 13.1742C55.3928 13.3153 55.2121 13.3774 55.0485 13.3266L54.0776 13.0274C53.88 12.9653 53.7784 12.7677 53.8461 12.5815L56.8604 4.61686C56.9338 4.43059 57.1596 4.34027 57.3515 4.41929L59.773 5.46356C59.9706 5.54823 60.0496 5.77401 59.9367 5.95464H59.9424Z" fill="#1E1A25"/>
</g>
<g id="Vector_4">
<path d="M5.81055 37.3242C7.06366 39.9829 8.67239 44.3687 8.70626 49.9062C8.72319 52.4406 8.40709 54.6646 8.00067 56.4878C8.04583 56.787 8.20952 57.6732 8.97155 58.4465C9.48522 58.9658 10.1569 59.3327 10.9133 59.4569L42.4613 64.6444C42.7322 64.6895 42.9693 64.475 42.958 64.2041C42.5798 56.6233 42.2016 49.0425 41.8235 41.4618" fill="#FF523D"/>
<path d="M5.81055 37.3242C7.06366 39.9829 8.67239 44.3687 8.70626 49.9062C8.72319 52.4406 8.40709 54.6646 8.00067 56.4878C8.04583 56.787 8.20952 57.6732 8.97155 58.4465C9.48522 58.9658 10.1569 59.3327 10.9133 59.4569L42.4613 64.6444C42.7322 64.6895 42.9693 64.475 42.958 64.2041C42.5798 56.6233 42.2016 49.0425 41.8235 41.4618" stroke="white" stroke-miterlimit="10"/>
</g>
<path id="Vector_5" d="M7.13645 34.7791C6.73004 34.971 6.82035 35.5694 7.26064 35.6371L40.4399 40.9487L41.6535 41.1407C41.7608 41.1576 41.868 41.1407 41.964 41.0786L68.5108 24.9123C68.8664 24.6978 68.7704 24.1559 68.364 24.0769L43.4259 19.1886C41.9358 18.8951 40.3891 19.087 39.0175 19.7361C32.4527 22.8294 12.5384 32.2277 7.1421 34.7735L7.13645 34.7791Z" fill="#FF523D" stroke="white" stroke-miterlimit="10"/>
<path id="Vector_6" d="M32.5773 53.7487C22.4 52.8851 13.6959 50.1869 2.86384 48.1944C2.00585 48.0363 1.32849 47.3702 1.17608 46.5066C0.961586 45.2761 0.837404 43.3738 1.44703 41.2006C1.84215 39.7951 2.41791 38.621 2.99366 37.6897C3.65409 36.6172 4.88462 36.0358 6.13209 36.2277C17.5682 37.9775 29.0042 39.7274 40.446 41.4772C40.1863 41.5675 36.2125 43.0239 35.3771 46.9356C35.0666 48.3976 34.7561 50.4748 34.6037 52.0666C34.5078 53.0883 33.6046 53.8447 32.5773 53.76V53.7487Z" fill="#FF523D" stroke="white" stroke-miterlimit="10"/>
<g id="Vector_7">
<path d="M28.4229 39.1986L41.5015 33.1024L41.1007 19.3633" fill="#FF523D"/>
<path d="M28.4229 39.1986L41.5015 33.1024L41.1007 19.3633" stroke="white" stroke-miterlimit="10"/>
</g>
<g id="Vector_8">
<path d="M73.4555 35.9414C72.891 36.4551 71.8975 37.5163 71.3839 39.1645C70.4243 42.2408 71.9145 44.8656 72.1911 45.3341C72.1572 45.5768 72.0669 46.0284 71.7621 46.4969C71.5363 46.8469 71.2371 47.1404 70.8759 47.3662L43.3243 64.509C43.1662 64.605 42.963 64.4977 42.963 64.3114L42.4042 42.2126C42.2067 41.8626 42.0091 41.5127 41.8115 41.1627" fill="#FF523D"/>
<path d="M73.4555 35.9414C72.891 36.4551 71.8975 37.5163 71.3839 39.1645C70.4243 42.2408 71.9145 44.8656 72.1911 45.3341C72.1572 45.5768 72.0669 46.0284 71.7621 46.4969C71.5363 46.8469 71.2371 47.1404 70.8759 47.3662L43.3243 64.509C43.1662 64.605 42.963 64.4977 42.963 64.3114L42.4042 42.2126C42.2067 41.8626 42.0091 41.5127 41.8115 41.1627" stroke="white" stroke-miterlimit="10"/>
</g>
<path id="Vector_9" d="M42.9805 41.1689C44.3465 41.9535 46.2826 43.28 48.1453 45.3855C49.342 46.7402 50.2169 48.0836 50.8491 49.2577C51.3346 50.1609 52.4974 50.4375 53.3441 49.8561C61.1224 44.5162 70.5828 39.4022 78.316 34.0567C79.1345 33.4922 79.2361 32.3238 78.5249 31.6351C77.3564 30.5005 75.6066 29.1176 74.6018 27.8758C74.3083 27.5089 74.0035 27.1758 73.7043 26.8654C72.2424 25.3639 69.9337 25.0986 68.1331 26.1711C59.7507 31.1722 51.3628 36.1734 42.9805 41.1746V41.1689Z" fill="#FF523D" stroke="white" stroke-miterlimit="10"/>
<path id="Vector_10" d="M52.2381 35.6417L41.502 33.1016" stroke="white" stroke-miterlimit="10"/>
<path id="Vector_11" d="M36.5337 29.2805C28.9755 24.8946 23.2349 15.6881 23.8276 6.79217C24.0082 3.89646 25.8201 0.707232 29.1336 0.972531C31.0471 1.11365 32.9098 1.94906 34.1234 3.47876C36.5902 6.65106 35.1621 11.3192 32.1252 13.4529C27.8861 16.501 22.0156 16.0946 17.387 14.2036C14.2655 12.6795 12.5326 9.41694 11.8214 6.19948C11.4714 4.61334 11.3021 2.99896 11.3642 1.39588C11.9512 5.79307 13.6333 11.0031 18.0023 12.8602C20.7851 13.8367 24.0421 14.0399 26.9265 13.5093C29.5964 13.0126 32.3905 11.2006 33.0284 8.45735C33.5138 6.52687 32.6784 4.52867 30.8947 3.71019C29.8561 3.21911 28.4449 2.86349 27.4627 3.57472C25.8935 4.85041 25.7298 7.33406 25.7637 9.25324C26.2266 17.0259 30.3585 24.3245 36.5337 29.2805Z" fill="#39FDDC"/>
</g>
</g>
</svg>
