<svg width="82" height="80" viewBox="0 0 82 80" fill="none" xmlns="http://www.w3.org/2000/svg">
<path d="M10.7652 47.9115C10.2705 47.9115 9.84671 47.5582 9.70578 47.0639C9.14059 44.7328 8.92871 42.331 8.92871 39.9999C8.92871 33.1477 11.0481 26.6488 15.0743 21.1388C15.4276 20.6441 16.0633 20.5736 16.558 20.9269C17.0528 21.2802 17.1232 21.9159 16.7699 22.4106C13.026 27.5673 11.0481 33.6424 11.0481 40.0708C11.0481 42.3315 11.3305 44.5213 11.8252 46.7111C11.9666 47.2763 11.6133 47.8415 11.0481 47.9824C10.9067 47.9115 10.8361 47.9115 10.7652 47.9115Z" fill="#9F9FBB"/>
<path d="M18.6768 19.5844C18.3944 19.5844 18.1821 19.514 17.9702 19.3021C17.5464 18.8783 17.5464 18.2427 17.9702 17.8184C19.1005 16.688 20.3013 15.5576 21.5727 14.6397C22.0674 14.2864 22.7031 14.3573 23.0564 14.8516C23.4097 15.3463 23.3388 15.9819 22.8445 16.3353C21.6437 17.2537 20.5134 18.2427 19.5244 19.3022C19.1711 19.5136 18.9592 19.5845 18.6769 19.5845L18.6768 19.5844Z" fill="#9F9FBB"/>
<path d="M72.0106 41.0594C71.4454 41.0594 70.9512 40.5647 70.9512 40C70.9512 23.4701 57.5295 10.0484 40.9996 10.0484C36.1253 10.0484 31.2511 11.2492 27.0128 13.5804C26.518 13.8628 25.8824 13.6509 25.6001 13.1566C25.3177 12.6619 25.5296 12.0263 26.0238 11.744C30.6152 9.3423 35.7724 8 40.9996 8C58.6598 8 73.0705 22.4107 73.0705 40.0708C73.071 40.5651 72.5763 41.0598 72.0111 41.0598L72.0106 41.0594Z" fill="#9F9FBB"/>
<path d="M64.0285 61.7573H63.8166C63.2515 61.6868 62.8277 61.1216 62.9691 60.5564C65.1588 48.3357 64.7351 39.6468 64.6646 38.6579C64.3113 32.0175 61.1326 25.8719 55.9759 21.6335C55.5522 21.2802 55.4812 20.5741 55.8345 20.1498C56.1878 19.726 56.8939 19.655 57.3182 20.0083C62.8986 24.5997 66.3602 31.3111 66.7839 38.5162C66.8544 39.5051 67.2787 48.4766 65.0179 60.9093C64.9465 61.405 64.5227 61.7578 64.0285 61.7578L64.0285 61.7573Z" fill="#9F9FBB"/>
<path d="M14.5096 57.0241H14.2272C13.662 56.8827 13.3087 56.3175 13.4501 55.7529C15.4985 47.6998 15.2162 41.6247 15.2162 41.5541C14.3686 27.3553 25.3175 15.0639 39.5165 14.2868C43.3309 14.0749 47.0753 14.6401 50.6074 16.0528C51.1725 16.2647 51.3844 16.9004 51.1725 17.3951C50.9607 17.9603 50.325 18.1722 49.8302 17.9603C46.5805 16.689 43.1899 16.1238 39.6579 16.3357C26.5894 17.1128 16.5584 28.3445 17.3354 41.4131C17.3354 41.4836 17.6178 47.8415 15.4989 56.2477C15.3575 56.7414 14.9332 57.0237 14.5095 57.0237L14.5096 57.0241Z" fill="#9F9FBB"/>
<path d="M56.3992 67.9736H56.1169C55.5517 67.8322 55.1984 67.267 55.3398 66.7023C56.3992 62.6052 57.1763 58.367 57.7414 54.1283C57.8119 53.5631 58.3066 53.1394 58.9423 53.2098C59.5075 53.2803 59.9312 53.8455 59.8608 54.4106C59.2956 58.6493 58.4481 62.9584 57.3881 67.126C57.3171 67.6202 56.8229 67.9735 56.3991 67.9735L56.3992 67.9736Z" fill="#9F9FBB"/>
<path d="M59.5074 47.1345C58.8717 47.1345 58.448 46.6398 58.448 46.0042C58.6598 41.907 58.5184 39.2934 58.5184 39.0106C57.9532 29.333 49.6174 21.9862 40.0106 22.4807C38.174 22.6221 36.3371 22.9754 34.642 23.6815C34.0768 23.8934 33.5116 23.6111 33.2997 23.1163C33.0878 22.5512 33.3702 21.986 33.8649 21.774C35.7723 20.997 37.8206 20.5732 39.94 20.4318C50.6775 19.7966 60.0019 28.0614 60.6377 38.869C60.6377 39.3637 60.7791 41.9773 60.5672 46.1449C60.5672 46.7101 60.0725 47.1339 59.5078 47.1339L59.5074 47.1345Z" fill="#9F9FBB"/>
<path d="M19.1007 63.0288C18.9592 63.0288 18.8888 63.0288 18.7474 62.9583C18.1822 62.7464 17.8998 62.1813 18.0408 61.616C21.7142 50.3843 21.2905 41.2009 21.2905 41.1302C20.9372 35.4085 23.127 29.7571 27.2952 25.8012C27.7189 25.3775 28.3546 25.3775 28.7789 25.8012C29.2027 26.225 29.2027 26.8606 28.7789 27.2849C25.0349 30.817 23.1275 35.8327 23.4103 40.9892C23.4103 41.0597 23.905 50.5963 20.0197 62.252C20.0187 62.7458 19.5949 63.0286 19.1007 63.0286L19.1007 63.0288Z" fill="#9F9FBB"/>
<path d="M49.1231 70.9404C49.0527 70.9404 48.9112 70.9404 48.7698 70.8699C48.2046 70.7285 47.9223 70.0929 48.0632 69.5276C51.2419 59.3553 52.7961 48.3354 52.3019 39.2934C52.1605 37.3155 51.5953 35.4081 50.4654 33.7835C50.1121 33.2887 50.2535 32.6531 50.7477 32.2998C51.2424 31.9465 51.8781 32.0879 52.2314 32.5821C53.5027 34.56 54.2094 36.8208 54.3508 39.1514C54.916 48.4052 53.2914 59.7079 50.0417 70.1627C49.9707 70.6579 49.547 70.9402 49.1232 70.9402L49.1231 70.9404Z" fill="#9F9FBB"/>
<path d="M24.2576 67.1258C24.1161 67.1258 24.0457 67.1258 23.9043 67.0554C23.3391 66.8435 23.0567 66.2783 23.2686 65.7131C28.0719 52.5739 27.5777 41.2008 27.5777 40.7063C27.2244 33.2889 32.9462 27.002 40.293 26.5782C42.3413 26.4368 44.3902 26.7901 46.2977 27.6376C46.8629 27.8495 47.0748 28.4851 46.8629 29.0503C46.651 29.6155 46.0154 29.8273 45.4502 29.6155C43.8256 28.9088 42.1301 28.6265 40.4345 28.7679C34.218 29.1212 29.4147 34.4193 29.697 40.6353C29.7674 41.9066 30.1207 53.1388 25.3174 66.4898C25.105 66.8426 24.6812 67.1254 24.2575 67.1254L24.2576 67.1258Z" fill="#9F9FBB"/>
<path d="M42.0585 72C41.9171 72 41.8467 72 41.7052 71.9295C41.1401 71.7177 40.8577 71.1525 41.0696 70.5872C46.8624 53.7748 46.1557 39.8586 46.1557 39.7173C46.0143 36.8919 43.6127 34.7726 40.7163 34.914C37.8909 35.0554 35.7005 37.5276 35.913 40.3534C35.913 40.6358 35.9834 42.2609 35.913 44.8039C35.913 45.3691 35.4182 45.8633 34.7826 45.7929C34.2174 45.7929 33.7232 45.2981 33.7936 44.6625C33.8641 42.1898 33.7936 40.7068 33.7936 40.4238C33.5818 36.4681 36.619 33.0064 40.6458 32.7946C44.6726 32.5827 48.0632 35.62 48.275 39.6468C48.275 39.7882 49.052 54.0574 43.1183 71.3644C42.906 71.7167 42.4822 71.9996 42.0584 71.9996L42.0585 72Z" fill="#9F9FBB"/>
<path d="M29.9089 69.9517C29.7675 69.9517 29.6266 69.9517 29.5556 69.8812C28.9904 69.6693 28.7081 69.0337 28.92 68.5389C30.9683 63.0995 32.3815 57.3072 33.1587 51.3026C33.2291 50.7374 33.7943 50.3137 34.3595 50.3841C34.9247 50.4546 35.3484 51.0198 35.278 51.585C34.5009 57.7306 33.0172 63.6648 30.8984 69.3158C30.686 69.74 30.3327 69.9519 29.9089 69.9519V69.9517Z" fill="#9F9FBB"/>
<path d="M35.7722 71.576C35.6308 71.576 35.5603 71.576 35.4189 71.5056C34.8537 71.2937 34.5714 70.7285 34.7833 70.1633C35.278 68.892 35.7017 67.4788 36.1256 66.1365C36.267 65.5713 36.9026 65.289 37.4679 65.4299C38.033 65.5713 38.3154 66.207 38.1745 66.7722C37.7507 68.1849 37.256 69.5272 36.7618 70.8694C36.6199 71.2936 36.1961 71.576 35.7723 71.576L35.7722 71.576Z" fill="#9F9FBB"/>
<path d="M38.8805 61.0508H38.6686C38.1034 60.9094 37.7501 60.3442 37.8915 59.7795C40.4346 48.5478 40.0109 40.2121 40.0109 40.0708C40.0109 39.5056 40.4347 39.0114 40.9998 38.9404C41.565 38.9404 42.0592 39.3642 42.1302 39.9294C42.1302 40.2827 42.6249 48.6889 40.0109 60.2032C39.799 60.6975 39.3752 61.0508 38.8805 61.0508Z" fill="#9F9FBB"/>
</svg>
