<svg xmlns="http://www.w3.org/2000/svg" width="220" height="210" viewBox="0 0 220 210" fill="none">
  <g clip-path="url(#clip0_22241_15828)">
    <path d="M23.6038 7.61583L35.77 38.2038C36.3318 39.6041 37.9206 40.2955 39.325 39.7354L46.1718 37.0223C47.4007 36.5322 48.1117 35.2369 47.8483 33.9504L41.4668 2.25966C41.1684 0.780581 39.6586 -0.112114 38.219 0.31673L25.2453 4.22009C23.8145 4.64893 23.0508 6.21552 23.6038 7.60708" fill="#39FDDC"/>
    <path d="M219.36 156.642L194.492 130.142C193.746 129.31 192.394 128.811 191.191 128.916L185.416 129.433C184.239 129.538 183.625 130.194 183.52 131.052C178.981 167.346 137.146 187.432 105.177 190.538C102.684 190.784 100.911 192.709 101.201 194.827L102.746 206.327C103.044 208.506 105.405 210.073 107.96 209.731C159.398 202.721 190.384 163.819 190.551 139.077L207.281 159.968C208.291 161.123 210.196 161.648 211.53 161.15L218.859 159.592C220.167 159.093 220.396 157.771 219.368 156.642" fill="white"/>
    <path d="M95.1436 135.543C92.6243 139.639 89.7013 140.566 82.5648 140.566C74.8491 140.566 74.024 137.258 71.7066 132.628C67.5108 124.209 59.9881 110.171 50.7012 97.3407C49.2177 95.2928 49.8848 92.7372 52.1758 91.5819L60.3832 87.4598C62.6742 86.3045 65.7903 87.066 67.3001 89.1227C74.4629 98.9073 80.2475 110.547 84.7681 118.783C101.946 93.3936 136.356 67.9518 154.052 57.2744C140.139 44.873 120.082 36.9262 97.9437 36.6724C57.6006 36.1998 19.6626 61.9917 14.2642 98.3647C8.04944 140.216 46.4878 176.222 98.2334 172.887C147.161 169.737 180.034 132.663 174.715 94.8639C173.372 85.2981 169.791 76.6424 164.603 69.142C146.731 80.7296 112.366 107.519 95.1348 135.534" fill="#FF523D"/>
    <path d="M1.06223 47.2783L20.5316 55.6189C21.5498 56.0565 22.7348 55.7151 23.3668 54.8137L26.8604 49.8514C27.6065 48.8011 27.3432 47.3396 26.2899 46.6044L7.8212 33.6691C6.92586 33.0477 5.68817 33.3715 5.21417 34.3517L0.175666 44.9065C-0.25445 45.808 0.149333 46.8845 1.07101 47.2783" fill="#39FDDC"/>
  </g>
  <defs>
    <clipPath id="clip0_22241_15828">
      <rect width="220" height="209.573" fill="white" transform="translate(0 0.212891)"/>
    </clipPath>
  </defs>
</svg>