<svg xmlns="http://www.w3.org/2000/svg" width="60" height="20" viewBox="0 0 60 20" fill="none">
  <path d="M22.7889 0.359797L14.9299 19.7106H9.79917L5.93407 4.26281C5.69913 3.30856 5.49451 2.96441 4.78211 2.56551C3.61501 1.90849 1.69003 1.2984 0 0.922957L0.113679 0.359797H8.36681C9.42023 0.359797 10.3676 1.07939 10.6025 2.33086L12.6487 13.5315L17.6961 0.359797H22.7965H22.7889ZM42.8799 13.3907C42.9026 8.28314 36.0364 8.00156 36.0819 5.71764C36.097 5.02151 36.7336 4.28627 38.1357 4.09855C38.8329 4.00469 40.7427 3.9343 42.9178 4.96676L43.7666 0.860384C42.5995 0.42237 41.0989 0 39.227 0C34.4373 0 31.0572 2.62808 31.0269 6.39812C30.9966 9.18264 33.4369 10.7391 35.2709 11.6621C37.158 12.6085 37.7946 13.2186 37.787 14.0634C37.7719 15.3618 36.2789 15.9327 34.8844 15.9562C32.4441 15.9953 31.0269 15.2757 29.8977 14.736L29.0186 18.9754C30.1554 19.5151 32.2395 19.9765 34.4146 20C39.5074 20 42.842 17.4032 42.8571 13.3751M55.5135 19.695H60L56.0819 0.344154H51.9363C51.0042 0.344154 50.2236 0.899492 49.875 1.75987L42.5995 19.695H47.6923L48.7079 16.8088H54.9299L55.5135 19.695ZM50.1023 12.8354L52.6563 5.56903L54.1266 12.8354H50.1023ZM29.6931 0.336332L25.684 19.6871H20.8337L24.8427 0.336332H29.6931Z" fill="url(#paint0_linear_21910_13231)"/>
  <defs>
    <linearGradient id="paint0_linear_21910_13231" x1="13.9473" y1="16.8151" x2="21.241" y2="-8.45885" gradientUnits="userSpaceOnUse">
      <stop offset="0.03" stop-color="#808080"/>
      <stop offset="1" stop-color="#DEDEDE"/>
    </linearGradient>
  </defs>
</svg>